<?xml version="1.0" standalone="no"?>
<!DOCTYPE svg PUBLIC "-//W3C//DTD SVG 20010904//EN"
 "http://www.w3.org/TR/2001/REC-SVG-20010904/DTD/svg10.dtd">
<svg version="1.0" xmlns="http://www.w3.org/2000/svg"
 width="400.000000pt" height="400.000000pt" viewBox="0 0 400.000000 400.000000"
 preserveAspectRatio="xMidYMid meet">
<metadata>
Created by potrace 1.11, written by Peter Selinger 2001-2013
</metadata>
<g transform="translate(0.000000,400.000000) scale(0.100000,-0.100000)"
fill="#000000" stroke="none">
<path d="M430 3990 c-130 -20 -248 -89 -325 -192 -53 -71 -83 -147 -96 -247
-6 -49 -9 -623 -7 -1606 l3 -1530 22 -65 c54 -159 170 -273 328 -323 l70 -22
1575 0 1575 0 70 22 c161 51 277 167 328 328 l22 70 0 1575 0 1575 -22 70
c-50 160 -167 276 -333 332 -52 17 -129 18 -1605 19 -852 1 -1575 -2 -1605 -6z
m3111 -231 c99 -48 170 -119 218 -218 l36 -76 0 -1465 0 -1465 -36 -76 c-48
-99 -119 -170 -218 -218 l-76 -36 -1465 0 -1465 0 -76 36 c-99 48 -170 119
-218 218 l-36 76 0 1465 0 1465 36 76 c57 119 155 204 284 245 32 10 337 12
1490 11 l1450 -2 76 -36z"/>
<path d="M638 3546 c-94 -38 -146 -92 -185 -186 l-23 -59 2 -1313 3 -1313 26
-55 c33 -70 89 -126 159 -159 l55 -26 1325 0 1325 0 55 26 c70 33 126 89 159
159 l26 55 0 1325 0 1325 -26 55 c-33 70 -89 126 -159 159 l-55 26 -1315 2
-1315 3 -57 -24z m1465 -1061 c208 -54 347 -228 347 -435 0 -57 -5 -78 -35
-136 -54 -107 -174 -235 -338 -359 l-77 -57 -77 57 c-164 124 -284 252 -338
359 -30 58 -35 79 -35 136 0 287 279 506 553 435z"/>
</g>
</svg>
