<?xml version="1.0" standalone="no"?>
<!DOCTYPE svg PUBLIC "-//W3C//DTD SVG 20010904//EN"
 "http://www.w3.org/TR/2001/REC-SVG-20010904/DTD/svg10.dtd">
<svg version="1.0" xmlns="http://www.w3.org/2000/svg"
 width="400.000000pt" height="400.000000pt" viewBox="0 0 400.000000 400.000000"
 preserveAspectRatio="xMidYMid meet">
<metadata>
Created by potrace 1.11, written by Peter Selinger 2001-2013
</metadata>
<g transform="translate(0.000000,400.000000) scale(0.100000,-0.100000)"
fill="#000000" stroke="none">
<path d="M1695 3864 c-319 -33 -617 -152 -788 -313 -242 -229 -406 -521 -480
-856 -19 -88 -21 -130 -21 -345 0 -216 2 -257 22 -346 58 -268 173 -506 341
-708 96 -116 376 -395 606 -605 171 -156 579 -513 614 -538 14 -9 34 4 126 85
442 387 858 788 989 952 169 213 279 457 327 726 30 168 30 440 0 608 -61 342
-215 631 -472 886 -232 230 -495 372 -803 431 -98 19 -368 33 -461 23z"/>
</g>
</svg>
