<?xml version="1.0" standalone="no"?>
<!DOCTYPE svg PUBLIC "-//W3C//DTD SVG 20010904//EN"
 "http://www.w3.org/TR/2001/REC-SVG-20010904/DTD/svg10.dtd">
<svg version="1.0" xmlns="http://www.w3.org/2000/svg"
 width="400.000000pt" height="400.000000pt" viewBox="0 0 400.000000 400.000000"
 preserveAspectRatio="xMidYMid meet">
<metadata>
Created by potrace 1.11, written by Peter Selinger 2001-2013
</metadata>
<g transform="translate(0.000000,400.000000) scale(0.100000,-0.100000)"
fill="#000000" stroke="none">
<path d="M577 3789 c-180 -26 -340 -189 -367 -375 -13 -94 -13 -2734 0 -2828
28 -190 186 -348 376 -376 94 -13 2734 -13 2828 0 190 28 348 186 376 376 13
94 13 2734 0 2828 -28 190 -186 348 -376 376 -85 12 -2752 11 -2837 -1z m2803
-240 c70 -33 136 -99 169 -169 l26 -55 0 -1325 0 -1325 -26 -55 c-33 -70 -99
-136 -169 -169 l-55 -26 -1325 0 -1325 0 -55 26 c-70 33 -136 99 -169 169
l-26 55 0 1325 0 1325 26 55 c44 93 132 167 226 189 22 5 602 8 1343 8 l1305
-2 55 -26z"/>
<path d="M1927 2439 c-179 -26 -340 -190 -366 -372 -42 -298 208 -548 506
-506 186 26 346 186 372 372 30 213 -93 418 -294 487 -65 23 -145 29 -218 19z"/>
</g>
</svg>
