<svg xmlns="http://www.w3.org/2000/svg" width="259.973" height="240.422" viewBox="0 0 259.973 240.422"><g fill="#010202"><path d="M82.43 83.224H70.155v25.556H47.122V83.224H.886V66.242L39.892 2.018h30.264v62.376H82.43v18.83zm-35.31-18.83V47.076c0-3.473.11-7.482.337-12.02.222-4.54.445-8.49.67-11.855h-.67a615.724 615.724 0 0 1-4.205 8.913 349.072 349.072 0 0 1-4.54 9.08l-14.12 23.2h22.53zm83.73 46.403c-5.716 0-10.928-1.206-15.636-3.615-4.708-2.408-8.717-5.968-12.02-10.676-3.308-4.708-5.885-10.534-7.734-17.485-1.85-6.946-2.774-14.962-2.774-24.04 0-9.08.925-17.037 2.774-23.875 1.85-6.835 4.427-12.58 7.733-17.233 3.305-4.648 7.313-8.124 12.02-10.423 4.71-2.3 9.92-3.45 15.637-3.45 5.717 0 10.93 1.15 15.637 3.446 4.707 2.3 8.714 5.774 12.02 10.424 3.306 4.652 5.886 10.398 7.735 17.233 1.85 6.838 2.774 14.796 2.774 23.875 0 9.078-.925 17.094-2.774 24.042-1.85 6.95-4.43 12.777-7.734 17.485-3.307 4.708-7.313 8.268-12.02 10.676-4.71 2.41-9.92 3.618-15.638 3.618zm0-19.167c2.128 0 4.09-.53 5.885-1.597 1.792-1.064 3.362-2.998 4.708-5.8 1.345-2.802 2.38-6.558 3.11-11.266.728-4.708 1.093-10.702 1.093-17.99 0-7.284-.365-13.253-1.093-17.905-.73-4.65-1.766-8.293-3.11-10.93-1.346-2.63-2.916-4.454-4.708-5.463-1.794-1.01-3.757-1.515-5.885-1.515-2.018 0-3.925.504-5.716 1.513-1.795 1.008-3.363 2.83-4.708 5.463-1.345 2.637-2.41 6.28-3.194 10.93-.785 4.65-1.177 10.62-1.177 17.906 0 7.287.392 13.28 1.177 17.99.783 4.707 1.85 8.463 3.194 11.264 1.345 2.803 2.913 4.736 4.708 5.8 1.79 1.068 3.7 1.598 5.716 1.598zm129.123-8.406H247.7v25.556h-23.034V83.224H178.43V66.242l39.006-64.225H247.7v62.376h12.273v18.83zm-35.307-18.83V47.076c0-3.473.11-7.482.337-12.02.223-4.54.445-8.49.672-11.855h-.672a615.724 615.724 0 0 1-4.204 8.913 349.072 349.072 0 0 1-4.54 9.08l-14.124 23.2h22.53zM0 166.153h5.328v13.14c0 2.305.348 3.912 1.044 4.824.696.912 1.704 1.368 3.024 1.368s2.34-.456 3.06-1.368 1.08-2.52 1.08-4.824v-13.14h5.112v12.6c0 3.937-.786 6.805-2.358 8.605-1.572 1.8-3.87 2.7-6.894 2.7-3.048 0-5.376-.9-6.984-2.7-1.608-1.8-2.412-4.67-2.412-8.604v-12.6zm23.652-1.763h5.292v6.192l-.252 3.203c.672-.6 1.452-1.157 2.34-1.674.887-.514 1.944-.77 3.168-.77 1.944 0 3.354.635 4.23 1.907.875 1.27 1.314 3.035 1.314 5.29v11.09h-5.292V179.22c0-1.296-.174-2.184-.522-2.664-.348-.48-.906-.72-1.674-.72-.672 0-1.248.15-1.728.45-.48.3-1.008.726-1.584 1.277v12.06h-5.292V164.39zm19.764 14.256h8.856v3.744h-8.856v-3.744zm11.7 2.05c0-1.487.24-2.812.72-3.977s1.12-2.144 1.925-2.937a8.343 8.343 0 0 1 2.79-1.818 8.802 8.802 0 0 1 6.536 0 8.4 8.4 0 0 1 2.772 1.818c.804.793 1.445 1.77 1.926 2.935.48 1.163.72 2.488.72 3.977s-.24 2.814-.72 3.98c-.48 1.163-1.122 2.14-1.926 2.933-.805.792-1.728 1.398-2.772 1.818s-2.13.63-3.258.63c-1.128 0-2.22-.21-3.276-.63a8.312 8.312 0 0 1-2.79-1.818c-.803-.792-1.445-1.77-1.925-2.934-.48-1.164-.72-2.49-.72-3.98zm5.435 0c0 1.56.27 2.798.81 3.71.54.912 1.364 1.367 2.468 1.367 1.08 0 1.896-.455 2.448-1.368.552-.91.828-2.147.828-3.708 0-1.56-.276-2.795-.828-3.708-.552-.913-1.368-1.37-2.448-1.37-1.104 0-1.926.457-2.466 1.37-.54.91-.81 2.147-.81 3.706zm15.59-16.306h5.29v6.192l-.25 3.203c.67-.6 1.45-1.157 2.34-1.674.886-.514 1.943-.77 3.167-.77 1.944 0 3.354.635 4.23 1.907.875 1.27 1.314 3.035 1.314 5.29v11.09h-5.29V179.22c0-1.296-.174-2.184-.522-2.664-.348-.48-.906-.72-1.674-.72-.672 0-1.248.15-1.728.45-.48.3-1.008.726-1.584 1.277v12.06h-5.29V164.39zm20.41 22.356c0-.96.307-1.758.92-2.395.61-.634 1.373-.952 2.285-.952s1.674.318 2.286.954c.614.638.92 1.435.92 2.396 0 .936-.306 1.722-.92 2.357s-1.372.954-2.284.954-1.674-.32-2.286-.955c-.613-.635-.92-1.42-.92-2.357zm10.8 0c0-.96.307-1.758.92-2.395.61-.634 1.373-.952 2.285-.952s1.674.318 2.286.954c.614.638.92 1.435.92 2.396 0 .936-.306 1.722-.92 2.357s-1.372.954-2.284.954-1.674-.32-2.286-.955c-.613-.635-.92-1.42-.92-2.357zm10.8 0c0-.96.306-1.758.918-2.395.612-.634 1.374-.952 2.286-.952s1.674.318 2.286.954c.612.638.918 1.435.918 2.396 0 .936-.306 1.722-.918 2.357s-1.374.954-2.286.954-1.674-.32-2.286-.955c-.612-.635-.918-1.42-.918-2.357zM.144 209.354H5.58l6.12 11.664 2.304 5.184h.144c-.12-1.247-.258-2.64-.414-4.176-.156-1.535-.234-3-.234-4.392v-8.28h5.04v23.473h-5.436l-6.12-11.7-2.304-5.112h-.144c.12 1.296.257 2.688.414 4.176.156 1.49.234 2.93.234 4.32v8.318H.144v-23.473zm22.464 14.543c0-1.487.24-2.813.72-3.978s1.122-2.145 1.926-2.936a8.297 8.297 0 0 1 2.79-1.818 8.784 8.784 0 0 1 6.534 0 8.352 8.352 0 0 1 2.772 1.818c.804.79 1.445 1.77 1.926 2.934.48 1.163.72 2.49.72 3.977 0 1.49-.24 2.814-.72 3.978-.48 1.165-1.122 2.143-1.926 2.935a8.35 8.35 0 0 1-2.772 1.817 8.788 8.788 0 0 1-6.534 0 8.294 8.294 0 0 1-2.79-1.817c-.804-.792-1.446-1.77-1.926-2.935-.48-1.163-.72-2.488-.72-3.978zm5.436 0c0 1.56.27 2.796.81 3.708s1.362 1.368 2.466 1.368c1.08 0 1.896-.456 2.448-1.368.552-.912.828-2.147.828-3.708 0-1.56-.276-2.796-.828-3.708-.552-.914-1.368-1.37-2.448-1.37-1.104 0-1.926.456-2.466 1.368s-.81 2.148-.81 3.707zm16.308-4.787h-2.448v-3.925l2.736-.216.612-4.754h4.392v4.752h4.284v4.14h-4.284v7.163c0 1.01.21 1.735.63 2.18.42.445.978.666 1.674.666.288 0 .582-.035.882-.107.3-.073.57-.157.81-.253l.828 3.852c-.48.144-1.044.287-1.692.43-.648.146-1.404.218-2.268.218-1.104 0-2.046-.17-2.826-.505-.78-.336-1.417-.805-1.908-1.404-.492-.6-.852-1.326-1.08-2.178s-.342-1.794-.342-2.826v-7.238zm13.068-11.52h5.29v6.19l-.25 3.206c.67-.6 1.45-1.158 2.34-1.675.886-.514 1.943-.772 3.167-.772 1.944 0 3.354.637 4.23 1.908.875 1.273 1.314 3.037 1.314 5.293v11.087h-5.29v-10.404c0-1.297-.173-2.184-.52-2.664-.35-.48-.907-.72-1.675-.72-.672 0-1.248.15-1.728.45-.48.3-1.008.725-1.584 1.276v12.06H57.42V207.59zm23.183 4.752c-.888 0-1.62-.258-2.196-.773-.576-.52-.864-1.185-.864-2 0-.816.288-1.477.864-1.98s1.308-.756 2.196-.756c.912 0 1.65.252 2.214.756.563.505.846 1.165.846 1.98 0 .816-.282 1.482-.846 2-.564.514-1.302.772-2.214.772zm-2.628 2.628h5.292v17.856h-5.292V214.97zm9.935 0h4.32l.36 2.27h.145a14.274 14.274 0 0 1 2.52-1.892c.912-.54 1.98-.81 3.204-.81 1.942 0 3.352.636 4.23 1.907.873 1.273 1.312 3.037 1.312 5.293v11.088H98.71v-10.404c0-1.297-.173-2.184-.52-2.664-.35-.48-.907-.72-1.675-.72-.672 0-1.248.15-1.728.45-.48.3-1.008.726-1.584 1.277v12.06H87.91V214.97zm19.477 20.916c0-1.44.852-2.64 2.556-3.6v-.145a4.005 4.005 0 0 1-1.188-1.186c-.312-.48-.468-1.092-.468-1.836 0-.647.192-1.266.576-1.854a5.488 5.488 0 0 1 1.44-1.494v-.146c-.625-.432-1.183-1.05-1.674-1.854-.494-.804-.74-1.733-.74-2.79 0-1.08.204-2.02.612-2.825.408-.805.954-1.477 1.638-2.017s1.47-.94 2.36-1.206a9.676 9.676 0 0 1 2.77-.396c1.057 0 1.98.145 2.773.433h6.516v3.85h-2.846c.168.265.306.6.414 1.01.107.407.16.85.16 1.33 0 1.03-.18 1.927-.54 2.683a5.09 5.09 0 0 1-1.493 1.872 6.472 6.472 0 0 1-2.232 1.098c-.852.24-1.77.36-2.754.36-.696 0-1.417-.12-2.16-.36-.24.192-.41.384-.504.576-.096.19-.144.443-.144.755 0 .456.198.792.594 1.01.396.214 1.098.322 2.106.322h2.88c2.208 0 3.894.354 5.058 1.062 1.165.71 1.747 1.866 1.747 3.474a4.91 4.91 0 0 1-.702 2.574c-.468.778-1.134 1.45-1.998 2.015-.864.564-1.908 1.008-3.132 1.332s-2.604.486-4.14.486a14.97 14.97 0 0 1-2.934-.27c-.9-.18-1.69-.45-2.374-.81-.684-.36-1.218-.83-1.602-1.404s-.576-1.26-.576-2.052zm4.356-.828c0 .672.36 1.182 1.08 1.53.72.348 1.68.52 2.88.52s2.184-.21 2.952-.63c.768-.42 1.152-.94 1.152-1.564 0-.553-.234-.925-.702-1.116-.468-.192-1.146-.288-2.034-.288h-1.834c-.624 0-1.128-.018-1.512-.055a6.693 6.693 0 0 1-1.008-.162c-.65.576-.972 1.164-.972 1.765zm3.528-11.088c.698 0 1.28-.246 1.748-.738.468-.49.702-1.24.702-2.25 0-.936-.235-1.65-.703-2.142s-1.05-.738-1.746-.738c-.694 0-1.276.24-1.744.72-.468.48-.702 1.2-.702 2.16 0 1.01.234 1.76.702 2.25.468.492 1.05.738 1.746.738zm19.944-16.38h5.29v6.19l-.25 3.206c.67-.6 1.452-1.158 2.34-1.675.888-.514 1.944-.772 3.168-.772 1.944 0 3.354.637 4.23 1.908.875 1.273 1.313 3.037 1.313 5.293v11.087h-5.292v-10.404c0-1.297-.175-2.184-.522-2.664s-.904-.72-1.672-.72c-.672 0-1.248.15-1.73.45-.478.3-1.007.725-1.583 1.276v12.06h-5.29V207.59zm19.512 16.307c0-1.44.24-2.74.72-3.905.48-1.164 1.11-2.148 1.89-2.953a8.234 8.234 0 0 1 2.683-1.856 7.877 7.877 0 0 1 3.13-.648c1.27 0 2.382.217 3.33.648s1.74 1.032 2.376 1.8c.636.77 1.11 1.675 1.423 2.718.31 1.045.466 2.18.466 3.402a10.99 10.99 0 0 1-.215 2.232h-10.69c.24 1.367.774 2.357 1.602 2.97.828.612 1.842.918 3.042.918 1.27 0 2.557-.396 3.852-1.188l1.765 3.205c-.91.625-1.924 1.116-3.04 1.477s-2.214.54-3.294.54c-1.272 0-2.46-.21-3.563-.63a8.19 8.19 0 0 1-2.88-1.837c-.817-.802-1.453-1.78-1.91-2.933-.457-1.152-.686-2.47-.686-3.96zm11.52-1.835c0-1.03-.23-1.872-.684-2.52-.456-.648-1.224-.972-2.304-.972-.84 0-1.58.28-2.214.846-.637.564-1.05 1.445-1.242 2.646h6.444zm8.17-7.092h4.32l.36 3.132h.145c.65-1.225 1.43-2.124 2.34-2.7.914-.575 1.826-.864 2.738-.864.504 0 .918.03 1.242.09.323.06.616.15.88.27l-.863 4.573a8.776 8.776 0 0 0-.936-.214 6.22 6.22 0 0 0-1.006-.072c-.673 0-1.375.24-2.106.72-.732.48-1.34 1.333-1.818 2.556v10.368h-5.293V214.97zm12.924 8.927c0-1.44.24-2.74.722-3.905.48-1.164 1.11-2.148 1.89-2.953.78-.805 1.675-1.424 2.683-1.856s2.052-.648 3.132-.648c1.27 0 2.382.217 3.33.648a6.572 6.572 0 0 1 2.376 1.8c.635.77 1.11 1.675 1.422 2.718.312 1.045.468 2.18.468 3.402a11.2 11.2 0 0 1-.216 2.232h-10.69c.237 1.367.772 2.357 1.6 2.97s1.843.918 3.042.918c1.27 0 2.555-.396 3.85-1.188l1.766 3.205a11.75 11.75 0 0 1-3.043 1.477 10.68 10.68 0 0 1-3.293.54c-1.272 0-2.46-.21-3.563-.63a8.185 8.185 0 0 1-2.88-1.837c-.816-.802-1.452-1.78-1.908-2.933s-.69-2.47-.69-3.96zm11.522-1.835c0-1.03-.23-1.872-.685-2.52-.455-.648-1.223-.972-2.303-.972-.84 0-1.58.28-2.215.846s-1.05 1.445-1.244 2.646h6.445zm8.748 7.883c0-.96.306-1.758.917-2.394.612-.634 1.374-.952 2.287-.952.91 0 1.674.318 2.285.954.61.637.916 1.436.916 2.395 0 .937-.306 1.723-.918 2.358-.612.636-1.375.954-2.286.954-.913 0-1.675-.32-2.287-.955-.61-.635-.918-1.42-.918-2.358zm.72-16.45l-.18-4.79h5.328l-.18 4.79-.757 11.015h-3.454l-.755-11.016z"/></g></svg>