<svg xmlns="http://www.w3.org/2000/svg" width="21.523" height="29.473" viewBox="0 0 21.523 29.473"><path d="M7.744 21.764L4.967 24.54 6 27.595l-1.88 1.88L0 16.355l2.19-2.19 9.48 7.757-1.743 1.743-2.183-1.902zm-1.614-1.44l-2.207-1.9a27.034 27.034 0 0 1-1.545-1.43l-.212-.21c.3.643.582 1.354.852 2.132l1.156 3.364 1.956-1.955zM13.3 8.13c.94.943 1.35 2.016 1.226 3.22-.125 1.2-.77 2.385-1.938 3.55l-.504.506 2.412 3.693-1.79 1.79-6.77-10.4L7.92 8.508c.947-.947 1.873-1.455 2.775-1.523.9-.07 1.77.313 2.604 1.147zm-2.386 5.46l.33-.327c.555-.556.857-1.13.906-1.72.05-.587-.153-1.108-.607-1.563-.705-.704-1.438-.674-2.2.09l-.437.434 2.008 3.087zm9.36-12.435c.942.943 1.352 2.016 1.227 3.22-.124 1.2-.77 2.384-1.936 3.55l-.504.506 2.41 3.694-1.79 1.79-6.77-10.397 1.985-1.984C15.84.586 16.767.077 17.67.01c.9-.07 1.77.312 2.603 1.145zm-2.384 5.46l.33-.327c.554-.557.856-1.13.905-1.72.05-.588-.152-1.11-.607-1.563-.705-.705-1.438-.675-2.202.088l-.434.435 2.008 3.088z" fill="#E52620"/></svg>