<svg xmlns="http://www.w3.org/2000/svg" width="81.747" height="107.289" viewBox="0 0 81.747 107.289"><path fill="#010202" d="M81.747 72.404a48.67 48.67 0 0 1-3.062 12.04c-1.564 3.945-3.848 7.474-6.87 10.586a39.47 39.47 0 0 1-13.57 9.123 42.377 42.377 0 0 1-16.054 3.136c-5.55 0-10.83-.924-15.84-2.77-5.012-1.848-9.52-4.77-13.5-8.76-2.83-2.82-5.092-5.793-6.79-8.905a41.353 41.353 0 0 1-3.867-9.925c-.88-3.504-1.46-7.204-1.75-11.095C.145 61.945 0 57.905 0 53.72c0-4.284.146-8.347.44-12.19.29-3.842.872-7.52 1.75-11.017a41.526 41.526 0 0 1 3.87-9.933c1.695-3.11 3.958-6.076 6.787-8.902 3.982-3.986 8.488-6.932 13.5-8.834C31.36.95 36.64 0 42.19 0c5.54 0 10.893.998 16.055 2.994 5.156 1.994 9.682 4.988 13.57 8.975 3.02 3.117 5.305 6.62 6.87 10.512a47.55 47.55 0 0 1 3.06 11.97H62.482c-.198-2.24-.685-4.208-1.462-5.912-.785-1.703-1.852-3.38-3.215-5.036-1.658-2.14-3.863-3.747-6.64-4.817-2.774-1.068-5.77-1.604-8.974-1.604-3.027 0-5.917.583-8.692 1.746a20.387 20.387 0 0 0-7.223 5.095 20.03 20.03 0 0 0-4.085 6.415 36.054 36.054 0 0 0-2.12 7.646 64.697 64.697 0 0 0-.806 8.09 220.47 220.47 0 0 0-.146 7.572c0 2.33.052 4.86.146 7.574.096 2.72.37 5.418.805 8.09a36.164 36.164 0 0 0 2.12 7.644c.97 2.43 2.332 4.57 4.083 6.41a20.322 20.322 0 0 0 7.223 5.103 22.224 22.224 0 0 0 8.692 1.743c3.204 0 6.198-.552 8.974-1.662 2.775-1.11 4.98-2.727 6.64-4.852 2.726-3.28 4.284-7.046 4.677-11.294h19.266z"/></svg>