<svg xmlns="http://www.w3.org/2000/svg" width="172.108" height="106.929" viewBox="-62.743 -1.763 172.108 106.929"><path d="M8.834 92.945c-7.71 7.856-18.477 12.22-29.533 12.22s-21.383-3.636-29.24-11.49C-61.14 82.47-62.74 68.65-62.74 51.775c0-16.876 1.6-30.698 12.803-41.9C-42.083 2.02-31.754-1.763-20.7-1.763S1.125 2.31 8.835 10.167c5.964 6.11 9.02 14.256 9.893 22.403H-.476c-.437-4.51-2.038-7.71-4.656-10.91-3.346-4.22-9.166-6.402-15.567-6.402-5.962 0-11.78 2.473-15.856 6.84-7.128 7.417-7.128 20.22-7.128 29.677s0 22.26 7.128 29.68c4.075 4.363 9.894 6.837 15.858 6.837 6.402 0 12.222-2.328 15.568-6.546 2.62-3.2 4.22-6.84 4.656-11.348H18.73c-.874 8.146-3.93 16.44-9.894 22.547zm66.633 10.33H54.81L20.62.126h19.933l25.02 78.71L90.453.126h18.914l-33.9 103.15z" fill="#1E1E1C"/></svg>