<?xml version="1.0" encoding="utf-8"?>
<!-- Generator: Adobe Illustrator 16.0.0, SVG Export Plug-In . SVG Version: 6.00 Build 0)  -->
<!DOCTYPE svg PUBLIC "-//W3C//DTD SVG 1.1//EN" "http://www.w3.org/Graphics/SVG/1.1/DTD/svg11.dtd">
<svg version="1.1" id="Capa_1" xmlns="http://www.w3.org/2000/svg" xmlns:xlink="http://www.w3.org/1999/xlink" x="0px" y="0px"
	 width="81.181px" height="103.149px" viewBox="175.992 1.364 81.181 103.149"
	 enable-background="new 175.992 1.364 81.181 103.149" xml:space="preserve">
<g>
	<path fill="#1E1E1C" d="M245.098,93.455c-6.84,7.127-17.169,11.059-28.952,11.059h-40.154V1.364h40.154
		c11.783,0,22.112,3.928,28.952,11.056c10.619,10.912,12.074,26.188,12.074,40.446C257.173,67.121,255.718,82.543,245.098,93.455z
		 M230.694,24.059c-3.491-3.491-8.583-5.82-14.548-5.82H194.76v69.396h21.387c5.965,0,11.057-2.326,14.548-5.818
		c7.274-7.273,7.42-19.494,7.42-28.95C238.114,43.409,237.969,31.333,230.694,24.059z"/>
</g>
</svg>
