<svg xmlns="http://www.w3.org/2000/svg" width="81.181" height="103.149" viewBox="175.992 1.364 81.181 103.149"><path fill="#1E1E1C" d="M245.098 93.455c-6.84 7.127-17.17 11.06-28.952 11.06h-40.154V1.365h40.154c11.783 0 22.112 3.926 28.952 11.054 10.62 10.91 12.074 26.187 12.074 40.445 0 14.255-1.454 29.677-12.074 40.59zM230.694 24.06c-3.49-3.492-8.583-5.82-14.548-5.82H194.76v69.395h21.387c5.965 0 11.057-2.326 14.548-5.818 7.274-7.273 7.42-19.494 7.42-28.95 0-9.458-.146-21.534-7.42-28.808z"/></svg>