<?xml version="1.0" encoding="UTF-8"?>
<svg width="400px" height="400px" viewBox="0 0 400 400" version="1.1" xmlns="http://www.w3.org/2000/svg" xmlns:xlink="http://www.w3.org/1999/xlink">
    <!-- Generator: Sketch 43.2 (39069) - http://www.bohemiancoding.com/sketch -->
    <title>favicon</title>
    <desc>Created with Sketch.</desc>
    <defs></defs>
    <g id="Web" stroke="none" stroke-width="1" fill="none" fill-rule="evenodd">
        <g id="favicon">
            <path d="M0,50.0027628 C0,22.3869994 22.3808569,0 50.0027628,0 L349.997237,0 C377.613001,0 400,22.3808569 400,50.0027628 L400,349.997237 C400,377.613001 377.619143,400 349.997237,400 L50.0027628,400 C22.3869994,400 0,377.619143 0,349.997237 L0,50.0027628 Z" id="Border" fill="#FFFFFF" fill-rule="nonzero"></path>
            <g id="ellugar_white" transform="translate(20.000000, 20.000000)" fill="#000000">
                <path d="M22.5,55.6601849 L22.5,304.339815 C22.5,322.656855 37.3444043,337.5 55.6601849,337.5 L304.339815,337.5 C322.656855,337.5 337.5,322.655596 337.5,304.339815 L337.5,55.6601849 C337.5,37.3431447 322.655596,22.5 304.339815,22.5 L55.6601849,22.5 C37.3431447,22.5 22.5,37.3444043 22.5,55.6601849 Z M0,45.0024865 C0,20.1482995 20.1427712,0 45.0024865,0 L314.997514,0 C339.851701,0 360,20.1427712 360,45.0024865 L360,314.997514 C360,339.851701 339.857229,360 314.997514,360 L45.0024865,360 C20.1482995,360 0,339.857229 0,314.997514 L0,45.0024865 Z" id="Border" fill-rule="nonzero"></path>
                <circle id="Dot" fill-rule="evenodd" cx="180" cy="180" r="45"></circle>
            </g>
        </g>
    </g>
</svg>