<?xml version="1.0" encoding="UTF-8"?>
<svg width="500px" height="500px" viewBox="0 0 500 500" version="1.1" xmlns="http://www.w3.org/2000/svg" xmlns:xlink="http://www.w3.org/1999/xlink">
    <!-- Generator: Sketch 42 (36781) - http://www.bohemiancoding.com/sketch -->
    <title>icono</title>
    <desc>Created with Sketch.</desc>
    <defs></defs>
    <g id="Web" stroke="none" stroke-width="1" fill="none" fill-rule="evenodd">
        <g id="icono" fill="#000000">
            <g id="ellugar_white">
                <g>
                    <path d="M25,72.3716927 L25,427.628307 C25,453.795508 46.2062918,475 72.3716927,475 L427.628307,475 C453.795508,475 475,453.793708 475,427.628307 L475,72.3716927 C475,46.2044924 453.793708,25 427.628307,25 L72.3716927,25 C46.2044924,25 25,46.2062918 25,72.3716927 Z M0,62.5034534 C0,27.9837493 27.9760711,0 62.5034534,0 L437.496547,0 C472.016251,0 500,27.9760711 500,62.5034534 L500,437.496547 C500,472.016251 472.023929,500 437.496547,500 L62.5034534,500 C27.9837493,500 0,472.023929 0,437.496547 L0,62.5034534 Z" id="Border" fill-rule="nonzero"></path>
                    <circle id="Dot" cx="250" cy="250" r="62.5"></circle>
                </g>
            </g>
        </g>
    </g>
</svg>