<?xml version="1.0" encoding="UTF-8"?>
<svg width="500px" height="500px" viewBox="0 0 500 500" version="1.1" xmlns="http://www.w3.org/2000/svg" xmlns:xlink="http://www.w3.org/1999/xlink">
    <!-- Generator: Sketch 43.2 (39069) - http://www.bohemiancoding.com/sketch -->
    <title>icono</title>
    <desc>Created with Sketch.</desc>
    <defs></defs>
    <g id="Web" stroke="none" stroke-width="1" fill="none" fill-rule="evenodd">
        <g id="icono" fill="#000000">
            <g id="ellugar_white">
                <path d="M31.25,77.3058124 L31.25,422.694188 C31.25,448.134521 51.8672282,468.75 77.3058124,468.75 L422.694188,468.75 C448.134521,468.75 468.75,448.132772 468.75,422.694188 L468.75,77.3058124 C468.75,51.8654787 448.132772,31.25 422.694188,31.25 L77.3058124,31.25 C51.8654787,31.25 31.25,51.8672282 31.25,77.3058124 Z M0,62.5034534 C0,27.9837493 27.9760711,0 62.5034534,0 L437.496547,0 C472.016251,0 500,27.9760711 500,62.5034534 L500,437.496547 C500,472.016251 472.023929,500 437.496547,500 L62.5034534,500 C27.9837493,500 0,472.023929 0,437.496547 L0,62.5034534 Z" id="Border" fill-rule="nonzero"></path>
                <circle id="Dot" fill-rule="evenodd" cx="250" cy="250" r="62.5"></circle>
            </g>
        </g>
    </g>
</svg>