<svg width="500" height="500" viewBox="0 0 500 500" xmlns="http://www.w3.org/2000/svg"><title>web/icono</title><g fill-rule="evenodd"><path d="M31.25 77.306v345.388c0 25.44 20.617 46.056 46.056 46.056h345.388c25.44 0 46.056-20.617 46.056-46.056V77.306c0-25.44-20.617-46.056-46.056-46.056H77.306c-25.44 0-46.056 20.617-46.056 46.056zM0 62.503C0 27.983 27.976 0 62.503 0h374.994C472.017 0 500 27.976 500 62.503v374.994c0 34.52-27.976 62.503-62.503 62.503H62.503C27.983 500 0 472.024 0 437.497V62.503z" fill-rule="nonzero"/><path d="M250 319.25s62.5-37.636 62.5-75.273c0-34.643-27.982-62.727-62.5-62.727s-62.5 28.084-62.5 62.727c0 37.637 62.5 75.273 62.5 75.273z"/></g></svg>