<?xml version="1.0" encoding="UTF-8"?>
<svg width="1464px" height="300px" viewBox="0 0 1464 300" version="1.1" xmlns="http://www.w3.org/2000/svg" xmlns:xlink="http://www.w3.org/1999/xlink">
    <!-- Generator: Sketch 44.1 (41455) - http://www.bohemiancoding.com/sketch -->
    <title>web/logo</title>
    <desc>Created with Sketch.</desc>
    <defs></defs>
    <g id="Web" stroke="none" stroke-width="1" fill="none" fill-rule="evenodd">
        <g id="logo" fill="#000000">
            <g id="ellguar_horizontal">
                <g id="ellugar_white">
                    <path d="M18.75,46.3834874 L18.75,253.616513 C18.75,268.880713 31.1203369,281.25 46.3834874,281.25 L253.616513,281.25 C268.880713,281.25 281.25,268.879663 281.25,253.616513 L281.25,46.3834874 C281.25,31.1192872 268.879663,18.75 253.616513,18.75 L46.3834874,18.75 C31.1192872,18.75 18.75,31.1203369 18.75,46.3834874 Z M0,37.5020721 C0,16.7902496 16.7856426,0 37.5020721,0 L262.497928,0 C283.20975,0 300,16.7856426 300,37.5020721 L300,262.497928 C300,283.20975 283.214357,300 262.497928,300 L37.5020721,300 C16.7902496,300 0,283.214357 0,262.497928 L0,37.5020721 Z" id="Border" fill-rule="nonzero"></path>
                    <g id="dot_black" transform="translate(112.500000, 108.750000)" fill-rule="evenodd">
                        <path d="M37.5,83 C37.5,83 75,60.3636364 75,37.7272727 C75,16.8910753 58.2106781,0 37.5,0 C16.7893219,0 0,16.8910753 0,37.7272727 C0,60.3636364 37.5,83 37.5,83 Z" id="Dot"></path>
                    </g>
                </g>
                <g id="ellugar.co_text" transform="translate(375.000000, 25.000000)" stroke-width="1" fill-rule="evenodd">
                    <g id="Underline" transform="translate(0.000000, 216.312057)">
                        <rect id="2" x="0" y="0" width="416.799674" height="17.7304965"></rect>
                        <rect id="1" x="556.915309" y="0" width="532.084691" height="17.7304965"></rect>
                    </g>
                    <g id="ellugar.co" transform="translate(11.528502, 0.000000)">
                        <path d="M0.709446254,125.35461 C0.709446254,114.716259 2.35002431,105.186212 5.63122964,96.7641844 C8.91243497,88.3421565 13.2577498,81.205703 18.6673046,75.3546099 C24.0768593,69.5035168 30.240112,65.0266113 37.1572476,61.9237589 C44.0743831,58.8209065 51.2574546,57.2695035 58.7066775,57.2695035 C66.8653502,57.2695035 74.1814416,58.6879291 80.655171,61.5248227 C87.1289004,64.3617163 92.538374,68.4396897 96.8837541,73.7588652 C101.229134,79.0780408 104.55463,85.4609557 106.860342,92.9078014 C109.166054,100.354647 110.318893,108.687897 110.318893,117.907801 C110.318893,122.695059 110.052853,126.684381 109.520765,129.875887 L22.2588762,129.875887 C23.1456885,143.883049 27.4466634,154.964498 35.16193,163.120567 C42.8771966,171.276637 52.9423646,175.35461 65.3577362,175.35461 C71.5654219,175.35461 77.2852751,174.423768 82.5174674,172.562057 C87.7496597,170.700345 92.7600738,168.262426 97.5488599,165.248227 L105.264088,179.609929 C99.5884895,183.156046 93.292217,186.258852 86.3750814,188.91844 C79.4579459,191.578027 71.5654352,192.907801 62.6973127,192.907801 C54.0065526,192.907801 45.8923422,191.356398 38.3544381,188.253546 C30.816534,185.150694 24.2542217,180.718114 18.6673046,174.955674 C13.0803874,169.193234 8.69073257,162.145432 5.49820847,153.812057 C2.30568436,145.478682 0.709446254,135.992961 0.709446254,125.35461 Z M91.1638436,115.514184 C91.1638436,102.216246 88.370427,92.0656379 82.7835098,85.0620567 C77.1965926,78.0584756 69.3484219,74.5567376 59.2387622,74.5567376 C54.6273385,74.5567376 50.2376837,75.4875793 46.0696661,77.3492908 C41.9016485,79.2110022 38.132753,81.8705501 34.7628664,85.3280142 C31.3929799,88.7854783 28.5995632,93.0407549 26.3825326,98.0939716 C24.1655019,103.147188 22.7022837,108.953868 21.9928339,115.514184 L91.1638436,115.514184 Z M143.130782,0.354609929 L164.946254,0.354609929 L164.946254,165.248227 C164.946254,168.794344 165.567013,171.276589 166.80855,172.695035 C168.050088,174.113482 169.468966,174.822695 171.065228,174.822695 L173.060546,174.822695 C173.681314,174.822695 174.612453,174.645392 175.85399,174.29078 L178.780456,190.780142 C177.361556,191.489365 175.676638,192.021275 173.725651,192.375887 C171.774665,192.730498 169.291627,192.907801 166.276466,192.907801 C157.940431,192.907801 151.998878,190.425557 148.451629,185.460993 C144.90438,180.496429 143.130782,173.226998 143.130782,163.652482 L143.130782,0.354609929 Z M211.858388,0.354609929 L233.67386,0.354609929 L233.67386,165.248227 C233.67386,168.794344 234.294619,171.276589 235.536156,172.695035 C236.777694,174.113482 238.196572,174.822695 239.792834,174.822695 L241.788151,174.822695 C242.40892,174.822695 243.340059,174.645392 244.581596,174.29078 L247.508062,190.780142 C246.089162,191.489365 244.404244,192.021275 242.453257,192.375887 C240.50227,192.730498 238.019233,192.907801 235.004072,192.907801 C226.668036,192.907801 220.726484,190.425557 217.179235,185.460993 C213.631986,180.496429 211.858388,173.226998 211.858388,163.652482 L211.858388,0.354609929 Z M278.723697,60.4609929 L300.805212,60.4609929 L300.805212,139.450355 C300.805212,151.684458 302.711829,160.505292 306.525122,165.913121 C310.338415,171.320949 316.501668,174.024823 325.015065,174.024823 C331.754838,174.024823 337.696391,172.296117 342.839902,168.838652 C347.983413,165.381188 353.658927,159.840464 359.866612,152.216312 L359.866612,60.4609929 L381.682085,60.4609929 L381.682085,189.716312 L363.591205,189.716312 L361.728909,169.503546 L360.930782,169.503546 C354.900458,176.59578 348.559846,182.269482 341.908754,186.524823 C335.257662,190.780163 327.409491,192.907801 318.364007,192.907801 C304.529735,192.907801 294.464567,188.652525 288.1682,180.141844 C281.871833,171.631163 278.723697,159.042637 278.723697,142.375887 L278.723697,60.4609929 Z M435.511319,211.524823 C435.511319,218.439751 438.836815,223.93615 445.487907,228.014184 C452.138999,232.092219 461.317368,234.131206 473.02329,234.131206 C479.230976,234.131206 484.862149,233.377667 489.916979,231.870567 C494.971809,230.363468 499.272784,228.413133 502.820033,226.019504 C506.367282,223.625875 509.116358,220.833349 511.067345,217.641844 C513.018332,214.450339 513.993811,211.17023 513.993811,207.801418 C513.993811,201.77302 511.776814,197.606395 507.342752,195.301418 C502.908691,192.996442 496.435059,191.843972 487.921661,191.843972 L465.574104,191.843972 C463.09103,191.843972 460.386293,191.710994 457.459813,191.445035 C454.533332,191.179077 451.651236,190.602841 448.813436,189.716312 C444.202013,193.085123 440.832177,196.631187 438.703827,200.35461 C436.575478,204.078033 435.511319,207.8014 435.511319,211.524823 Z M416.35627,214.450355 C416.35627,208.953873 418.041188,203.723429 421.411075,198.758865 C424.780961,193.794301 429.392316,189.27307 435.245277,185.195035 L435.245277,184.131206 C432.052753,182.180841 429.348016,179.476968 427.130985,176.019504 C424.913955,172.562039 423.805456,168.262437 423.805456,163.120567 C423.805456,157.624086 425.313014,152.8369 428.328176,148.758865 C431.343338,144.680831 434.535814,141.489373 437.9057,139.184397 L437.9057,138.120567 C433.649002,134.57445 429.791426,129.83159 426.332858,123.891844 C422.874291,117.952098 421.145033,111.081599 421.145033,103.280142 C421.145033,96.1879078 422.430891,89.8049929 425.002647,84.1312057 C427.574402,78.4574184 431.077258,73.6259065 435.511319,69.6365248 C439.94538,65.6471432 445.133154,62.5886631 451.074796,60.4609929 C457.016439,58.3333227 463.268371,57.2695035 469.830782,57.2695035 C473.378031,57.2695035 476.703527,57.5797841 479.80737,58.2003546 C482.911213,58.8209251 485.704629,59.5744637 488.187704,60.4609929 L533.14886,60.4609929 L533.14886,77.2163121 L506.544625,77.2163121 C509.559787,80.2305115 512.087164,84.0425301 514.126832,88.6524823 C516.1665,93.2624344 517.186319,98.3155754 517.186319,103.812057 C517.186319,110.726985 515.944801,116.976922 513.461726,122.562057 C510.978652,128.147191 507.608816,132.845726 503.352117,136.657801 C499.095418,140.469877 494.085004,143.439706 488.320725,145.567376 C482.556445,147.695046 476.393192,148.758865 469.830782,148.758865 C466.638258,148.758865 463.357102,148.359933 459.987215,147.562057 C456.617328,146.76418 453.424852,145.656035 450.409691,144.237589 C448.103979,146.187953 446.153021,148.359917 444.556759,150.753546 C442.960497,153.147175 442.162378,156.117004 442.162378,159.663121 C442.162378,163.741155 443.758616,167.109916 446.95114,169.769504 C450.143664,172.429091 456.173897,173.758865 465.04202,173.758865 L490.05,173.758865 C505.125808,173.758865 516.432495,176.196784 523.970399,181.072695 C531.508303,185.948606 535.277199,193.794272 535.277199,204.609929 C535.277199,210.638328 533.76964,216.356356 530.754479,221.764184 C527.739317,227.172013 523.394002,231.914873 517.718404,235.992908 C512.042805,240.070942 505.170114,243.306726 497.100122,245.700355 C489.030131,248.093984 479.940441,249.29078 469.830782,249.29078 C461.849471,249.29078 454.57772,248.537242 448.015309,247.030142 C441.452899,245.523042 435.821725,243.262426 431.121621,240.248227 C426.421516,237.234027 422.78564,233.599312 420.213884,229.343972 C417.642129,225.088631 416.35627,220.124142 416.35627,214.450355 Z M469.830782,134.131206 C473.555393,134.131206 477.058249,133.421993 480.339454,132.003546 C483.62066,130.585099 486.547096,128.546113 489.118852,125.886525 C491.690607,123.226937 493.685905,119.991154 495.104805,116.179078 C496.523704,112.367002 497.233143,108.0674 497.233143,103.280142 C497.233143,93.7056259 494.572746,86.3032176 489.251873,81.072695 C483.930999,75.8421724 477.457367,73.2269504 469.830782,73.2269504 C462.204196,73.2269504 455.730564,75.8421724 450.409691,81.072695 C445.088817,86.3032176 442.42842,93.7056259 442.42842,103.280142 C442.42842,108.0674 443.137859,112.367002 444.556759,116.179078 C445.975659,119.991154 447.970956,123.226937 450.542712,125.886525 C453.114467,128.546113 456.040904,130.585099 459.322109,132.003546 C462.603314,133.421993 466.10617,134.131206 469.830782,134.131206 Z M550.530293,156.205674 C550.530293,142.021206 556.870906,131.161385 569.552321,123.625887 C582.233736,116.090388 602.408412,110.815618 630.076954,107.801418 C630.076954,103.723384 629.677895,99.7340621 628.879764,95.8333333 C628.081633,91.9326046 626.662754,88.4751924 624.623086,85.4609929 C622.583418,82.4467934 619.878681,80.0088746 616.508795,78.1471631 C613.138908,76.2854517 608.793593,75.3546099 603.47272,75.3546099 C595.846135,75.3546099 588.796083,76.7730355 582.322353,79.6099291 C575.848624,82.4468227 570.040091,85.6382801 564.89658,89.1843972 L556.117182,74.0248227 C562.147506,70.124094 569.507937,66.3564012 578.198697,62.7216312 C586.889457,59.0868613 596.466886,57.2695035 606.93127,57.2695035 C622.716528,57.2695035 634.156235,62.1010155 641.250733,71.7641844 C648.345231,81.4273533 651.892427,94.3261605 651.892427,110.460993 L651.892427,189.716312 L633.801547,189.716312 L631.939251,174.29078 L631.407166,174.29078 C625.19948,179.43265 618.504148,183.820904 611.320969,187.455674 C604.13779,191.090444 596.555659,192.907801 588.574349,192.907801 C577.577877,192.907801 568.488187,189.716344 561.305008,183.333333 C554.121829,176.950323 550.530293,167.90786 550.530293,156.205674 Z M572.079723,154.609929 C572.079723,162.056775 574.252381,167.375871 578.597761,170.567376 C582.943141,173.758881 588.308274,175.35461 594.693322,175.35461 C600.901008,175.35461 606.798221,173.891859 612.385138,170.966312 C617.972056,168.040766 623.869269,163.741163 630.076954,158.067376 L630.076954,122.163121 C619.257845,123.581567 610.123816,125.265948 602.674593,127.216312 C595.22537,129.166676 589.239477,131.471618 584.716735,134.131206 C580.193992,136.790793 576.957176,139.849273 575.006189,143.306738 C573.055202,146.764202 572.079723,150.531895 572.079723,154.609929 Z M694.015798,60.4609929 L712.106678,60.4609929 L713.968974,83.8652482 L714.767101,83.8652482 C719.201162,75.7091791 724.566296,69.2376126 730.862663,64.4503546 C737.15903,59.6630966 744.031722,57.2695035 751.480945,57.2695035 C756.624456,57.2695035 761.23581,58.1560195 765.315147,59.929078 L761.058469,79.0780142 C758.93012,78.3687908 756.979162,77.8368812 755.205537,77.4822695 C753.431913,77.1276578 751.214916,76.9503546 748.554479,76.9503546 C743.056243,76.9503546 737.33639,79.1666445 731.394748,83.5992908 C725.453105,88.0319371 720.265332,95.7446259 715.83127,106.737589 L715.83127,189.716312 L694.015798,189.716312 L694.015798,60.4609929 Z M827.480375,125.35461 C827.480375,114.538953 829.165293,104.920255 832.535179,96.498227 C835.905066,88.076199 840.42774,80.9397456 846.103339,75.0886525 C851.778937,69.2375594 858.385589,64.8049796 865.923493,61.7907801 C873.461398,58.7765807 881.398248,57.2695035 889.734283,57.2695035 C898.247681,57.2695035 905.563772,58.8209065 911.682777,61.9237589 C917.801781,65.0266113 923.078235,68.6170009 927.512296,72.6950355 L916.60456,86.7907801 C912.702586,83.421969 908.667651,80.6737695 904.499634,78.5460993 C900.331616,76.4184291 895.675921,75.3546099 890.53241,75.3546099 C884.67945,75.3546099 879.269976,76.5514065 874.303827,78.9450355 C869.337679,81.3386645 865.081044,84.7517509 861.533795,89.1843972 C857.986546,93.6170434 855.193129,98.8918134 853.153461,105.008865 C851.113793,111.125917 850.093974,117.907764 850.093974,125.35461 C850.093974,132.801456 851.069453,139.538977 853.02044,145.567376 C854.971427,151.595775 857.676163,156.781893 861.134731,161.125887 C864.593299,165.46988 868.805594,168.838641 873.771743,171.23227 C878.737891,173.625898 884.147365,174.822695 890.000326,174.822695 C896.208011,174.822695 901.839185,173.537247 906.894015,170.966312 C911.948844,168.395377 916.427179,165.336897 920.329153,161.79078 L930.17272,176.152482 C924.319759,181.294352 917.801787,185.372325 910.618607,188.386525 C903.435428,191.400724 895.941977,192.907801 888.138029,192.907801 C879.624632,192.907801 871.643441,191.400724 864.194218,188.386525 C856.744995,185.372325 850.315703,180.984071 844.906148,175.221631 C839.496593,169.459191 835.239959,162.367063 832.136116,153.945035 C829.032273,145.523008 827.480375,135.992961 827.480375,125.35461 Z M944.095603,125.35461 C944.095603,114.538953 945.736181,104.920255 949.017386,96.498227 C952.298591,88.076199 956.688246,80.9397456 962.186482,75.0886525 C967.684718,69.2375594 974.025331,64.8049796 981.20851,61.7907801 C988.391689,58.7765807 995.97382,57.2695035 1003.95513,57.2695035 C1011.93644,57.2695035 1019.51857,58.7765807 1026.70175,61.7907801 C1033.88493,64.8049796 1040.22554,69.2375594 1045.72378,75.0886525 C1051.22201,80.9397456 1055.61167,88.076199 1058.89287,96.498227 C1062.17408,104.920255 1063.81466,114.538953 1063.81466,125.35461 C1063.81466,135.992961 1062.17408,145.523008 1058.89287,153.945035 C1055.61167,162.367063 1051.22201,169.459191 1045.72378,175.221631 C1040.22554,180.984071 1033.88493,185.372325 1026.70175,188.386525 C1019.51857,191.400724 1011.93644,192.907801 1003.95513,192.907801 C995.97382,192.907801 988.391689,191.400724 981.20851,188.386525 C974.025331,185.372325 967.684718,180.984071 962.186482,175.221631 C956.688246,169.459191 952.298591,162.367063 949.017386,153.945035 C945.736181,145.523008 944.095603,135.992961 944.095603,125.35461 Z M966.709202,125.35461 C966.709202,132.801456 967.596001,139.538977 969.369625,145.567376 C971.14325,151.595775 973.670627,156.781893 976.951832,161.125887 C980.233038,165.46988 984.179293,168.838641 988.790717,171.23227 C993.40214,173.625898 998.456894,174.822695 1003.95513,174.822695 C1009.45337,174.822695 1014.50812,173.625898 1019.11954,171.23227 C1023.73097,168.838641 1027.67722,165.46988 1030.95843,161.125887 C1034.23963,156.781893 1036.76701,151.595775 1038.54064,145.567376 C1040.31426,139.538977 1041.20106,132.801456 1041.20106,125.35461 C1041.20106,117.907764 1040.31426,111.125917 1038.54064,105.008865 C1036.76701,98.8918134 1034.23963,93.6170434 1030.95843,89.1843972 C1027.67722,84.7517509 1023.73097,81.3386645 1019.11954,78.9450355 C1014.50812,76.5514065 1009.45337,75.3546099 1003.95513,75.3546099 C998.456894,75.3546099 993.40214,76.5514065 988.790717,78.9450355 C984.179293,81.3386645 980.233038,84.7517509 976.951832,89.1843972 C973.670627,93.6170434 971.14325,98.8918134 969.369625,105.008865 C967.596001,111.125917 966.709202,117.907764 966.709202,125.35461 Z"></path>
                        <g id="dot_black" transform="translate(768.862378, 159.574468)">
                            <path d="M15.5,34 C15.5,34 31,24.7272727 31,15.4545455 C31,6.91923568 24.0604136,0 15.5,0 C6.93958638,0 0,6.91923568 0,15.4545455 C0,24.7272727 15.5,34 15.5,34 Z" id="Dot"></path>
                        </g>
                    </g>
                </g>
            </g>
        </g>
    </g>
</svg>