<?xml version="1.0" encoding="UTF-8"?>
<svg width="1650px" height="313px" viewBox="0 0 1650 313" version="1.1" xmlns="http://www.w3.org/2000/svg" xmlns:xlink="http://www.w3.org/1999/xlink">
    <!-- Generator: Sketch 43.2 (39069) - http://www.bohemiancoding.com/sketch -->
    <title>logo</title>
    <desc>Created with Sketch.</desc>
    <defs></defs>
    <g id="Web" stroke="none" stroke-width="1" fill="none" fill-rule="evenodd">
        <g id="logo" fill="#000000">
            <g id="ellugar_white">
                <path d="M19.5625,48.3934385 L19.5625,264.606561 C19.5625,280.53221 32.4688848,293.4375 48.3934385,293.4375 L264.606561,293.4375 C280.53221,293.4375 293.4375,280.531115 293.4375,264.606561 L293.4375,48.3934385 C293.4375,32.4677897 280.531115,19.5625 264.606561,19.5625 L48.3934385,19.5625 C32.4677897,19.5625 19.5625,32.4688848 19.5625,48.3934385 Z M0,39.1271619 C0,17.5178271 17.5130205,0 39.1271619,0 L273.872838,0 C295.482173,0 313,17.5130205 313,39.1271619 L313,273.872838 C313,295.482173 295.48698,313 273.872838,313 L39.1271619,313 C17.5178271,313 0,295.48698 0,273.872838 L0,39.1271619 Z" id="Border" fill-rule="nonzero"></path>
                <circle id="Dot" fill-rule="evenodd" cx="156.5" cy="156.5" r="39.125"></circle>
            </g>
            <g id="ellugar.co_text" transform="translate(413.000000, 17.000000)">
                <path d="M13.8,141.4 C13.8,129.39994 15.6499815,118.650047 19.35,109.15 C23.0500185,99.6499525 27.9499695,91.600033 34.05,85 C40.1500305,78.399967 47.099961,73.3500175 54.9,69.85 C62.700039,66.3499825 70.799958,64.6 79.2,64.6 C88.400046,64.6 96.6499635,66.199984 103.95,69.4 C111.250036,72.600016 117.349976,77.19997 122.25,83.2 C127.150024,89.20003 130.899987,96.399958 133.5,104.8 C136.100013,113.200042 137.4,122.599948 137.4,133 C137.4,138.400027 137.100003,142.899982 136.5,146.5 L38.1,146.5 C39.100005,162.300079 43.9499565,174.799954 52.65,184 C61.3500435,193.200046 72.69993,197.8 86.7,197.8 C93.700035,197.8 100.14997,196.750011 106.05,194.65 C111.95003,192.54999 117.599973,189.800017 123,186.4 L131.7,202.6 C125.299968,206.60002 118.200039,210.099985 110.4,213.1 C102.599961,216.100015 93.70005,217.6 83.7,217.6 C73.899951,217.6 64.7500425,215.850017 56.25,212.35 C47.7499575,208.849982 40.3500315,203.850032 34.05,197.35 C27.7499685,190.849967 22.800018,182.900047 19.2,173.5 C15.599982,164.099953 13.8,153.40006 13.8,141.4 Z M115.8,130.3 C115.8,115.299925 112.650031,103.85004 106.35,95.95 C100.049968,88.0499605 91.200057,84.1 79.8,84.1 C74.599974,84.1 69.6500235,85.1499895 64.95,87.25 C60.2499765,89.3500105 56.000019,92.3499805 52.2,96.25 C48.399981,100.15002 45.2500125,104.949972 42.75,110.65 C40.2499875,116.350029 38.600004,122.899963 37.8,130.3 L115.8,130.3 Z M174.4,0.4 L199,0.4 L199,186.4 C199,190.40002 199.699993,193.199992 201.1,194.8 C202.500007,196.400008 204.099991,197.2 205.9,197.2 L208.15,197.2 C208.850003,197.2 209.899993,197.000002 211.3,196.6 L214.6,215.2 C212.999992,216.000004 211.100011,216.599998 208.9,217 C206.699989,217.400002 203.900017,217.6 200.5,217.6 C191.099953,217.6 184.40002,214.800028 180.4,209.2 C176.39998,203.599972 174.4,195.400054 174.4,184.6 L174.4,0.4 Z M251.9,0.4 L276.5,0.4 L276.5,186.4 C276.5,190.40002 277.199993,193.199992 278.6,194.8 C280.000007,196.400008 281.599991,197.2 283.4,197.2 L285.65,197.2 C286.350003,197.2 287.399993,197.000002 288.8,196.6 L292.1,215.2 C290.499992,216.000004 288.600011,216.599998 286.4,217 C284.199989,217.400002 281.400017,217.6 278,217.6 C268.599953,217.6 261.90002,214.800028 257.9,209.2 C253.89998,203.599972 251.9,195.400054 251.9,184.6 L251.9,0.4 Z M327.3,68.2 L352.2,68.2 L352.2,157.3 C352.2,171.100069 354.349978,181.049969 358.65,187.15 C362.950021,193.25003 369.899952,196.3 379.5,196.3 C387.100038,196.3 393.799971,194.35002 399.6,190.45 C405.400029,186.549981 411.799965,180.300043 418.8,171.7 L418.8,68.2 L443.4,68.2 L443.4,214 L423,214 L420.9,191.2 L420,191.2 C413.199966,199.20004 406.050037,205.599976 398.55,210.4 C391.049962,215.200024 382.200051,217.6 372,217.6 C356.399922,217.6 345.050035,212.800048 337.95,203.2 C330.849964,193.599952 327.3,179.400094 327.3,160.6 L327.3,68.2 Z M504.1,238.6 C504.1,246.400039 507.849962,252.599977 515.35,257.2 C522.850037,261.800023 533.199934,264.1 546.4,264.1 C553.400035,264.1 559.749971,263.250009 565.45,261.55 C571.150028,259.849992 575.99998,257.650014 580,254.95 C584.00002,252.249987 587.099989,249.100018 589.3,245.5 C591.500011,241.899982 592.6,238.200019 592.6,234.4 C592.6,227.599966 590.100025,222.900013 585.1,220.3 C580.099975,217.699987 572.800048,216.4 563.2,216.4 L538,216.4 C535.199986,216.4 532.150016,216.250002 528.85,215.95 C525.549983,215.649999 522.300016,215.000005 519.1,214 C513.899974,217.800019 510.100012,221.799979 507.7,226 C505.299988,230.200021 504.1,234.399979 504.1,238.6 Z M482.5,241.9 C482.5,235.699969 484.399981,229.800028 488.2,224.2 C492.000019,218.599972 497.199967,213.500023 503.8,208.9 L503.8,207.7 C500.199982,205.499989 497.150012,202.450019 494.65,198.55 C492.149987,194.64998 490.9,189.800029 490.9,184 C490.9,177.799969 492.599983,172.400023 496,167.8 C499.400017,163.199977 502.999981,159.600013 506.8,157 L506.8,155.8 C501.999976,151.79998 497.65002,146.450034 493.75,139.75 C489.84998,133.049966 487.9,125.300044 487.9,116.5 C487.9,108.49996 489.349985,101.300032 492.25,94.9 C495.150014,88.499968 499.099975,83.0500225 504.1,78.55 C509.100025,74.0499775 514.949966,70.600012 521.65,68.2 C528.350033,65.799988 535.399963,64.6 542.8,64.6 C546.80002,64.6 550.549982,64.9499965 554.05,65.65 C557.550017,66.3500035 560.699986,67.199995 563.5,68.2 L614.2,68.2 L614.2,87.1 L584.2,87.1 C587.600017,90.500017 590.449988,94.799974 592.75,100 C595.050011,105.200026 596.2,110.899969 596.2,117.1 C596.2,124.900039 594.800014,131.949969 592,138.25 C589.199986,144.550031 585.400024,149.849979 580.6,154.15 C575.799976,158.450021 570.150032,161.799988 563.65,164.2 C557.149968,166.600012 550.200037,167.8 542.8,167.8 C539.199982,167.8 535.500019,167.350005 531.7,166.45 C527.899981,165.549996 524.300017,164.300008 520.9,162.7 C518.299987,164.900011 516.100009,167.349986 514.3,170.05 C512.499991,172.750014 511.6,176.09998 511.6,180.1 C511.6,184.700023 513.399982,188.499985 517,191.5 C520.600018,194.500015 527.39995,196 537.4,196 L565.6,196 C582.600085,196 595.349957,198.749973 603.85,204.25 C612.350042,209.750028 616.6,218.599939 616.6,230.8 C616.6,237.600034 614.900017,244.049969 611.5,250.15 C608.099983,256.250031 603.200032,261.599977 596.8,266.2 C590.399968,270.800023 582.650045,274.449987 573.55,277.15 C564.449954,279.850014 554.200057,281.2 542.8,281.2 C533.799955,281.2 525.600037,280.350009 518.2,278.65 C510.799963,276.949992 504.450026,274.400017 499.15,271 C493.849973,267.599983 489.750014,263.500024 486.85,258.7 C483.949985,253.899976 482.5,248.300032 482.5,241.9 Z M542.8,151.3 C547.000021,151.3 550.949982,150.500008 554.65,148.9 C558.350019,147.299992 561.649986,145.000015 564.55,142 C567.450015,138.999985 569.699992,135.350022 571.3,131.05 C572.900008,126.749979 573.7,121.900027 573.7,116.5 C573.7,105.699946 570.70003,97.3500295 564.7,91.45 C558.69997,85.5499705 551.400043,82.6 542.8,82.6 C534.199957,82.6 526.90003,85.5499705 520.9,91.45 C514.89997,97.3500295 511.9,105.699946 511.9,116.5 C511.9,121.900027 512.699992,126.749979 514.3,131.05 C515.900008,135.350022 518.149986,138.999985 521.05,142 C523.950015,145.000015 527.249982,147.299992 530.95,148.9 C534.650019,150.500008 538.599979,151.3 542.8,151.3 Z M633.8,176.2 C633.8,160.19992 640.949928,147.950042 655.25,139.45 C669.550071,130.949957 692.299844,125.000017 723.5,121.6 C723.5,116.999977 723.050004,112.500022 722.15,108.1 C721.249995,103.699978 719.650011,99.800017 717.35,96.4 C715.049988,92.999983 712.000019,90.2500105 708.2,88.15 C704.399981,86.0499895 699.50003,85 693.5,85 C684.899957,85 676.950036,86.599984 669.65,89.8 C662.349963,93.000016 655.800029,96.59998 650,100.6 L640.1,83.5 C646.900034,79.099978 655.199951,74.8500205 665,70.75 C674.800049,66.6499795 685.599941,64.6 697.4,64.6 C715.200089,64.6 728.09996,70.0499455 736.1,80.95 C744.10004,91.8500545 748.1,106.399909 748.1,124.6 L748.1,214 L727.7,214 L725.6,196.6 L725,196.6 C717.999965,202.400029 710.45004,207.349979 702.35,211.45 C694.249959,215.55002 685.700045,217.6 676.7,217.6 C664.299938,217.6 654.05004,214.000036 645.95,206.8 C637.849959,199.599964 633.8,189.400066 633.8,176.2 Z M658.1,174.4 C658.1,182.800042 660.549975,188.799982 665.45,192.4 C670.350024,196.000018 676.399964,197.8 683.6,197.8 C690.600035,197.8 697.249968,196.150016 703.55,192.85 C709.850032,189.549983 716.499965,184.700032 723.5,178.3 L723.5,137.8 C711.299939,139.400008 701.000042,141.299989 692.6,143.5 C684.199958,145.700011 677.450025,148.299985 672.35,151.3 C667.249974,154.300015 663.600011,157.74998 661.4,161.65 C659.199989,165.550019 658.1,169.799977 658.1,174.4 Z M795.6,68.2 L816,68.2 L818.1,94.6 L819,94.6 C824.000025,85.399954 830.049964,78.100027 837.15,72.7 C844.250035,67.299973 851.999958,64.6 860.4,64.6 C866.200029,64.6 871.399977,65.59999 876,67.6 L871.2,89.2 C868.799988,88.399996 866.60001,87.800002 864.6,87.4 C862.59999,86.999998 860.100015,86.8 857.1,86.8 C850.899969,86.8 844.450033,89.299975 837.75,94.3 C831.049967,99.300025 825.200025,107.999938 820.2,120.4 L820.2,214 L795.6,214 L795.6,68.2 Z M878.5,199 C878.5,193.199971 880.249982,188.550017 883.75,185.05 C887.250017,181.549982 891.499975,179.8 896.5,179.8 C901.300024,179.8 905.449982,181.549982 908.95,185.05 C912.450017,188.550017 914.2,193.199971 914.2,199 C914.2,204.400027 912.450017,208.849982 908.95,212.35 C905.449982,215.850017 901.300024,217.6 896.5,217.6 C891.499975,217.6 887.250017,215.850017 883.75,212.35 C880.249982,208.849982 878.5,204.400027 878.5,199 Z M946.1,141.4 C946.1,129.199939 947.999981,118.350048 951.8,108.85 C955.600019,99.3499525 960.699968,91.300033 967.1,84.7 C973.500032,78.099967 980.949957,73.100017 989.45,69.7 C997.950042,66.299983 1006.89995,64.6 1016.3,64.6 C1025.90005,64.6 1034.14997,66.3499825 1041.05,69.85 C1047.95003,73.3500175 1053.89998,77.399977 1058.9,82 L1046.6,97.9 C1042.19998,94.099981 1037.65002,91.000012 1032.95,88.6 C1028.24998,86.199988 1023.00003,85 1017.2,85 C1010.59997,85 1004.50003,86.3499865 998.9,89.05 C993.299972,91.7500135 988.50002,95.599975 984.5,100.6 C980.49998,105.600025 977.350011,111.549966 975.05,118.45 C972.749988,125.350034 971.6,132.999958 971.6,141.4 C971.6,149.800042 972.699989,157.399966 974.9,164.2 C977.100011,171.000034 980.14998,176.849976 984.05,181.75 C987.950019,186.650024 992.699972,190.449987 998.3,193.15 C1003.90003,195.850013 1009.99997,197.2 1016.6,197.2 C1023.60004,197.2 1029.94997,195.750014 1035.65,192.85 C1041.35003,189.949985 1046.39998,186.50002 1050.8,182.5 L1061.9,198.7 C1055.29997,204.500029 1047.95004,209.099983 1039.85,212.5 C1031.74996,215.900017 1023.30004,217.6 1014.5,217.6 C1004.89995,217.6 995.900042,215.900017 987.5,212.5 C979.099958,209.099983 971.85003,204.150032 965.75,197.65 C959.649969,191.149968 954.850017,183.150048 951.35,173.65 C947.849983,164.149953 946.1,153.40006 946.1,141.4 Z M1077.6,141.4 C1077.6,129.199939 1079.44998,118.350048 1083.15,108.85 C1086.85002,99.3499525 1091.79997,91.300033 1098,84.7 C1104.20003,78.099967 1111.34996,73.100017 1119.45,69.7 C1127.55004,66.299983 1136.09995,64.6 1145.1,64.6 C1154.10004,64.6 1162.64996,66.299983 1170.75,69.7 C1178.85004,73.100017 1185.99997,78.099967 1192.2,84.7 C1198.40003,91.300033 1203.34998,99.3499525 1207.05,108.85 C1210.75002,118.350048 1212.6,129.199939 1212.6,141.4 C1212.6,153.40006 1210.75002,164.149953 1207.05,173.65 C1203.34998,183.150048 1198.40003,191.149968 1192.2,197.65 C1185.99997,204.150032 1178.85004,209.099983 1170.75,212.5 C1162.64996,215.900017 1154.10004,217.6 1145.1,217.6 C1136.09995,217.6 1127.55004,215.900017 1119.45,212.5 C1111.34996,209.099983 1104.20003,204.150032 1098,197.65 C1091.79997,191.149968 1086.85002,183.150048 1083.15,173.65 C1079.44998,164.149953 1077.6,153.40006 1077.6,141.4 Z M1103.1,141.4 C1103.1,149.800042 1104.09999,157.399966 1106.1,164.2 C1108.10001,171.000034 1110.94998,176.849976 1114.65,181.75 C1118.35002,186.650024 1122.79997,190.449987 1128,193.15 C1133.20003,195.850013 1138.89997,197.2 1145.1,197.2 C1151.30003,197.2 1156.99997,195.850013 1162.2,193.15 C1167.40003,190.449987 1171.84998,186.650024 1175.55,181.75 C1179.25002,176.849976 1182.09999,171.000034 1184.1,164.2 C1186.10001,157.399966 1187.1,149.800042 1187.1,141.4 C1187.1,132.999958 1186.10001,125.350034 1184.1,118.45 C1182.09999,111.549966 1179.25002,105.600025 1175.55,100.6 C1171.84998,95.599975 1167.40003,91.7500135 1162.2,89.05 C1156.99997,86.3499865 1151.30003,85 1145.1,85 C1138.89997,85 1133.20003,86.3499865 1128,89.05 C1122.79997,91.7500135 1118.35002,95.599975 1114.65,100.6 C1110.94998,105.600025 1108.10001,111.549966 1106.1,118.45 C1104.09999,125.350034 1103.1,132.999958 1103.1,141.4 Z" id="ellugar.co"></path>
                <g id="Underline" stroke-width="1" transform="translate(0.000000, 244.000000)">
                    <rect id="2" x="0" y="0" width="470" height="20"></rect>
                    <rect id="1" x="628" y="0" width="600" height="20"></rect>
                </g>
            </g>
        </g>
    </g>
</svg>