<?xml version="1.0" encoding="UTF-8"?>
<svg width="1464px" height="300px" viewBox="0 0 1464 300" version="1.1" xmlns="http://www.w3.org/2000/svg" xmlns:xlink="http://www.w3.org/1999/xlink">
    <!-- Generator: Sketch 43.2 (39069) - http://www.bohemiancoding.com/sketch -->
    <title>web/logo</title>
    <desc>Created with Sketch.</desc>
    <defs></defs>
    <g id="Web" stroke="none" stroke-width="1" fill="none" fill-rule="evenodd">
        <g id="logo" fill="#000000">
            <g id="ellguar_horizontal">
                <g id="ellugar_white">
                    <path d="M18.75,46.3834874 L18.75,253.616513 C18.75,268.880713 31.1203369,281.25 46.3834874,281.25 L253.616513,281.25 C268.880713,281.25 281.25,268.879663 281.25,253.616513 L281.25,46.3834874 C281.25,31.1192872 268.879663,18.75 253.616513,18.75 L46.3834874,18.75 C31.1192872,18.75 18.75,31.1203369 18.75,46.3834874 Z M0,37.5020721 C0,16.7902496 16.7856426,0 37.5020721,0 L262.497928,0 C283.20975,0 300,16.7856426 300,37.5020721 L300,262.497928 C300,283.20975 283.214357,300 262.497928,300 L37.5020721,300 C16.7902496,300 0,283.214357 0,262.497928 L0,37.5020721 Z" id="Border" fill-rule="nonzero"></path>
                    <path d="M150,191.25 C150,191.25 187.5,166.960678 187.5,146.25 C187.5,125.539322 170.710678,108.75 150,108.75 C129.289322,108.75 112.5,125.539322 112.5,146.25 C112.5,166.960678 150,191.25 150,191.25 Z" id="Dot" fill-rule="evenodd"></path>
                </g>
                <g id="ellugar.co_text" transform="translate(375.000000, 25.000000)" fill-rule="evenodd">
                    <path d="M12.2379479,125.35461 C12.2379479,114.716259 13.8785259,105.186212 17.1597313,96.7641844 C20.4409366,88.3421565 24.7862515,81.205703 30.1958062,75.3546099 C35.6053609,69.5035168 41.7686136,65.0266113 48.6857492,61.9237589 C55.6028847,58.8209065 62.7859562,57.2695035 70.2351792,57.2695035 C78.3938519,57.2695035 85.7099432,58.6879291 92.1836726,61.5248227 C98.6574021,64.3617163 104.066876,68.4396897 108.412256,73.7588652 C112.757636,79.0780408 116.083132,85.4609557 118.388844,92.9078014 C120.694556,100.354647 121.847394,108.687897 121.847394,117.907801 C121.847394,122.695059 121.581354,126.684381 121.049267,129.875887 L33.7873779,129.875887 C34.6741901,143.883049 38.975165,154.964498 46.6904316,163.120567 C54.4056982,171.276637 64.4708663,175.35461 76.8862378,175.35461 C83.0939235,175.35461 88.8137768,174.423768 94.0459691,172.562057 C99.2781613,170.700345 104.288575,168.262426 109.077362,165.248227 L116.79259,179.609929 C111.116991,183.156046 104.820719,186.258852 97.9035831,188.91844 C90.9864475,191.578027 83.0939368,192.907801 74.2258143,192.907801 C65.5350543,192.907801 57.4208439,191.356398 49.8829397,188.253546 C42.3450356,185.150694 35.7827234,180.718114 30.1958062,174.955674 C24.608889,169.193234 20.2192342,162.145432 17.0267101,153.812057 C13.834186,145.478682 12.2379479,135.992961 12.2379479,125.35461 Z M102.692345,115.514184 C102.692345,102.216246 99.8989286,92.0656379 94.3120114,85.0620567 C88.7250942,78.0584756 80.8769235,74.5567376 70.7672638,74.5567376 C66.1558401,74.5567376 61.7661853,75.4875793 57.5981678,77.3492908 C53.4301502,79.2110022 49.6612546,81.8705501 46.2913681,85.3280142 C42.9214815,88.7854783 40.1280648,93.0407549 37.9110342,98.0939716 C35.6940036,103.147188 34.2307853,108.953868 33.5213355,115.514184 L102.692345,115.514184 Z M154.659283,0.354609929 L176.474756,0.354609929 L176.474756,165.248227 C176.474756,168.794344 177.095515,171.276589 178.337052,172.695035 C179.578589,174.113482 180.997468,174.822695 182.59373,174.822695 L184.589047,174.822695 C185.209816,174.822695 186.140955,174.645392 187.382492,174.29078 L190.308958,190.780142 C188.890058,191.489365 187.20514,192.021275 185.254153,192.375887 C183.303166,192.730498 180.820129,192.907801 177.804967,192.907801 C169.468932,192.907801 163.527379,190.425557 159.98013,185.460993 C156.432881,180.496429 154.659283,173.226998 154.659283,163.652482 L154.659283,0.354609929 Z M223.386889,0.354609929 L245.202362,0.354609929 L245.202362,165.248227 C245.202362,168.794344 245.823121,171.276589 247.064658,172.695035 C248.306195,174.113482 249.725073,174.822695 251.321336,174.822695 L253.316653,174.822695 C253.937422,174.822695 254.868561,174.645392 256.110098,174.29078 L259.036564,190.780142 C257.617664,191.489365 255.932746,192.021275 253.981759,192.375887 C252.030772,192.730498 249.547735,192.907801 246.532573,192.907801 C238.196538,192.907801 232.254985,190.425557 228.707736,185.460993 C225.160487,180.496429 223.386889,173.226998 223.386889,163.652482 L223.386889,0.354609929 Z M290.252199,60.4609929 L312.333713,60.4609929 L312.333713,139.450355 C312.333713,151.684458 314.240331,160.505292 318.053624,165.913121 C321.866916,171.320949 328.030169,174.024823 336.543567,174.024823 C343.28334,174.024823 349.224893,172.296117 354.368404,168.838652 C359.511915,165.381188 365.187428,159.840464 371.395114,152.216312 L371.395114,60.4609929 L393.210586,60.4609929 L393.210586,189.716312 L375.119707,189.716312 L373.25741,169.503546 L372.459283,169.503546 C366.42896,176.59578 360.088348,182.269482 353.437256,186.524823 C346.786164,190.780163 338.937993,192.907801 329.892508,192.907801 C316.058237,192.907801 305.993069,188.652525 299.696702,180.141844 C293.400335,171.631163 290.252199,159.042637 290.252199,142.375887 L290.252199,60.4609929 Z M447.039821,211.524823 C447.039821,218.439751 450.365317,223.93615 457.016409,228.014184 C463.667501,232.092219 472.84587,234.131206 484.551792,234.131206 C490.759477,234.131206 496.390651,233.377667 501.44548,231.870567 C506.50031,230.363468 510.801285,228.413133 514.348534,226.019504 C517.895783,223.625875 520.64486,220.833349 522.595847,217.641844 C524.546834,214.450339 525.522313,211.17023 525.522313,207.801418 C525.522313,201.77302 523.305315,197.606395 518.871254,195.301418 C514.437193,192.996442 507.96356,191.843972 499.450163,191.843972 L477.102606,191.843972 C474.619532,191.843972 471.914795,191.710994 468.988314,191.445035 C466.061834,191.179077 463.179737,190.602841 460.341938,189.716312 C455.730514,193.085123 452.360678,196.631187 450.232329,200.35461 C448.10398,204.078033 447.039821,207.8014 447.039821,211.524823 Z M427.884772,214.450355 C427.884772,208.953873 429.56969,203.723429 432.939577,198.758865 C436.309463,193.794301 440.920818,189.27307 446.773779,185.195035 L446.773779,184.131206 C443.581254,182.180841 440.876518,179.476968 438.659487,176.019504 C436.442456,172.562039 435.333958,168.262437 435.333958,163.120567 C435.333958,157.624086 436.841516,152.8369 439.856678,148.758865 C442.871839,144.680831 446.064315,141.489373 449.434202,139.184397 L449.434202,138.120567 C445.177503,134.57445 441.319928,129.83159 437.86136,123.891844 C434.402792,117.952098 432.673534,111.081599 432.673534,103.280142 C432.673534,96.1879078 433.959393,89.8049929 436.531148,84.1312057 C439.102904,78.4574184 442.60576,73.6259065 447.039821,69.6365248 C451.473882,65.6471432 456.661656,62.5886631 462.603298,60.4609929 C468.54494,58.3333227 474.796873,57.2695035 481.359283,57.2695035 C484.906532,57.2695035 488.232028,57.5797841 491.335871,58.2003546 C494.439714,58.8209251 497.233131,59.5744637 499.716205,60.4609929 L544.677362,60.4609929 L544.677362,77.2163121 L518.073127,77.2163121 C521.088289,80.2305115 523.615666,84.0425301 525.655334,88.6524823 C527.695002,93.2624344 528.714821,98.3155754 528.714821,103.812057 C528.714821,110.726985 527.473302,116.976922 524.990228,122.562057 C522.507154,128.147191 519.137318,132.845726 514.880619,136.657801 C510.62392,140.469877 505.613506,143.439706 499.849226,145.567376 C494.084947,147.695046 487.921694,148.758865 481.359283,148.758865 C478.166759,148.758865 474.885603,148.359933 471.515717,147.562057 C468.14583,146.76418 464.953354,145.656035 461.938192,144.237589 C459.63248,146.187953 457.681523,148.359917 456.085261,150.753546 C454.488999,153.147175 453.690879,156.117004 453.690879,159.663121 C453.690879,163.741155 455.287118,167.109916 458.479642,169.769504 C461.672166,172.429091 467.702399,173.758865 476.570521,173.758865 L501.578502,173.758865 C516.65431,173.758865 527.960997,176.196784 535.498901,181.072695 C543.036805,185.948606 546.8057,193.794272 546.8057,204.609929 C546.8057,210.638328 545.298142,216.356356 542.28298,221.764184 C539.267819,227.172013 534.922504,231.914873 529.246906,235.992908 C523.571307,240.070942 516.698615,243.306726 508.628624,245.700355 C500.558632,248.093984 491.468943,249.29078 481.359283,249.29078 C473.377973,249.29078 466.106222,248.537242 459.543811,247.030142 C452.9814,245.523042 447.350227,243.262426 442.650122,240.248227 C437.950017,237.234027 434.314142,233.599312 431.742386,229.343972 C429.17063,225.088631 427.884772,220.124142 427.884772,214.450355 Z M481.359283,134.131206 C485.083895,134.131206 488.586751,133.421993 491.867956,132.003546 C495.149161,130.585099 498.075598,128.546113 500.647353,125.886525 C503.219109,123.226937 505.214407,119.991154 506.633306,116.179078 C508.052206,112.367002 508.761645,108.0674 508.761645,103.280142 C508.761645,93.7056259 506.101248,86.3032176 500.780375,81.072695 C495.459501,75.8421724 488.985869,73.2269504 481.359283,73.2269504 C473.732698,73.2269504 467.259066,75.8421724 461.938192,81.072695 C456.617319,86.3032176 453.956922,93.7056259 453.956922,103.280142 C453.956922,108.0674 454.666361,112.367002 456.085261,116.179078 C457.50416,119.991154 459.499458,123.226937 462.071213,125.886525 C464.642969,128.546113 467.569405,130.585099 470.850611,132.003546 C474.131816,133.421993 477.634672,134.131206 481.359283,134.131206 Z M562.058795,156.205674 C562.058795,142.021206 568.399407,131.161385 581.080822,123.625887 C593.762238,116.090388 613.936914,110.815618 641.605456,107.801418 C641.605456,103.723384 641.206396,99.7340621 640.408265,95.8333333 C639.610134,91.9326046 638.191256,88.4751924 636.151588,85.4609929 C634.11192,82.4467934 631.407183,80.0088746 628.037296,78.1471631 C624.66741,76.2854517 620.322095,75.3546099 615.001221,75.3546099 C607.374636,75.3546099 600.324584,76.7730355 593.850855,79.6099291 C587.377126,82.4468227 581.568592,85.6382801 576.425081,89.1843972 L567.645684,74.0248227 C573.676007,70.124094 581.036439,66.3564012 589.727199,62.7216312 C598.417959,59.0868613 607.995387,57.2695035 618.459772,57.2695035 C634.24503,57.2695035 645.684737,62.1010155 652.779235,71.7641844 C659.873733,81.4273533 663.420928,94.3261605 663.420928,110.460993 L663.420928,189.716312 L645.330049,189.716312 L643.467752,174.29078 L642.935668,174.29078 C636.727982,179.43265 630.03265,183.820904 622.849471,187.455674 C615.666291,191.090444 608.08416,192.907801 600.10285,192.907801 C589.106378,192.907801 580.016689,189.716344 572.83351,183.333333 C565.650331,176.950323 562.058795,167.90786 562.058795,156.205674 Z M583.608225,154.609929 C583.608225,162.056775 585.780882,167.375871 590.126262,170.567376 C594.471642,173.758881 599.836776,175.35461 606.221824,175.35461 C612.42951,175.35461 618.326723,173.891859 623.91364,170.966312 C629.500557,168.040766 635.39777,163.741163 641.605456,158.067376 L641.605456,122.163121 C630.786347,123.581567 621.652317,125.265948 614.203094,127.216312 C606.753872,129.166676 600.767979,131.471618 596.245236,134.131206 C591.722494,136.790793 588.485678,139.849273 586.534691,143.306738 C584.583704,146.764202 583.608225,150.531895 583.608225,154.609929 Z M705.5443,60.4609929 L723.635179,60.4609929 L725.497476,83.8652482 L726.295603,83.8652482 C730.729664,75.7091791 736.094798,69.2376126 742.391164,64.4503546 C748.687531,59.6630966 755.560223,57.2695035 763.009446,57.2695035 C768.152957,57.2695035 772.764312,58.1560195 776.843648,59.929078 L772.586971,79.0780142 C770.458621,78.3687908 768.507664,77.8368812 766.734039,77.4822695 C764.960415,77.1276578 762.743417,76.9503546 760.08298,76.9503546 C754.584744,76.9503546 748.864891,79.1666445 742.923249,83.5992908 C736.981607,88.0319371 731.793833,95.7446259 727.359772,106.737589 L727.359772,189.716312 L705.5443,189.716312 L705.5443,60.4609929 Z M779.060668,176.41844 C779.060668,171.27657 780.612566,167.154271 783.716409,164.051418 C786.820252,160.948566 790.589147,159.397163 795.023208,159.397163 C799.279907,159.397163 802.960123,160.948566 806.063966,164.051418 C809.167809,167.154271 810.719707,171.27657 810.719707,176.41844 C810.719707,181.205698 809.167809,185.150694 806.063966,188.253546 C802.960123,191.356398 799.279907,192.907801 795.023208,192.907801 C790.589147,192.907801 786.820252,191.356398 783.716409,188.253546 C780.612566,185.150694 779.060668,181.205698 779.060668,176.41844 Z M839.008876,125.35461 C839.008876,114.538953 840.693794,104.920255 844.063681,96.498227 C847.433567,88.076199 851.956242,80.9397456 857.63184,75.0886525 C863.307439,69.2375594 869.914091,64.8049796 877.451995,61.7907801 C884.989899,58.7765807 892.92675,57.2695035 901.262785,57.2695035 C909.776183,57.2695035 917.092274,58.8209065 923.211279,61.9237589 C929.330283,65.0266113 934.606737,68.6170009 939.040798,72.6950355 L928.133062,86.7907801 C924.231088,83.421969 920.196153,80.6737695 916.028135,78.5460993 C911.860118,76.4184291 907.204423,75.3546099 902.060912,75.3546099 C896.207951,75.3546099 890.798478,76.5514065 885.832329,78.9450355 C880.86618,81.3386645 876.609545,84.7517509 873.062296,89.1843972 C869.515047,93.6170434 866.721631,98.8918134 864.681963,105.008865 C862.642294,111.125917 861.622476,117.907764 861.622476,125.35461 C861.622476,132.801456 862.597954,139.538977 864.548941,145.567376 C866.499928,151.595775 869.204665,156.781893 872.663233,161.125887 C876.121801,165.46988 880.334096,168.838641 885.300244,171.23227 C890.266393,173.625898 895.675867,174.822695 901.528827,174.822695 C907.736513,174.822695 913.367686,173.537247 918.422516,170.966312 C923.477346,168.395377 927.955681,165.336897 931.857655,161.79078 L941.701221,176.152482 C935.848261,181.294352 929.330288,185.372325 922.147109,188.386525 C914.96393,191.400724 907.470479,192.907801 899.666531,192.907801 C891.153133,192.907801 883.171943,191.400724 875.72272,188.386525 C868.273497,185.372325 861.844205,180.984071 856.43465,175.221631 C851.025095,169.459191 846.76846,162.367063 843.664617,153.945035 C840.560774,145.523008 839.008876,135.992961 839.008876,125.35461 Z M955.624104,125.35461 C955.624104,114.538953 957.264682,104.920255 960.545888,96.498227 C963.827093,88.076199 968.216748,80.9397456 973.714984,75.0886525 C979.21322,69.2375594 985.553832,64.8049796 992.737011,61.7907801 C999.920191,58.7765807 1007.50232,57.2695035 1015.48363,57.2695035 C1023.46494,57.2695035 1031.04707,58.7765807 1038.23025,61.7907801 C1045.41343,64.8049796 1051.75404,69.2375594 1057.25228,75.0886525 C1062.75052,80.9397456 1067.14017,88.076199 1070.42138,96.498227 C1073.70258,104.920255 1075.34316,114.538953 1075.34316,125.35461 C1075.34316,135.992961 1073.70258,145.523008 1070.42138,153.945035 C1067.14017,162.367063 1062.75052,169.459191 1057.25228,175.221631 C1051.75404,180.984071 1045.41343,185.372325 1038.23025,188.386525 C1031.04707,191.400724 1023.46494,192.907801 1015.48363,192.907801 C1007.50232,192.907801 999.920191,191.400724 992.737011,188.386525 C985.553832,185.372325 979.21322,180.984071 973.714984,175.221631 C968.216748,169.459191 963.827093,162.367063 960.545888,153.945035 C957.264682,145.523008 955.624104,135.992961 955.624104,125.35461 Z M978.237704,125.35461 C978.237704,132.801456 979.124503,139.538977 980.898127,145.567376 C982.671752,151.595775 985.199129,156.781893 988.480334,161.125887 C991.761539,165.46988 995.707795,168.838641 1000.31922,171.23227 C1004.93064,173.625898 1009.9854,174.822695 1015.48363,174.822695 C1020.98187,174.822695 1026.03662,173.625898 1030.64805,171.23227 C1035.25947,168.838641 1039.20572,165.46988 1042.48693,161.125887 C1045.76814,156.781893 1048.29551,151.595775 1050.06914,145.567376 C1051.84276,139.538977 1052.72956,132.801456 1052.72956,125.35461 C1052.72956,117.907764 1051.84276,111.125917 1050.06914,105.008865 C1048.29551,98.8918134 1045.76814,93.6170434 1042.48693,89.1843972 C1039.20572,84.7517509 1035.25947,81.3386645 1030.64805,78.9450355 C1026.03662,76.5514065 1020.98187,75.3546099 1015.48363,75.3546099 C1009.9854,75.3546099 1004.93064,76.5514065 1000.31922,78.9450355 C995.707795,81.3386645 991.761539,84.7517509 988.480334,89.1843972 C985.199129,93.6170434 982.671752,98.8918134 980.898127,105.008865 C979.124503,111.125917 978.237704,117.907764 978.237704,125.35461 Z" id="ellugar.co"></path>
                    <g id="Underline" stroke-width="1" transform="translate(0.000000, 216.312057)">
                        <rect id="2" x="0" y="0" width="416.799674" height="17.7304965"></rect>
                        <rect id="1" x="556.915309" y="0" width="532.084691" height="17.7304965"></rect>
                    </g>
                </g>
            </g>
        </g>
    </g>
</svg>