<?xml version="1.0" encoding="utf-8"?>
<!-- Generator: Adobe Illustrator 15.1.0, SVG Export Plug-In . SVG Version: 6.00 Build 0)  -->
<!DOCTYPE svg PUBLIC "-//W3C//DTD SVG 1.1//EN" "http://www.w3.org/Graphics/SVG/1.1/DTD/svg11.dtd">
<svg version="1.1" id="Capa_1" xmlns="http://www.w3.org/2000/svg" xmlns:xlink="http://www.w3.org/1999/xlink" x="0px" y="0px"
	 width="146.712px" height="27.241px" viewBox="0 0 146.712 27.241" enable-background="new 0 0 146.712 27.241"
	 xml:space="preserve">
<g>
	<g>
		<path fill="#010202" d="M30.706,20.503l1.285-3.798h7.875l1.287,3.798h3.771L37.97,0.697h-0.037h-3.903h-3.726v2.878h2.715
			l-5.943,16.928H30.706z M35.929,5.084l2.822,8.352h-5.643L35.929,5.084z"/>
		<path fill="#010202" d="M49.813,13.167c0-1.177,0.315-2.157,0.949-2.94c0.632-0.783,1.563-1.176,2.793-1.176
			c0.371,0,0.772,0.045,1.201,0.139V5.865c-0.354-0.055-0.718-0.084-1.09-0.084c-1.191,0-3.189,0.56-4.057,2.832l-0.359-2.637
			h-2.986v14.526h3.549V13.167z"/>
		<path fill="#010202" d="M57.467,19.763c0.726,0.606,1.687,0.909,2.876,0.909c0.355,0,0.609-0.016,0.768-0.043
			c0.158-0.028,0.416-0.08,0.769-0.153v-2.934c-0.091,0-0.175,0.005-0.247,0.014c-0.073,0.011-0.184,0.014-0.33,0.014
			c-0.588,0-0.965-0.126-1.129-0.376c-0.164-0.252-0.248-0.592-0.248-1.021V0.307h-3.549V16.76
			C56.376,18.156,56.74,19.159,57.467,19.763z"/>
		<path fill="#010202" d="M65.147,19.078c0.577,0.541,1.232,0.975,1.969,1.299c0.737,0.325,1.607,0.488,2.613,0.488
			c0.93,0,1.825-0.157,2.682-0.475c0.855-0.315,1.591-0.836,2.207-1.564c0.28-0.335,0.543-0.759,0.795-1.271
			c0.252-0.513,0.395-0.981,0.434-1.411h-3.352c-0.131,0.484-0.364,0.895-0.698,1.229c-0.261,0.263-0.556,0.442-0.88,0.544
			c-0.326,0.104-0.74,0.154-1.244,0.154c-0.484,0-0.899-0.087-1.242-0.266c-0.346-0.176-0.647-0.385-0.91-0.627
			c-0.352-0.336-0.621-0.755-0.809-1.258c-0.186-0.504-0.271-1.033-0.25-1.592h9.721c0-0.074,0-0.168,0-0.279
			c0-0.113,0.008-0.225,0.027-0.336c0-0.111,0-0.233,0-0.363c0.037-0.91-0.027-1.781-0.195-2.611
			c-0.168-0.829-0.521-1.645-1.062-2.445c-0.596-0.91-1.36-1.586-2.291-2.024c-0.931-0.438-1.936-0.655-3.017-0.655
			c-1.006,0-1.896,0.166-2.666,0.502c-0.775,0.336-1.432,0.782-1.972,1.34c-0.708,0.709-1.234,1.561-1.577,2.557
			c-0.346,0.996-0.518,2.082-0.518,3.255c0,1.192,0.19,2.282,0.572,3.267C63.866,17.523,64.423,18.371,65.147,19.078z M67.187,9.524
			c0.262-0.335,0.597-0.604,1.007-0.81c0.409-0.205,0.884-0.307,1.425-0.307c0.502,0,0.935,0.074,1.299,0.223
			c0.362,0.148,0.665,0.354,0.906,0.615c0.577,0.633,0.877,1.48,0.895,2.541h-6.285C66.451,10.894,66.703,10.14,67.187,9.524z"/>
		<path fill="#010202" d="M79.228,20.503h3.49V8.855h3.883V5.977h-3.883v-1.34c0-0.521,0.16-0.945,0.475-1.271
			c0.318-0.326,0.793-0.488,1.426-0.488c0.465,0,0.869,0.019,1.215,0.055C86.177,2.97,86.537,3.025,86.91,3.1V0.307
			c-0.541-0.112-1.008-0.191-1.398-0.236C85.121,0.023,84.675,0,84.171,0c-1.584,0-2.803,0.428-3.66,1.285
			c-0.857,0.855-1.283,1.955-1.283,3.296v1.396h-2.461v2.879h2.461V20.503z"/>
		<path fill="#010202" d="M99.396,19.078c0.576,0.541,1.232,0.975,1.969,1.299c0.736,0.325,1.604,0.488,2.611,0.488
			c0.93,0,1.824-0.157,2.682-0.475c0.857-0.315,1.592-0.836,2.207-1.564c0.279-0.335,0.545-0.759,0.797-1.271
			c0.25-0.513,0.395-0.981,0.432-1.411h-3.352c-0.131,0.484-0.363,0.895-0.699,1.229c-0.26,0.263-0.553,0.442-0.881,0.544
			c-0.324,0.104-0.738,0.154-1.24,0.154c-0.486,0-0.9-0.087-1.246-0.266c-0.344-0.176-0.646-0.385-0.906-0.627
			c-0.354-0.336-0.623-0.755-0.809-1.258c-0.188-0.504-0.271-1.033-0.254-1.592h9.723c0-0.074,0-0.168,0-0.279
			c0-0.113,0.008-0.225,0.027-0.336c0-0.111,0-0.233,0-0.363c0.035-0.91-0.027-1.781-0.195-2.611
			c-0.168-0.829-0.521-1.645-1.061-2.445c-0.596-0.91-1.359-1.586-2.293-2.024c-0.932-0.438-1.936-0.655-3.016-0.655
			c-1.006,0-1.895,0.166-2.668,0.502c-0.771,0.336-1.43,0.782-1.969,1.34c-0.709,0.709-1.234,1.561-1.578,2.557
			c-0.346,0.996-0.518,2.082-0.518,3.255c0,1.192,0.191,2.282,0.574,3.267C98.115,17.523,98.667,18.371,99.396,19.078z
			 M101.435,9.524c0.26-0.335,0.594-0.604,1.006-0.81c0.408-0.205,0.883-0.307,1.424-0.307c0.502,0,0.938,0.074,1.297,0.223
			c0.365,0.148,0.666,0.354,0.91,0.615c0.576,0.633,0.875,1.48,0.893,2.541h-6.283C100.699,10.894,100.949,10.14,101.435,9.524z"/>
		<path fill="#010202" d="M113.013,19.482c0.438,0.42,0.986,0.756,1.648,1.007c0.66,0.251,1.418,0.376,2.275,0.376
			c1.041,0,1.957-0.213,2.738-0.643c0.781-0.428,1.34-0.939,1.676-1.535c0.055,0.54,0.289,1.016,0.697,1.424
			c0.412,0.41,0.996,0.615,1.762,0.615c0.426,0,0.75-0.032,0.963-0.098c0.215-0.064,0.471-0.163,0.768-0.293v-2.571
			c-0.037,0.02-0.084,0.028-0.139,0.028c-0.113,0.02-0.215,0.029-0.309,0.029c-0.299,0-0.506-0.07-0.629-0.211
			c-0.121-0.141-0.182-0.377-0.182-0.711v-5.392c0-0.485-0.023-0.978-0.068-1.48c-0.047-0.504-0.164-0.987-0.35-1.453
			c-0.428-1.099-1.131-1.866-2.109-2.305c-0.977-0.438-2.09-0.655-3.338-0.655c-0.799,0-1.559,0.094-2.277,0.277
			c-0.715,0.188-1.346,0.472-1.885,0.854c-0.541,0.381-0.973,0.87-1.299,1.467c-0.326,0.596-0.516,1.303-0.572,2.123h3.379
			c0.037-0.672,0.285-1.184,0.74-1.538c0.457-0.354,1.094-0.529,1.914-0.529c0.988,0,1.643,0.208,1.969,0.627
			s0.488,0.974,0.488,1.663v0.895l-4.273,0.307c-0.688,0.056-1.33,0.191-1.926,0.404c-0.598,0.215-1.117,0.518-1.564,0.908
			c-0.447,0.393-0.797,0.857-1.049,1.396c-0.252,0.541-0.377,1.156-0.377,1.844c0,0.597,0.111,1.168,0.336,1.719
			C112.244,18.58,112.574,19.064,113.013,19.482z M115.736,14.859c0.43-0.315,0.912-0.492,1.453-0.529l3.686-0.279v0.67
			c0,1.081-0.344,1.904-1.033,2.473c-0.689,0.567-1.582,0.852-2.682,0.852c-0.539,0-1.02-0.164-1.438-0.489
			s-0.627-0.768-0.627-1.327C115.095,15.633,115.308,15.178,115.736,14.859z"/>
		<polygon fill="#010202" points="130.847,16.676 133.166,14.162 137.246,20.503 141.296,20.503 135.542,11.593 140.736,5.977 
			136.351,5.977 130.847,11.871 130.847,0.334 127.357,0.334 127.357,20.503 130.847,20.503 		"/>
		<path fill="#010202" d="M91.837,13.167c0-1.177,0.314-2.157,0.949-2.94c0.631-0.783,1.562-1.176,2.793-1.176
			c0.371,0,0.771,0.045,1.201,0.139V5.865c-0.355-0.055-0.719-0.084-1.09-0.084c-1.191,0-3.189,0.56-4.059,2.832l-0.357-2.637
			h-2.986v14.526h3.549V13.167z"/>
		<path fill="#010202" d="M144.394,20.802c1.279,0,2.318-1.036,2.318-2.315c0-1.281-1.039-2.318-2.318-2.318
			c-1.277,0-2.316,1.037-2.316,2.318C142.078,19.766,143.117,20.802,144.394,20.802z"/>
		<circle fill="#010202" cx="13.66" cy="6.575" r="2.317"/>
		<path fill="#010202" d="M2.101,0.298L2.093,0.307H0.011v2.082L0,2.398l0.011,0.009v18.096h20.197V0.307H2.111L2.101,0.298z
			 M17.235,3.277v12.154L5.083,3.277H17.235z M2.982,5.378l6.277,6.278H2.982V5.378z M2.982,14.629h9.249l2.902,2.902H2.982V14.629z
			"/>
		<rect x="0.011" y="24.283" fill="#010202" width="20.197" height="2.958"/>
		<rect x="27.075" y="24.283" fill="#010202" width="119.637" height="2.958"/>
	</g>
</g>
</svg>
