<svg xmlns="http://www.w3.org/2000/svg" width="146.712" height="27.241" viewBox="0 0 146.712 27.241"><g fill="#010202"><path d="M30.706 20.503l1.285-3.798h7.877l1.287 3.798h3.77L37.97.697h-7.666v2.878h2.715l-5.945 16.928h3.63zm5.223-15.42l2.82 8.353h-5.64l2.82-8.352zm13.883 8.084c0-1.177.315-2.157.95-2.94.63-.783 1.562-1.176 2.792-1.176.37 0 .772.047 1.2.14V5.866a7.096 7.096 0 0 0-1.09-.084c-1.19 0-3.188.56-4.056 2.834l-.36-2.637h-2.987v14.526h3.55v-7.335zm7.654 6.596c.726.606 1.687.91 2.876.91.355 0 .61-.017.768-.044.16-.03.418-.08.77-.155V17.54c-.09 0-.174.006-.246.015-.073.01-.184.014-.33.014-.588 0-.965-.127-1.13-.377-.163-.252-.247-.592-.247-1.02V.306h-3.55V16.76c0 1.396.364 2.4 1.09 3.003zm7.68-.685a6.94 6.94 0 0 0 1.97 1.3c.736.324 1.606.487 2.612.487a7.65 7.65 0 0 0 2.68-.475 5.22 5.22 0 0 0 2.207-1.564c.28-.335.543-.76.795-1.27.252-.514.395-.982.434-1.412h-3.352c-.13.484-.364.895-.698 1.23a2.13 2.13 0 0 1-.88.543c-.326.104-.74.154-1.244.154-.484 0-.9-.085-1.242-.264a4.03 4.03 0 0 1-.91-.627 3.307 3.307 0 0 1-.808-1.26 4.103 4.103 0 0 1-.25-1.59h9.72v-.28c0-.113.01-.225.028-.336v-.363a10.89 10.89 0 0 0-.195-2.61c-.168-.83-.52-1.645-1.062-2.445-.596-.91-1.36-1.586-2.29-2.024a6.994 6.994 0 0 0-3.018-.654c-1.006 0-1.896.166-2.666.502a6.058 6.058 0 0 0-1.974 1.34 6.607 6.607 0 0 0-1.577 2.557c-.347.996-.52 2.082-.52 3.255 0 1.19.19 2.28.573 3.266a7.08 7.08 0 0 0 1.663 2.542zm2.04-9.554a2.915 2.915 0 0 1 1.007-.81c.41-.205.884-.307 1.425-.307.5 0 .933.074 1.297.223.362.148.665.354.906.615.577.633.877 1.48.895 2.54h-6.286c.017-.89.27-1.645.753-2.26zm12.04 10.98h3.49V8.853H86.6V5.978h-3.88v-1.34c0-.52.16-.945.475-1.27.318-.327.793-.49 1.426-.49.465 0 .87.02 1.215.056.343.037.703.092 1.076.167V.307A16.26 16.26 0 0 0 85.513.07a11.12 11.12 0 0 0-1.34-.07c-1.585 0-2.804.428-3.66 1.285-.858.855-1.284 1.955-1.284 3.296V5.98h-2.46v2.88h2.46v11.646zm20.17-1.426c.575.54 1.23.975 1.97 1.3.734.324 1.602.487 2.61.487.93 0 1.823-.157 2.68-.475a5.203 5.203 0 0 0 2.208-1.564c.28-.335.545-.76.797-1.27.25-.514.395-.982.432-1.412h-3.352a2.68 2.68 0 0 1-.7 1.23 2.1 2.1 0 0 1-.88.543c-.324.104-.738.154-1.24.154-.486 0-.9-.085-1.246-.264a3.982 3.982 0 0 1-.906-.627 3.26 3.26 0 0 1-.81-1.26 4.143 4.143 0 0 1-.253-1.59h9.723v-.28c0-.113.008-.225.027-.336v-.363a11 11 0 0 0-.195-2.61c-.168-.83-.52-1.645-1.06-2.445-.597-.91-1.36-1.586-2.294-2.024a6.996 6.996 0 0 0-3.016-.654c-1.006 0-1.895.166-2.668.502-.77.336-1.43.782-1.97 1.34a6.61 6.61 0 0 0-1.577 2.557c-.346.996-.518 2.082-.518 3.255 0 1.19.19 2.28.572 3.266a7.015 7.015 0 0 0 1.663 2.542zm2.04-9.554c.26-.335.592-.604 1.004-.81.41-.205.885-.307 1.426-.307.502 0 .938.074 1.297.223.365.148.666.354.91.615.576.633.875 1.48.893 2.54h-6.283c.017-.89.267-1.645.753-2.26zm11.576 9.958c.438.42.986.756 1.648 1.007.66.25 1.42.374 2.277.374 1.04 0 1.957-.213 2.738-.643.78-.427 1.34-.94 1.676-1.534.056.54.29 1.016.698 1.424.412.41.996.616 1.762.616.425 0 .75-.032.962-.098.215-.064.47-.163.768-.293v-2.57a.292.292 0 0 1-.14.027 1.77 1.77 0 0 1-.308.03c-.3 0-.506-.07-.63-.212-.12-.14-.18-.377-.18-.71v-5.393c0-.485-.024-.978-.07-1.48a5.196 5.196 0 0 0-.35-1.453c-.427-1.1-1.13-1.866-2.108-2.305-.977-.44-2.09-.657-3.338-.657-.8 0-1.56.094-2.277.277a5.767 5.767 0 0 0-1.887.855c-.54.38-.973.87-1.3 1.467-.325.596-.515 1.303-.57 2.123h3.378c.038-.672.286-1.184.74-1.538.458-.354 1.095-.53 1.915-.53.988 0 1.643.21 1.97.628s.487.974.487 1.663v.895l-4.273.307a7.51 7.51 0 0 0-1.927.404 4.84 4.84 0 0 0-1.564.908 4.218 4.218 0 0 0-1.05 1.396c-.25.54-.377 1.156-.377 1.844 0 .597.11 1.168.336 1.72a4.15 4.15 0 0 0 .992 1.45zm2.723-4.623a2.72 2.72 0 0 1 1.453-.53l3.684-.28v.67c0 1.08-.344 1.904-1.033 2.473-.69.567-1.58.852-2.68.852-.54 0-1.02-.164-1.44-.49s-.626-.767-.626-1.326c0-.598.213-1.053.64-1.37zm15.11 1.816l2.32-2.514 4.08 6.34h4.05l-5.754-8.91 5.194-5.615h-4.385l-5.502 5.894V.336h-3.49v20.17h3.49zm-39.01-3.51c0-1.176.315-2.156.95-2.94.63-.782 1.56-1.175 2.793-1.175.37 0 .77.047 1.2.14V5.866a7.116 7.116 0 0 0-1.09-.084c-1.19 0-3.19.56-4.06 2.834l-.357-2.637h-2.986v14.526h3.55v-7.335zm52.558 7.636a2.317 2.317 0 1 0 .002-4.634 2.317 2.317 0 0 0-.002 4.634z"/><circle cx="13.66" cy="6.575" r="2.317"/><path d="M2.1.298l-.007.01H.01v2.08L0 2.4l.01.01v18.095h20.2V.307H2.11L2.1.297zm15.135 2.98V15.43L5.083 3.278h12.152zm-14.253 2.1l6.277 6.278H2.98V5.378zm0 9.25h9.25l2.9 2.903H2.982v-2.9zM.01 24.283h20.2v2.958H.01zm27.065 0h119.637v2.958H27.075z"/></g></svg>