<svg width="1464" height="300" viewBox="0 0 1464 300" xmlns="http://www.w3.org/2000/svg"><title>web/logo</title><g fill-rule="evenodd"><path d="M18.75 46.383v207.234c0 15.264 12.37 27.633 27.633 27.633h207.234c15.264 0 27.633-12.37 27.633-27.633V46.383c0-15.264-12.37-27.633-27.633-27.633H46.383c-15.264 0-27.633 12.37-27.633 27.633zM0 37.503C0 16.79 16.786 0 37.502 0h224.996C283.21 0 300 16.786 300 37.502v224.996C300 283.21 283.214 300 262.498 300H37.502C16.79 300 0 283.214 0 262.498V37.502z" fill-rule="nonzero"/><path d="M150 191.75s37.5-22.636 37.5-45.273c0-20.836-16.79-37.727-37.5-37.727s-37.5 16.891-37.5 37.727c0 22.637 37.5 45.273 37.5 45.273zm225 49.562h416.8v17.73H375zm556.915 0H1464v17.73H931.915zm-544.677-90.957c0-10.639 1.64-20.169 4.922-28.59 3.28-8.423 7.626-15.56 13.036-21.41 5.41-5.851 11.573-10.328 18.49-13.431 6.917-3.103 14.1-4.654 21.55-4.654 8.158 0 15.474 1.418 21.948 4.255 6.473 2.837 11.883 6.915 16.228 12.234 4.346 5.319 7.671 11.702 9.977 19.149 2.306 7.447 3.458 15.78 3.458 25 0 4.787-.266 8.776-.798 11.968h-87.262c.887 14.007 5.188 25.088 12.903 33.245 7.716 8.156 17.78 12.234 30.196 12.234 6.208 0 11.928-.931 17.16-2.793a75.937 75.937 0 0 0 15.031-7.314l7.716 14.362c-5.676 3.546-11.972 6.649-18.89 9.308-6.917 2.66-14.81 3.99-23.677 3.99-8.69 0-16.805-1.552-24.343-4.654-7.538-3.103-14.1-7.536-19.687-13.298-5.587-5.763-9.977-12.81-13.17-21.144-3.192-8.333-4.788-17.819-4.788-28.457zm90.454-9.84c0-13.299-2.793-23.45-8.38-30.453-5.587-7.004-13.435-10.505-23.545-10.505-4.611 0-9 .93-13.169 2.792-4.168 1.862-7.937 4.522-11.307 7.979s-6.163 7.713-8.38 12.766c-2.217 5.053-3.68 10.86-4.39 17.42h69.171zm51.967-115.16h21.816v164.893c0 3.546.62 6.029 1.862 7.447 1.242 1.418 2.66 2.128 4.257 2.128h1.995c.62 0 1.552-.178 2.793-.532l2.927 16.49c-1.419.708-3.104 1.24-5.055 1.595-1.95.354-4.434.532-7.449.532-8.336 0-14.278-2.482-17.825-7.447-3.547-4.965-5.32-12.234-5.32-21.809V25.355zm68.728 0h21.815v164.893c0 3.546.621 6.029 1.863 7.447 1.241 1.418 2.66 2.128 4.256 2.128h1.996c.62 0 1.552-.178 2.793-.532l2.927 16.49c-1.42.708-3.104 1.24-5.055 1.595-1.951.354-4.434.532-7.45.532-8.335 0-14.277-2.482-17.824-7.447-3.548-4.965-5.321-12.234-5.321-21.809V25.355zm66.865 60.106h22.082v78.99c0 12.233 1.906 21.054 5.72 26.462 3.813 5.408 9.976 8.112 18.49 8.112 6.74 0 12.68-1.729 17.824-5.186 5.144-3.458 10.82-8.999 17.027-16.623V85.461h21.816v129.255H750.12l-1.863-20.212h-.798c-6.03 7.092-12.37 12.765-19.022 17.02-6.65 4.256-14.499 6.384-23.544 6.384-13.835 0-23.9-4.255-30.196-12.766-6.297-8.51-9.445-21.1-9.445-37.766V85.46zM822.04 236.525c0 6.915 3.325 12.411 9.976 16.49 6.652 4.077 15.83 6.116 27.536 6.116 6.207 0 11.839-.753 16.893-2.26 5.055-1.508 9.356-3.458 12.904-5.851 3.547-2.394 6.296-5.187 8.247-8.378 1.95-3.192 2.926-6.472 2.926-9.84 0-6.029-2.217-10.196-6.65-12.5-4.435-2.306-10.908-3.458-19.422-3.458h-22.347c-2.483 0-5.188-.133-8.115-.399a41.522 41.522 0 0 1-8.646-1.729c-4.611 3.37-7.981 6.915-10.11 10.639-2.128 3.723-3.192 7.446-3.192 11.17zm-19.155 2.925c0-5.496 1.685-10.727 5.055-15.691 3.37-4.965 7.98-9.486 13.834-13.564v-1.064c-3.193-1.95-5.897-4.654-8.115-8.111-2.217-3.458-3.325-7.758-3.325-12.9 0-5.496 1.508-10.283 4.523-14.361 3.015-4.078 6.207-7.27 9.577-9.575v-1.063c-4.256-3.547-8.114-8.29-11.573-14.23-3.458-5.939-5.187-12.81-5.187-20.61 0-7.093 1.285-13.476 3.857-19.15 2.572-5.674 6.075-10.505 10.509-14.494 4.434-3.99 9.622-7.048 15.563-9.176 5.942-2.128 12.194-3.191 18.756-3.191 3.548 0 6.873.31 9.977.93 3.104.62 5.897 1.374 8.38 2.261h44.961v16.755h-26.604c3.015 3.015 5.543 6.827 7.582 11.436 2.04 4.61 3.06 9.664 3.06 15.16 0 6.915-1.242 13.165-3.725 18.75-2.483 5.585-5.853 10.284-10.11 14.096-4.256 3.812-9.266 6.782-15.03 8.91-5.765 2.127-11.928 3.19-18.49 3.19-3.193 0-6.474-.398-9.844-1.196a48.891 48.891 0 0 1-9.578-3.324c-2.306 1.95-4.256 4.122-5.853 6.516-1.596 2.393-2.394 5.363-2.394 8.91 0 4.077 1.596 7.446 4.789 10.106 3.192 2.66 9.222 3.989 18.09 3.989h25.009c15.075 0 26.382 2.438 33.92 7.314 7.538 4.876 11.307 12.721 11.307 23.537 0 6.028-1.508 11.746-4.523 17.154-3.015 5.408-7.36 10.15-13.036 14.229-5.676 4.078-12.548 7.314-20.618 9.707-8.07 2.394-17.16 3.59-27.27 3.59-7.981 0-15.253-.753-21.815-2.26-6.563-1.507-12.194-3.768-16.894-6.782-4.7-3.014-8.336-6.649-10.908-10.904-2.571-4.255-3.857-9.22-3.857-14.894zm53.474-80.319c3.725 0 7.228-.709 10.509-2.127 3.281-1.419 6.208-3.458 8.78-6.117 2.571-2.66 4.566-5.896 5.985-9.708 1.42-3.812 2.129-8.112 2.129-12.899 0-9.574-2.66-16.977-7.982-22.207-5.32-5.23-11.794-7.846-19.42-7.846-7.627 0-14.1 2.615-19.422 7.846-5.32 5.23-7.981 12.633-7.981 22.207 0 4.787.71 9.087 2.128 12.9 1.42 3.811 3.414 7.047 5.986 9.707 2.572 2.66 5.498 4.698 8.78 6.117 3.28 1.418 6.784 2.127 10.508 2.127zm80.7 22.075c0-14.185 6.34-25.045 19.022-32.58 12.681-7.536 32.856-12.81 60.524-15.825 0-4.078-.399-8.067-1.197-11.968-.798-3.9-2.217-7.358-4.256-10.372-2.04-3.014-4.745-5.452-8.115-7.314s-7.715-2.792-13.036-2.792c-7.626 0-14.676 1.418-21.15 4.255-6.474 2.837-12.282 6.028-17.426 9.574l-8.78-15.16c6.031-3.9 13.391-7.668 22.082-11.302 8.691-3.635 18.268-5.452 28.733-5.452 15.785 0 27.225 4.831 34.32 14.494 7.094 9.663 10.64 22.562 10.64 38.697v79.255h-18.09l-1.862-15.425h-.532a107.43 107.43 0 0 1-20.087 13.165c-7.183 3.634-14.765 5.452-22.746 5.452-10.997 0-20.086-3.192-27.27-9.575-7.183-6.383-10.774-15.425-10.774-27.127zm21.55-1.596c0 7.447 2.172 12.766 6.517 15.957 4.346 3.192 9.71 4.788 16.096 4.788 6.208 0 12.105-1.463 17.692-4.389 5.587-2.925 11.484-7.225 17.691-12.899v-35.904c-10.819 1.419-19.953 3.103-27.402 5.053-7.45 1.95-13.435 4.256-17.958 6.915-4.523 2.66-7.76 5.718-9.71 9.176-1.951 3.457-2.927 7.225-2.927 11.303zm121.935-94.149h18.091l1.862 23.404h.799c4.434-8.156 9.799-14.627 16.095-19.415 6.297-4.787 13.17-7.18 20.618-7.18 5.144 0 9.755.886 13.835 2.66l-4.257 19.148c-2.128-.71-4.08-1.241-5.853-1.596-1.774-.354-3.99-.532-6.651-.532-5.498 0-11.218 2.217-17.16 6.65-5.941 4.432-11.13 12.145-15.563 23.138v82.978h-21.816V85.461zm133.465 64.894c0-10.816 1.685-20.435 5.055-28.857 3.37-8.422 7.892-15.558 13.568-21.41 5.675-5.85 12.282-10.283 19.82-13.297 7.538-3.014 15.475-4.521 23.81-4.521 8.514 0 15.83 1.55 21.95 4.654 6.118 3.103 11.395 6.693 15.829 10.771l-10.908 14.096c-3.902-3.369-7.937-6.117-12.105-8.245-4.168-2.128-8.824-3.191-13.967-3.191-5.853 0-11.263 1.196-16.229 3.59-4.966 2.394-9.222 5.807-12.77 10.24-3.547 4.432-6.34 9.707-8.38 15.824-2.04 6.117-3.06 12.899-3.06 20.346 0 7.446.976 14.184 2.927 20.212 1.95 6.029 4.656 11.215 8.114 15.559 3.459 4.344 7.671 7.713 12.637 10.106 4.966 2.394 10.376 3.59 16.229 3.59 6.208 0 11.839-1.285 16.894-3.856 5.054-2.57 9.533-5.63 13.435-9.175l9.843 14.361a71.146 71.146 0 0 1-19.554 12.235c-7.183 3.014-14.677 4.52-22.48 4.52-8.514 0-16.495-1.506-23.944-4.52-7.45-3.015-13.879-7.403-19.288-13.165-5.41-5.763-9.667-12.855-12.77-21.277-3.104-8.422-4.656-17.952-4.656-28.59zm116.615 0c0-10.816 1.64-20.435 4.922-28.857 3.281-8.422 7.67-15.558 13.169-21.41 5.498-5.85 11.839-10.283 19.022-13.297 7.183-3.014 14.765-4.521 22.747-4.521 7.98 0 15.563 1.507 22.746 4.52 7.183 3.015 13.524 7.448 19.022 13.299 5.499 5.85 9.888 12.987 13.17 21.41 3.28 8.421 4.921 18.04 4.921 28.856 0 10.638-1.64 20.168-4.922 28.59-3.28 8.422-7.67 15.514-13.169 21.277-5.498 5.762-11.839 10.15-19.022 13.165-7.183 3.014-14.765 4.52-22.746 4.52-7.982 0-15.564-1.506-22.747-4.52-7.183-3.015-13.524-7.403-19.022-13.165-5.498-5.763-9.888-12.855-13.17-21.277-3.28-8.422-4.92-17.952-4.92-28.59zm22.614 0c0 7.446.887 14.184 2.66 20.212 1.774 6.029 4.301 11.215 7.582 15.559 3.282 4.344 7.228 7.713 11.84 10.106 4.61 2.394 9.665 3.59 15.164 3.59 5.498 0 10.553-1.196 15.164-3.59 4.611-2.393 8.558-5.762 11.839-10.106 3.281-4.344 5.809-9.53 7.582-15.559 1.774-6.028 2.66-12.766 2.66-20.212 0-7.447-.886-14.23-2.66-20.346-1.773-6.117-4.3-11.392-7.582-15.825-3.281-4.432-7.228-7.845-11.839-10.239-4.611-2.394-9.666-3.59-15.164-3.59-5.499 0-10.553 1.196-15.165 3.59-4.611 2.394-8.557 5.807-11.839 10.24-3.28 4.432-5.808 9.707-7.582 15.824-1.773 6.117-2.66 12.899-2.66 20.346zm-182.348 68.219s15.5-9.272 15.5-18.545c0-8.535-6.939-15.455-15.5-15.455-8.56 0-15.5 6.92-15.5 15.455 0 9.273 15.5 18.545 15.5 18.545z"/></g></svg>