<svg xmlns="http://www.w3.org/2000/svg" width="552.645" height="222.967" viewBox="0 0 552.645 222.967"><path d="M4.356 125.733l6.196-1.238-3.588-17.965-6.196 1.238L0 103.923l16.944-3.385.768 3.845-6.197 1.238 3.59 17.967 6.196-1.238.77 3.844-16.944 3.385-.77-3.846zm45.486-15.083c-.32-1.594-.31-3.078.03-4.452a9.663 9.663 0 0 1 1.737-3.65c.82-1.063 1.852-1.956 3.093-2.68a13.1 13.1 0 0 1 4.06-1.524c1.568-.313 3-.328 4.295-.042 1.293.286 2.422.727 3.385 1.322l-1.594 3.255c-.878-.45-1.735-.756-2.568-.916a6.555 6.555 0 0 0-2.546.02c-1.936.386-3.39 1.28-4.36 2.686-.97 1.404-1.26 3.088-.866 5.05.193.966.526 1.81.996 2.533a6.068 6.068 0 0 0 1.718 1.758 5.82 5.82 0 0 0 2.278.893c.845.144 1.738.12 2.68-.066 1.098-.22 2.057-.628 2.875-1.228.818-.6 1.55-1.26 2.193-1.99l2.462 2.527a11.433 11.433 0 0 1-3.252 2.915 12.463 12.463 0 0 1-3.974 1.55c-1.517.302-2.967.36-4.35.174-1.384-.187-2.638-.614-3.766-1.287-1.128-.673-2.084-1.584-2.87-2.73-.787-1.15-1.34-2.52-1.658-4.117zm20.276-22.854l4.55-.91 1.426 7.14.55 4.174a15.22 15.22 0 0 1 2.537-2.914c.98-.875 2.218-1.463 3.708-1.76 2.223-.444 3.992-.098 5.308 1.04 1.314 1.14 2.224 2.962 2.725 5.473l2.383 11.923-4.55.91-2.265-11.337c-.314-1.57-.81-2.66-1.49-3.27-.68-.613-1.686-.787-3.02-.52-.94.188-1.734.578-2.377 1.168-.643.592-1.32 1.434-2.024 2.525l2.625 13.14-4.55.91-5.53-27.695zm26.362 13.538c-.312-1.57-.314-3.037-.003-4.404.312-1.368.837-2.58 1.577-3.64a9.573 9.573 0 0 1 2.76-2.63 10.297 10.297 0 0 1 3.528-1.42c1.438-.288 2.76-.313 3.963-.078 1.202.235 2.262.677 3.18 1.323.918.646 1.686 1.493 2.303 2.538.617 1.046 1.058 2.236 1.324 3.57.09.444.153.866.192 1.267.04.4.056.723.05.97l-14.003 2.796c.504 1.694 1.448 2.887 2.838 3.574 1.388.69 2.957.857 4.71.508a9.29 9.29 0 0 0 2.702-.97 14.48 14.48 0 0 0 2.397-1.68l2.093 2.518a16.115 16.115 0 0 1-3.17 2.306 13.202 13.202 0 0 1-3.914 1.435c-1.465.293-2.883.337-4.256.136-1.372-.202-2.617-.64-3.73-1.315-1.114-.676-2.07-1.578-2.866-2.71-.798-1.135-1.354-2.498-1.674-4.094zm14.303-4.774c-.3-1.49-.925-2.583-1.88-3.276-.952-.692-2.2-.885-3.744-.577-1.31.26-2.39.9-3.25 1.912-.858 1.013-1.263 2.33-1.21 3.953l10.082-2.014zm9.662-.013c-.318-1.595-.31-3.08.03-4.453a9.685 9.685 0 0 1 1.737-3.65c.82-1.063 1.854-1.955 3.096-2.68a13.075 13.075 0 0 1 4.06-1.524c1.568-.313 3-.328 4.295-.042 1.294.286 2.423.727 3.386 1.322l-1.596 3.255c-.88-.45-1.735-.754-2.568-.914a6.574 6.574 0 0 0-2.546.02c-1.935.386-3.388 1.28-4.358 2.687-.97 1.403-1.26 3.087-.868 5.048.193.967.526 1.812.996 2.534a6.043 6.043 0 0 0 1.718 1.757c.674.45 1.435.748 2.278.89.846.145 1.738.123 2.68-.065 1.098-.218 2.057-.627 2.875-1.226s1.55-1.26 2.194-1.99l2.463 2.528a11.428 11.428 0 0 1-3.252 2.914 12.498 12.498 0 0 1-3.974 1.55c-1.516.302-2.966.36-4.35.173-1.383-.186-2.64-.614-3.765-1.287-1.127-.67-2.084-1.583-2.87-2.73-.787-1.148-1.34-2.52-1.66-4.115zm20.59-22.917l4.55-.91 3.465 17.34.157-.032 6.89-10.636 5.02-1.003-5.902 9.253 10.573 9.84-4.942.987-7.78-7.5-2.95 4.423 1.003 5.02-4.553.91-5.532-27.693zm47.108-.64l3.413-.682.846 2.4.117-.023c.275-.925.68-1.733 1.21-2.423.526-.69 1.34-1.146 2.437-1.365 1.883-.376 3.274.46 4.172 2.512.26-1.007.68-1.884 1.25-2.638.567-.753 1.39-1.236 2.46-1.45 1.36-.27 2.52.047 3.476.957.957.91 1.63 2.332 2.016 4.27l2.727 13.65-4.276.852-2.656-13.298c-.34-1.7-1.046-2.443-2.118-2.23-.523.105-.94.393-1.255.864-.314.47-.574 1.147-.777 2.03l2.688 13.455-3.53.705-2.656-13.298c-.34-1.7-1.06-2.44-2.157-2.22a1.79 1.79 0 0 0-1.216.855c-.29.465-.535 1.14-.738 2.024l2.687 13.454-4.276.854-3.85-19.26zm30.614 18.278c.27 0 .55-.03.84-.087 1.228-.243 2.146-.75 2.756-1.507.61-.76 1.014-1.665 1.213-2.71l.23-1.31-12.432-17.3 4.512-.9 5.85 8.66a47.93 47.93 0 0 1 1.608 2.534c.532.9 1.08 1.797 1.64 2.692l.155-.03c.103-.975.23-1.98.375-3.014s.286-2.042.416-3.02l1.605-10.15 4.276-.854-4.02 21.73c-.2 1.182-.47 2.255-.805 3.22a9.666 9.666 0 0 1-1.343 2.573 7.304 7.304 0 0 1-2.072 1.882c-.822.505-1.81.872-2.96 1.102a11.34 11.34 0 0 1-1.51.2 6.403 6.403 0 0 1-1.314-.045l.157-3.702c.276.024.55.037.824.038zm39.99-32.382l3.413-.682.846 2.4.117-.023c.277-.923.68-1.73 1.21-2.42.527-.69 1.34-1.147 2.44-1.366 1.882-.376 3.273.46 4.17 2.512.263-1.005.68-1.882 1.25-2.636.57-.755 1.39-1.237 2.463-1.452 1.36-.27 2.52.048 3.475.958.96.91 1.63 2.333 2.018 4.27l2.727 13.65-4.275.853-2.657-13.3c-.34-1.7-1.045-2.44-2.117-2.228-.523.104-.94.392-1.256.863-.314.47-.572 1.148-.776 2.032l2.688 13.454-3.53.706-2.656-13.298c-.34-1.7-1.06-2.44-2.157-2.222a1.79 1.79 0 0 0-1.218.855c-.288.466-.533 1.14-.738 2.025l2.688 13.454-4.275.854-3.85-19.26zm27.25 9.2c-.215-1.07-.156-2.07.177-2.993.332-.923.977-1.78 1.934-2.57.957-.788 2.236-1.534 3.837-2.234 1.6-.7 3.574-1.37 5.924-2-.3-1.084-.873-1.907-1.72-2.474-.847-.564-2.055-.69-3.625-.377a9.173 9.173 0 0 0-3.114 1.254c-.98.617-1.91 1.3-2.792 2.047l-2.252-2.69c1.04-.915 2.265-1.8 3.672-2.65s2.934-1.442 4.58-1.77c2.694-.54 4.89-.237 6.587.905 1.697 1.145 2.813 3.062 3.353 5.756l2.28 11.416-3.688.736-.83-2.323-.118.022c-.864.99-1.86 1.888-2.99 2.698a9.357 9.357 0 0 1-3.654 1.61c-.94.187-1.834.222-2.673.103a6.305 6.305 0 0 1-2.27-.75 5.187 5.187 0 0 1-1.69-1.518c-.454-.628-.763-1.362-.93-2.2zm4.283-1.223c.173.863.63 1.423 1.375 1.683.746.26 1.603.292 2.57.1s1.858-.596 2.675-1.208 1.598-1.36 2.347-2.243l-.814-4.08c-1.7.477-3.104.94-4.21 1.393-1.107.452-1.965.917-2.578 1.392-.612.476-1.02.958-1.22 1.447a2.56 2.56 0 0 0-.145 1.516zM307.23 49.2l12.865-2.57 3.847 19.26-4.512.902-3.134-15.69-8.354 1.67-.713-3.57zm9.6-5.426c-.914.183-1.735.06-2.458-.365-.725-.43-1.18-1.1-1.36-2.015-.184-.914-.023-1.715.478-2.4.502-.684 1.21-1.12 2.126-1.302.94-.188 1.77-.06 2.483.38.71.443 1.16 1.123 1.343 2.037.183.917.028 1.708-.463 2.378-.492.67-1.208 1.098-2.15 1.286zm11.74-7.606l10.59-2.115 4.175 20.907c.262 1.308.772 2.164 1.534 2.57.76.405 1.636.508 2.63.31.94-.19 1.99-.657 3.146-1.404l1.725 3.122c-.852.496-1.655.93-2.41 1.297-.757.37-1.696.666-2.82.89-2.275.455-4.12.143-5.53-.934-1.413-1.077-2.355-2.806-2.83-5.185l-3.417-17.103-6.08 1.215-.715-3.567zm49.975 8.822c-.32-1.596-.336-3.075-.05-4.438.284-1.362.785-2.563 1.502-3.604a9.312 9.312 0 0 1 2.704-2.6 10.165 10.165 0 0 1 3.51-1.415 10.183 10.183 0 0 1 3.787-.042 9.338 9.338 0 0 1 3.494 1.364c1.063.686 1.986 1.602 2.773 2.75.787 1.15 1.34 2.52 1.66 4.116.317 1.595.333 3.073.048 4.434-.284 1.363-.786 2.565-1.502 3.605a9.12 9.12 0 0 1-2.707 2.58 10.42 10.42 0 0 1-3.513 1.395 10.44 10.44 0 0 1-3.78.06 9.088 9.088 0 0 1-3.492-1.34c-1.062-.686-1.985-1.603-2.77-2.75-.79-1.15-1.34-2.52-1.66-4.117zm4.666-.933c.39 1.936 1.143 3.396 2.265 4.382 1.12.983 2.468 1.32 4.036 1.006 1.57-.313 2.683-1.14 3.34-2.482.655-1.34.792-2.98.405-4.915-.393-1.96-1.15-3.437-2.27-4.42-1.122-.988-2.468-1.325-4.036-1.01-1.57.312-2.684 1.14-3.34 2.482-.657 1.34-.79 2.993-.398 4.954zm18.08-13.645l3.726-.745.934 2.832.156-.033a15.993 15.993 0 0 1 2.566-2.98c.977-.89 2.212-1.482 3.702-1.78 2.223-.443 3.992-.097 5.307 1.042 1.316 1.137 2.227 2.96 2.728 5.47l2.382 11.926-4.552.91-2.265-11.337c-.312-1.57-.81-2.66-1.488-3.273-.68-.61-1.687-.785-3.02-.52-.942.19-1.735.58-2.378 1.17-.645.59-1.32 1.433-2.025 2.524l2.625 13.143-4.55.91-3.847-19.262zm21.417-13.05l10.59-2.115 4.177 20.907c.262 1.308.772 2.164 1.533 2.57.762.405 1.64.508 2.632.31.94-.188 1.99-.655 3.144-1.403l1.725 3.125c-.854.496-1.657.93-2.413 1.297-.757.37-1.695.667-2.82.892-2.274.454-4.12.143-5.53-.935-1.412-1.08-2.355-2.81-2.83-5.188L429.5 19.718l-6.08 1.215-.713-3.57zm31.397 26.892c.27 0 .55-.03.84-.086 1.23-.245 2.147-.75 2.757-1.51.61-.76 1.016-1.664 1.215-2.71l.228-1.31-12.43-17.3 4.512-.902 5.85 8.662c.538.79 1.073 1.635 1.607 2.534.533.9 1.08 1.797 1.64 2.692l.157-.03c.104-.974.23-1.978.376-3.014.146-1.035.286-2.042.416-3.02l1.604-10.15 4.276-.855-4.022 21.73a19.59 19.59 0 0 1-.805 3.22 9.656 9.656 0 0 1-1.342 2.572 7.33 7.33 0 0 1-2.07 1.882c-.824.503-1.812.87-2.962 1.1-.522.104-1.025.17-1.51.2a6.393 6.393 0 0 1-1.313-.044l.157-3.702c.277.026.55.04.824.04zm41.403-32.664l12.866-2.57 3.847 19.26-4.512.902-3.134-15.69-8.354 1.67-.713-3.57zm9.602-5.426c-.917.183-1.738.062-2.46-.365-.726-.43-1.18-1.1-1.36-2.015-.185-.914-.025-1.715.48-2.4.5-.684 1.21-1.12 2.123-1.302.94-.188 1.77-.06 2.482.38.715.443 1.163 1.123 1.346 2.037.184.917.03 1.708-.463 2.378-.49.67-1.207 1.098-2.15 1.286zm13.854.74l3.726-.744.934 2.832.156-.03a15.988 15.988 0 0 1 2.565-2.98c.978-.89 2.213-1.483 3.702-1.78 2.224-.445 3.992-.1 5.308 1.04 1.314 1.138 2.225 2.96 2.726 5.472l2.384 11.925-4.55.907-2.266-11.336c-.312-1.57-.81-2.66-1.488-3.27-.682-.613-1.688-.787-3.022-.52-.94.19-1.734.58-2.378 1.17-.644.59-1.318 1.43-2.024 2.523l2.625 13.142-4.55.91-3.845-19.26zM8.916 148.97l4.55-.908 1.426 7.14.517 3.404a10.132 10.132 0 0 1 2.45-2.428c.955-.667 1.956-1.104 3.002-1.313 1.255-.25 2.412-.244 3.47.02a7.042 7.042 0 0 1 2.863 1.47c.85.714 1.572 1.637 2.165 2.77.595 1.132 1.04 2.442 1.338 3.933.33 1.648.387 3.166.176 4.555-.213 1.39-.63 2.606-1.25 3.654a8.445 8.445 0 0 1-2.336 2.59 7.78 7.78 0 0 1-3.057 1.345c-.913.183-1.913.15-2.994-.097-1.083-.245-2.126-.703-3.13-1.373l-.118.023.03 2.197-3.568.713-5.534-27.695zm9.08 21.763c.835.514 1.66.824 2.47.934.81.11 1.517.105 2.12-.016 1.357-.27 2.384-1.05 3.078-2.346.692-1.295.82-3.04.382-5.237-.387-1.934-1.04-3.366-1.96-4.298-.92-.934-2.166-1.24-3.735-.93-.73.147-1.44.48-2.124.997-.686.52-1.34 1.262-1.96 2.228l1.73 8.67zm36.972-2.165l-3.688.736-.964-2.99-.156.032c-.702 1.257-1.538 2.313-2.508 3.174-.97.86-2.175 1.435-3.612 1.722-2.25.45-4.02.103-5.307-1.04-1.29-1.145-2.185-2.97-2.687-5.48l-2.382-11.925 4.512-.9 2.265 11.335c.315 1.568.81 2.66 1.49 3.27s1.688.784 3.02.52c.915-.184 1.69-.556 2.326-1.118.636-.56 1.277-1.465 1.927-2.71l-2.594-12.982 4.51-.9 3.85 19.256zm6.808-6.948c1.25.54 2.513.906 3.79 1.1 1.276.193 2.66.142 4.15-.156 1.516-.303 2.584-.74 3.203-1.313.62-.57.86-1.196.725-1.876-.135-.68-.707-1.157-1.713-1.433-1.007-.273-2.543-.477-4.608-.607a22.725 22.725 0 0 1-2.84-.332 11.75 11.75 0 0 1-2.51-.72c-.743-.313-1.37-.72-1.876-1.217a3.46 3.46 0 0 1-.98-1.844c-.34-1.7.115-3.233 1.366-4.598 1.25-1.363 3.248-2.32 5.994-2.868 1.568-.313 3.098-.348 4.588-.102 1.49.247 2.798.597 3.922 1.053l-1.52 3.2a12.97 12.97 0 0 0-3.045-.84 9.304 9.304 0 0 0-3.224.093c-1.49.298-2.496.71-3.017 1.235-.52.526-.72 1.09-.6 1.69.067.34.265.62.596.84.33.22.757.393 1.285.518.528.128 1.14.23 1.834.308.695.08 1.454.133 2.275.158 1.182.062 2.26.18 3.23.354.975.173 1.824.417 2.554.733.73.317 1.33.74 1.804 1.272.473.53.788 1.188.945 1.973a4.886 4.886 0 0 1-.124 2.45c-.248.8-.698 1.54-1.35 2.23-.65.687-1.508 1.3-2.57 1.838-1.06.54-2.324.955-3.788 1.247-1.806.36-3.59.417-5.352.17-1.762-.245-3.328-.666-4.698-1.263l1.546-3.287zm19.508-18.336l12.865-2.57 3.846 19.26-4.51.9-3.136-15.69-8.353 1.67-.713-3.57zm9.603-5.427c-.916.183-1.735.062-2.46-.365-.724-.427-1.177-1.097-1.36-2.013-.183-.916-.022-1.717.48-2.4.5-.686 1.21-1.12 2.125-1.304.94-.188 1.77-.06 2.483.382.714.44 1.162 1.12 1.345 2.034.184.916.028 1.707-.463 2.377-.493.67-1.21 1.1-2.15 1.286zm13.853.743l3.727-.745.934 2.832.157-.03a15.972 15.972 0 0 1 2.567-2.98c.978-.89 2.212-1.483 3.702-1.78 2.223-.444 3.99-.1 5.307 1.04 1.315 1.138 2.224 2.96 2.726 5.472l2.38 11.922-4.55.91-2.265-11.336c-.313-1.57-.81-2.66-1.49-3.27s-1.686-.786-3.02-.52c-.94.187-1.734.576-2.377 1.168-.643.59-1.318 1.433-2.024 2.524l2.625 13.14-4.55.91-3.85-19.26zm24.678 5.103c-.313-1.57-.315-3.037-.004-4.404.312-1.37.838-2.583 1.578-3.64s1.66-1.94 2.758-2.633a10.32 10.32 0 0 1 3.53-1.42c1.438-.287 2.76-.312 3.962-.077 1.202.236 2.262.678 3.18 1.324.918.645 1.686 1.492 2.303 2.537.617 1.048 1.06 2.238 1.324 3.57.087.446.152.868.19 1.27.04.4.056.723.052.97l-14.004 2.796c.5 1.693 1.444 2.885 2.834 3.573 1.388.687 2.958.856 4.71.507.994-.198 1.896-.52 2.703-.97s1.607-1.006 2.397-1.682l2.094 2.52a16.1 16.1 0 0 1-3.17 2.305 13.22 13.22 0 0 1-3.915 1.435c-1.464.293-2.882.338-4.254.137-1.373-.202-2.617-.642-3.73-1.315-1.114-.676-2.07-1.578-2.866-2.71-.8-1.135-1.356-2.498-1.674-4.094zm14.302-4.774c-.298-1.49-.925-2.584-1.878-3.277-.954-.692-2.204-.885-3.746-.576a5.562 5.562 0 0 0-3.248 1.912c-.857 1.014-1.262 2.33-1.21 3.953l10.082-2.015zm12.196 3.884c1.25.54 2.513.907 3.79 1.1 1.276.194 2.66.142 4.15-.155 1.516-.306 2.584-.743 3.204-1.316.62-.57.862-1.197.727-1.878-.136-.68-.708-1.157-1.714-1.433-1.007-.273-2.543-.478-4.608-.608a22.746 22.746 0 0 1-2.84-.33c-.93-.168-1.77-.408-2.51-.723-.744-.313-1.37-.72-1.876-1.217a3.454 3.454 0 0 1-.98-1.843c-.34-1.7.113-3.232 1.365-4.598 1.25-1.363 3.248-2.32 5.994-2.87 1.567-.31 3.096-.347 4.587-.1 1.49.246 2.798.597 3.922 1.053l-1.52 3.2a12.92 12.92 0 0 0-3.046-.84 9.303 9.303 0 0 0-3.224.092c-1.49.297-2.495.71-3.016 1.234-.52.526-.72 1.09-.6 1.69.067.34.266.62.596.84.33.22.757.393 1.286.518.528.126 1.14.23 1.835.307.697.08 1.455.13 2.276.157 1.183.062 2.26.18 3.233.354.972.173 1.82.417 2.55.733.73.317 1.33.742 1.806 1.273.473.53.788 1.187.944 1.973a4.876 4.876 0 0 1-.123 2.45c-.248.8-.698 1.54-1.35 2.227-.65.688-1.51 1.3-2.57 1.84-1.06.538-2.324.954-3.788 1.246a15.88 15.88 0 0 1-5.354.17c-1.76-.244-3.328-.666-4.697-1.263l1.545-3.286zm23.534-4.7c1.25.54 2.513.906 3.79 1.1 1.276.193 2.66.14 4.15-.156 1.516-.304 2.584-.74 3.203-1.314.62-.57.862-1.197.727-1.878-.136-.68-.707-1.157-1.713-1.433-1.007-.273-2.543-.478-4.608-.608a22.762 22.762 0 0 1-2.843-.33 11.71 11.71 0 0 1-2.51-.723c-.742-.313-1.368-.72-1.875-1.217a3.454 3.454 0 0 1-.98-1.843c-.34-1.7.115-3.232 1.367-4.598 1.25-1.363 3.247-2.32 5.993-2.87 1.568-.31 3.097-.347 4.588-.1 1.49.246 2.8.597 3.923 1.053l-1.52 3.2a12.92 12.92 0 0 0-3.045-.84 9.303 9.303 0 0 0-3.225.092c-1.49.296-2.497.707-3.017 1.233s-.72 1.09-.6 1.69c.067.34.265.62.596.84.33.22.757.393 1.286.518.528.127 1.14.23 1.834.308.696.078 1.455.13 2.275.157 1.182.062 2.26.18 3.23.354.975.172 1.824.416 2.554.732.73.317 1.33.742 1.806 1.273.472.53.787 1.187.944 1.973a4.887 4.887 0 0 1-.123 2.45c-.247.798-.697 1.54-1.35 2.227-.65.688-1.507 1.3-2.568 1.84-1.063.538-2.326.954-3.79 1.246-1.805.36-3.59.42-5.35.17-1.763-.243-3.33-.665-4.7-1.262l1.547-3.287zm43.754-13.144c-.313-1.57-.36-3.03-.14-4.378.22-1.35.64-2.536 1.267-3.558a8.774 8.774 0 0 1 2.328-2.546 7.66 7.66 0 0 1 3.037-1.34c1.15-.23 2.18-.225 3.083.016.904.242 1.82.637 2.745 1.187l-.847-3.216-1.395-6.98 4.55-.91 5.533 27.692-3.727.744-.8-2.165-.117.023a10.898 10.898 0 0 1-2.264 2.45 6.917 6.917 0 0 1-3.003 1.416c-1.23.245-2.398.24-3.51-.013a7.34 7.34 0 0 1-3.005-1.46c-.89-.72-1.656-1.66-2.297-2.822-.637-1.164-1.117-2.543-1.435-4.138zm4.66-.973c.418 2.092 1.14 3.6 2.168 4.52 1.027.926 2.286 1.237 3.776.94 1.596-.32 2.893-1.38 3.892-3.184l-1.73-8.67c-.812-.517-1.582-.84-2.315-.965a5.897 5.897 0 0 0-2.157.022 4.358 4.358 0 0 0-1.815.812 4.8 4.8 0 0 0-1.303 1.545c-.338.627-.56 1.356-.663 2.193-.107.84-.057 1.767.147 2.787zm20.466.563c-.215-1.072-.156-2.07.177-2.993s.977-1.78 1.935-2.57c.956-.788 2.236-1.533 3.837-2.233 1.6-.7 3.57-1.367 5.92-1.998-.297-1.083-.87-1.907-1.716-2.474-.848-.563-2.056-.69-3.625-.376a9.18 9.18 0 0 0-3.116 1.254c-.98.617-1.91 1.3-2.793 2.046l-2.25-2.69c1.04-.915 2.266-1.798 3.67-2.65a14.112 14.112 0 0 1 4.584-1.77c2.693-.54 4.89-.237 6.585.905 1.697 1.146 2.813 3.064 3.352 5.758l2.28 11.414-3.687.737-.832-2.323-.117.023a17.43 17.43 0 0 1-2.99 2.7 9.365 9.365 0 0 1-3.654 1.606c-.94.188-1.833.223-2.672.104a6.323 6.323 0 0 1-2.27-.748 5.21 5.21 0 0 1-1.69-1.52c-.453-.63-.763-1.364-.93-2.2zm4.283-1.224c.173.863.63 1.424 1.375 1.683.747.257 1.603.29 2.57.097a6.537 6.537 0 0 0 2.675-1.208c.816-.61 1.6-1.358 2.347-2.243l-.814-4.08c-1.7.478-3.104.94-4.21 1.393s-1.965.918-2.576 1.393c-.614.476-1.02.958-1.22 1.447a2.57 2.57 0 0 0-.147 1.516zm22.617 5.6c.27 0 .55-.03.838-.087 1.23-.247 2.147-.75 2.758-1.51.61-.764 1.013-1.666 1.212-2.71l.23-1.313-12.432-17.3 4.512-.9 5.85 8.66c.538.79 1.073 1.636 1.607 2.535.534.9 1.08 1.797 1.64 2.69l.156-.03c.107-.973.23-1.977.38-3.013.146-1.036.285-2.043.416-3.02L284 102.79l4.275-.856-4.02 21.73a19.654 19.654 0 0 1-.806 3.218 9.663 9.663 0 0 1-1.344 2.574 7.318 7.318 0 0 1-2.072 1.882c-.823.503-1.81.87-2.96 1.1-.524.105-1.026.172-1.51.2a6.545 6.545 0 0 1-1.315-.043l.156-3.702c.276.027.55.04.824.04zm21.894-14.33c1.25.54 2.513.907 3.79 1.1 1.275.194 2.658.143 4.15-.155 1.516-.3 2.584-.74 3.203-1.31.62-.573.862-1.2.727-1.88-.136-.68-.707-1.156-1.713-1.43-1.005-.276-2.54-.48-4.607-.61a22.77 22.77 0 0 1-2.84-.33 11.71 11.71 0 0 1-2.51-.723c-.742-.314-1.368-.72-1.875-1.217a3.46 3.46 0 0 1-.98-1.844c-.34-1.7.115-3.232 1.367-4.597 1.25-1.366 3.247-2.323 5.994-2.87 1.567-.314 3.096-.35 4.587-.103 1.49.247 2.798.597 3.922 1.053l-1.52 3.2a12.97 12.97 0 0 0-3.046-.84 9.28 9.28 0 0 0-3.224.094c-1.492.298-2.498.71-3.02 1.235-.52.523-.72 1.087-.6 1.687.07.34.267.62.597.84s.758.393 1.286.518c.53.126 1.14.23 1.835.307.696.08 1.455.132 2.275.158 1.183.063 2.26.18 3.232.355.974.172 1.823.417 2.553.733.73.317 1.33.74 1.805 1.272.473.53.788 1.187.945 1.973a4.887 4.887 0 0 1-.123 2.45c-.248.8-.698 1.54-1.35 2.23s-1.508 1.3-2.57 1.838-2.324.956-3.788 1.25a15.9 15.9 0 0 1-5.352.17c-1.76-.246-3.33-.667-4.697-1.265l1.546-3.288zm45.346-8.853c-.215-1.07-.156-2.07.176-2.99.333-.925.978-1.78 1.935-2.57.96-.79 2.238-1.535 3.84-2.234 1.6-.703 3.573-1.37 5.923-2-.298-1.084-.87-1.908-1.718-2.474-.847-.564-2.055-.69-3.625-.377a9.162 9.162 0 0 0-3.115 1.253c-.98.618-1.91 1.3-2.793 2.046l-2.252-2.69c1.042-.916 2.266-1.8 3.673-2.65a14.112 14.112 0 0 1 4.582-1.773c2.693-.538 4.89-.236 6.585.907 1.698 1.144 2.814 3.062 3.353 5.755l2.28 11.413-3.687.737-.832-2.32-.118.022a17.315 17.315 0 0 1-2.99 2.698 9.332 9.332 0 0 1-3.654 1.607c-.94.188-1.832.223-2.67.104a6.337 6.337 0 0 1-2.272-.747 5.207 5.207 0 0 1-1.69-1.52c-.455-.628-.763-1.36-.93-2.2zm4.282-1.222c.173.865.632 1.425 1.377 1.685.744.258 1.6.29 2.567.098a6.537 6.537 0 0 0 2.675-1.208c.816-.61 1.6-1.358 2.348-2.242l-.814-4.08c-1.7.477-3.104.94-4.21 1.393-1.106.45-1.965.916-2.577 1.39-.615.477-1.02.96-1.22 1.448a2.56 2.56 0 0 0-.15 1.518zm16.87-17.645l3.726-.745.934 2.832.156-.03a16.068 16.068 0 0 1 2.566-2.98c.978-.89 2.213-1.483 3.703-1.78 2.223-.445 3.992-.1 5.307 1.04 1.314 1.137 2.224 2.96 2.725 5.472l2.38 11.924-4.55.91-2.265-11.336c-.313-1.57-.81-2.66-1.49-3.272-.68-.61-1.686-.785-3.02-.52-.94.19-1.733.578-2.376 1.17-.646.59-1.32 1.432-2.026 2.524l2.625 13.14-4.55.91-3.85-19.26zm24.325 5.175c-.313-1.57-.36-3.028-.14-4.377.22-1.35.64-2.536 1.267-3.558a8.785 8.785 0 0 1 2.326-2.546 7.675 7.675 0 0 1 3.037-1.34c1.15-.23 2.178-.227 3.083.014.904.242 1.82.637 2.745 1.187l-.847-3.217-1.395-6.98 4.55-.91 5.532 27.692-3.727.744-.8-2.166-.117.023a10.83 10.83 0 0 1-2.262 2.45 6.897 6.897 0 0 1-3.002 1.417c-1.23.246-2.398.24-3.51-.013s-2.112-.74-3.005-1.46c-.89-.72-1.656-1.66-2.297-2.823-.637-1.164-1.116-2.543-1.435-4.138zm4.66-.972c.417 2.092 1.14 3.6 2.168 4.522 1.026.924 2.286 1.236 3.776.938 1.598-.32 2.894-1.38 3.894-3.184l-1.73-8.67c-.812-.517-1.583-.84-2.315-.965a5.875 5.875 0 0 0-2.158.02 4.353 4.353 0 0 0-1.814.813 4.78 4.78 0 0 0-1.303 1.545c-.338.625-.56 1.355-.664 2.192s-.057 1.766.147 2.786zM20.793 214.35c-.313-1.57-.36-3.027-.14-4.377.22-1.35.642-2.535 1.27-3.558a8.774 8.774 0 0 1 2.323-2.545 7.67 7.67 0 0 1 3.037-1.34c1.15-.23 2.18-.225 3.084.016.905.242 1.82.637 2.745 1.186l-.847-3.217-1.396-6.98 4.55-.91 5.53 27.692-3.726.745-.8-2.165-.117.023a10.88 10.88 0 0 1-2.264 2.45 6.887 6.887 0 0 1-3 1.416c-1.23.246-2.4.24-3.512-.013a7.325 7.325 0 0 1-3.003-1.46c-.893-.72-1.658-1.66-2.3-2.824-.636-1.166-1.116-2.546-1.435-4.14zm4.66-.97c.418 2.092 1.14 3.6 2.168 4.52 1.03.925 2.29 1.237 3.778.94 1.596-.32 2.893-1.38 3.893-3.185l-1.73-8.67c-.81-.517-1.582-.84-2.313-.965a5.88 5.88 0 0 0-2.158.022 4.36 4.36 0 0 0-1.816.812c-.53.406-.965.92-1.303 1.545s-.56 1.353-.662 2.19c-.108.84-.057 1.767.146 2.79zm38.917 2.26l-3.688.735-.964-2.99-.156.032c-.7 1.257-1.537 2.313-2.507 3.174-.97.86-2.175 1.437-3.612 1.724-2.25.45-4.02.102-5.308-1.04-1.29-1.145-2.185-2.97-2.686-5.48l-2.384-11.925 4.512-.9 2.263 11.334c.314 1.568.81 2.66 1.49 3.27s1.69.784 3.02.52c.915-.184 1.69-.556 2.327-1.118.635-.56 1.277-1.465 1.926-2.71l-2.594-12.982 4.51-.9 3.85 19.256zm4.585-20.945l3.727-.744 1.263 4.277.116-.023c.683-1.767 1.64-3.202 2.875-4.308 1.234-1.103 2.688-1.82 4.362-2.155.784-.156 1.47-.23 2.056-.227a7.212 7.212 0 0 1 1.827.268l-.183 3.994a13.445 13.445 0 0 0-1.757-.118c-.502.006-1.12.082-1.85.228-1.335.267-2.54.9-3.618 1.905s-1.925 2.545-2.543 4.626l2.12 10.63-4.55.91-3.846-19.26zm21.733-4.34l12.865-2.57 3.847 19.26-4.51.9-3.135-15.69-8.354 1.67-.71-3.57zm9.6-5.427c-.915.183-1.734.062-2.458-.365-.725-.427-1.178-1.097-1.36-2.013-.183-.914-.023-1.715.48-2.4.5-.685 1.21-1.12 2.126-1.302.94-.188 1.768-.06 2.482.382.714.44 1.163 1.12 1.346 2.035.183.916.028 1.707-.464 2.377-.494.67-1.21 1.097-2.15 1.286zm13.855.742l3.727-.745.934 2.832.155-.03a15.972 15.972 0 0 1 2.565-2.98c.978-.89 2.212-1.484 3.702-1.782 2.223-.443 3.992-.097 5.308 1.042 1.314 1.138 2.223 2.96 2.725 5.472l2.383 11.922-4.55.91-2.266-11.336c-.313-1.57-.81-2.66-1.49-3.27s-1.686-.786-3.02-.52c-.94.187-1.733.576-2.376 1.167-.642.592-1.317 1.434-2.023 2.525l2.625 13.14-4.55.91-3.847-19.26zm27.27 18.087c-.15-.76-.036-1.543.347-2.353.383-.81 1.017-1.577 1.906-2.298l-.03-.157a4.385 4.385 0 0 1-1.616-.944c-.497-.444-.826-1.07-.988-1.883-.13-.653-.05-1.343.24-2.067.29-.724.738-1.404 1.346-2.042l-.032-.158c-.773-.334-1.486-.87-2.138-1.61-.65-.74-1.09-1.687-1.32-2.838-.22-1.1-.2-2.123.06-3.072s.69-1.79 1.29-2.52a7.86 7.86 0 0 1 2.24-1.855 9.877 9.877 0 0 1 2.946-1.08c1.15-.227 2.188-.27 3.114-.13l7.885-1.575.665 3.334-4.51.9a6.29 6.29 0 0 1 1.187 1.253c.374.51.63 1.104.765 1.784.215 1.072.207 2.053-.024 2.942a5.86 5.86 0 0 1-1.22 2.363c-.583.688-1.318 1.263-2.205 1.725-.885.463-1.864.8-2.936 1.015a9.22 9.22 0 0 1-3.044.078c-.686.655-.96 1.32-.824 2 .246 1.23 1.583 1.6 4.016 1.115l3.923-.783c2.51-.5 4.473-.512 5.888-.034 1.415.48 2.29 1.555 2.623 3.23.188.94.104 1.882-.25 2.824-.358.94-.952 1.814-1.783 2.62-.83.805-1.898 1.52-3.2 2.148-1.303.627-2.805 1.11-4.504 1.45-1.336.266-2.56.4-3.674.407-1.114.004-2.1-.133-2.957-.41-.858-.276-1.56-.693-2.106-1.25-.55-.56-.908-1.27-1.08-2.133zm6.405-14.088a3.79 3.79 0 0 0 2.39-1.52c.6-.81.775-1.833.53-3.06-.235-1.18-.79-2.04-1.66-2.588-.87-.546-1.802-.72-2.796-.52a3.64 3.64 0 0 0-2.36 1.552c-.583.837-.755 1.843-.52 3.02.245 1.23.794 2.105 1.647 2.63.85.52 1.773.683 2.767.484zm-2.756 12.745c.172.863.784 1.448 1.84 1.754 1.053.305 2.48.28 4.285-.08.94-.19 1.774-.445 2.5-.767.723-.322 1.332-.68 1.823-1.078.492-.397.843-.815 1.056-1.25.212-.437.276-.865.193-1.283-.154-.76-.58-1.196-1.284-1.313-.704-.12-1.698-.05-2.98.204l-3.06.61a20.44 20.44 0 0 1-1.678.275 5.097 5.097 0 0 1-1.326 0c-.597.553-.998 1.07-1.2 1.544-.205.477-.26.937-.172 1.38zm40.474-20.973c-.318-1.596-.335-3.074-.05-4.438.285-1.36.786-2.562 1.504-3.604a9.324 9.324 0 0 1 2.703-2.6 10.154 10.154 0 0 1 3.51-1.416 10.142 10.142 0 0 1 3.785-.04 9.352 9.352 0 0 1 3.495 1.36c1.06.686 1.984 1.602 2.77 2.75.79 1.148 1.34 2.52 1.66 4.115.318 1.593.335 3.072.05 4.433-.286 1.363-.787 2.564-1.503 3.604a9.1 9.1 0 0 1-2.708 2.58 10.438 10.438 0 0 1-3.515 1.397 10.44 10.44 0 0 1-3.78.06 9.09 9.09 0 0 1-3.49-1.34c-1.062-.687-1.986-1.604-2.772-2.752-.787-1.144-1.34-2.517-1.66-4.11zm4.668-.932c.387 1.936 1.14 3.396 2.263 4.382 1.12.985 2.467 1.32 4.035 1.008 1.568-.313 2.683-1.14 3.34-2.48.655-1.342.79-2.98.404-4.916-.392-1.96-1.148-3.435-2.27-4.42-1.122-.987-2.47-1.323-4.037-1.01-1.57.312-2.684 1.14-3.34 2.482-.656 1.34-.79 2.992-.397 4.954zm35.848-21.888a11.38 11.38 0 0 0-2.186-.215c-.69.002-1.432.082-2.216.238-1.49.298-2.497.873-3.02 1.725-.524.853-.65 1.96-.378 3.318l.228 1.14 7.334-1.467.714 3.57-7.335 1.466 3.134 15.69-4.472.893-3.134-15.69-5.333 1.065-.674-3.373 5.295-1.26-.21-1.06a10.315 10.315 0 0 1-.157-3.232c.12-1.03.445-1.96.974-2.785.53-.826 1.27-1.538 2.225-2.137s2.14-1.04 3.55-1.32a16.403 16.403 0 0 1 3.055-.326 15.51 15.51 0 0 1 2.884.24l-.277 3.522zm23.535-4.702a11.388 11.388 0 0 0-2.186-.214c-.69.002-1.43.08-2.214.238-1.49.297-2.497.873-3.02 1.725-.524.85-.65 1.956-.378 3.316l.228 1.138 7.334-1.465.713 3.57-7.335 1.463 3.134 15.69-4.472.893-3.134-15.69-5.335 1.066-.672-3.374 5.295-1.262-.21-1.06a10.315 10.315 0 0 1-.157-3.23c.12-1.032.444-1.96.973-2.786.53-.826 1.27-1.54 2.224-2.138.954-.598 2.14-1.038 3.55-1.32a16.322 16.322 0 0 1 3.056-.326 15.68 15.68 0 0 1 2.883.24l-.276 3.523zm5.843 3.525l12.865-2.57 3.848 19.26-4.512.9-3.132-15.69-8.354 1.67-.713-3.57zm9.602-5.426c-.916.182-1.735.06-2.46-.367-.725-.427-1.177-1.097-1.36-2.013-.183-.913-.023-1.714.48-2.398.502-.686 1.21-1.12 2.127-1.303.94-.19 1.766-.063 2.48.38.714.442 1.162 1.12 1.345 2.035.183.916.028 1.708-.463 2.378-.494.668-1.21 1.097-2.15 1.285zm15.428 10.46c-.318-1.595-.31-3.08.03-4.453.336-1.372.915-2.59 1.737-3.65.82-1.063 1.854-1.955 3.096-2.68a13.065 13.065 0 0 1 4.06-1.524c1.568-.313 3-.327 4.295-.042 1.294.288 2.423.73 3.385 1.325l-1.594 3.255c-.88-.45-1.736-.756-2.57-.916a6.575 6.575 0 0 0-2.546.02c-1.936.387-3.39 1.28-4.358 2.686-.97 1.404-1.26 3.087-.868 5.05.192.966.523 1.81.995 2.532a6.03 6.03 0 0 0 1.718 1.758 5.78 5.78 0 0 0 2.28.89c.845.145 1.737.122 2.68-.065 1.1-.22 2.056-.627 2.875-1.227a13.782 13.782 0 0 0 2.192-1.988l2.463 2.526a11.46 11.46 0 0 1-3.25 2.915 12.468 12.468 0 0 1-3.976 1.55c-1.516.303-2.966.36-4.35.175-1.383-.186-2.64-.615-3.765-1.287-1.13-.673-2.086-1.582-2.87-2.73-.79-1.15-1.34-2.522-1.66-4.118zm23.103-4.616c-.313-1.57-.315-3.037-.003-4.405.31-1.37.836-2.58 1.577-3.64a9.548 9.548 0 0 1 2.76-2.63 10.32 10.32 0 0 1 3.528-1.42c1.438-.29 2.76-.314 3.962-.08 1.202.236 2.263.678 3.182 1.323.914.646 1.683 1.493 2.3 2.54.617 1.044 1.06 2.235 1.324 3.57.09.442.152.864.19 1.265.04.398.058.723.053.968l-14.004 2.798c.502 1.694 1.446 2.886 2.835 3.573 1.387.688 2.957.856 4.71.506a9.298 9.298 0 0 0 2.702-.968 14.535 14.535 0 0 0 2.397-1.682l2.093 2.52a16.122 16.122 0 0 1-3.17 2.305 13.234 13.234 0 0 1-3.914 1.436c-1.466.293-2.884.337-4.258.137-1.373-.2-2.616-.64-3.73-1.314-1.113-.676-2.068-1.578-2.865-2.71-.798-1.135-1.354-2.498-1.674-4.094zm14.302-4.773c-.298-1.49-.924-2.58-1.878-3.273-.954-.693-2.204-.886-3.747-.577a5.56 5.56 0 0 0-3.247 1.91c-.857 1.016-1.262 2.334-1.21 3.955l10.082-2.014zm29.94-22.867l4.55-.91 1.428 7.14.547 4.174a15.195 15.195 0 0 1 2.54-2.914c.98-.875 2.216-1.463 3.706-1.76 2.223-.445 3.992-.098 5.308 1.04 1.313 1.138 2.223 2.962 2.725 5.473l2.38 11.924-4.55.91-2.266-11.336c-.313-1.57-.81-2.66-1.49-3.272-.68-.61-1.686-.785-3.02-.52-.94.19-1.733.578-2.376 1.168-.646.592-1.32 1.435-2.026 2.526l2.625 13.14-4.55.91-5.534-27.693zm26.01 13.607c-.32-1.593-.337-3.072-.05-4.436.284-1.362.784-2.562 1.502-3.604a9.328 9.328 0 0 1 2.704-2.6 10.165 10.165 0 0 1 3.51-1.416 10.162 10.162 0 0 1 3.787-.042 9.355 9.355 0 0 1 3.494 1.362c1.06.686 1.986 1.602 2.773 2.75.787 1.148 1.34 2.52 1.658 4.115.32 1.593.336 3.072.05 4.433-.284 1.363-.786 2.564-1.502 3.605a9.12 9.12 0 0 1-2.707 2.58 10.447 10.447 0 0 1-3.513 1.395 10.47 10.47 0 0 1-3.78.06 9.072 9.072 0 0 1-3.492-1.34c-1.062-.687-1.985-1.603-2.77-2.752-.788-1.143-1.34-2.515-1.66-4.11zm4.666-.93c.39 1.935 1.143 3.395 2.265 4.38 1.12.986 2.468 1.322 4.036 1.01s2.683-1.142 3.34-2.482.79-2.98.404-4.914c-.392-1.963-1.148-3.436-2.27-4.422-1.122-.986-2.468-1.322-4.036-1.01s-2.683 1.142-3.34 2.483c-.654 1.34-.787 2.993-.396 4.954zm38.91 2.22l-3.686.736-.964-2.99-.157.032c-.7 1.256-1.536 2.312-2.507 3.173-.97.86-2.176 1.437-3.613 1.724-2.248.45-4.017.102-5.307-1.04-1.288-1.145-2.185-2.97-2.686-5.48l-2.383-11.925 4.512-.9 2.263 11.334c.313 1.568.81 2.66 1.49 3.27.68.613 1.686.785 3.02.52.915-.184 1.69-.555 2.326-1.118.635-.56 1.277-1.465 1.925-2.71l-2.593-12.982 4.51-.9 3.848 19.257zm4.59-20.944l3.724-.744 1.263 4.275.117-.023c.68-1.767 1.638-3.202 2.872-4.307 1.234-1.103 2.688-1.822 4.362-2.156.784-.155 1.47-.23 2.056-.226a7.222 7.222 0 0 1 1.828.27l-.182 3.99a13.445 13.445 0 0 0-1.757-.117c-.503.006-1.12.082-1.852.228-1.332.267-2.54.9-3.615 1.905s-1.924 2.545-2.542 4.626l2.123 10.63-4.55.91-3.846-19.26zm25.756 9.294c1.25.54 2.512.906 3.788 1.1s2.66.142 4.15-.156c1.516-.303 2.585-.74 3.205-1.313.62-.57.86-1.196.724-1.876s-.707-1.157-1.713-1.433c-1.007-.273-2.542-.477-4.61-.607a22.79 22.79 0 0 1-2.84-.332 11.727 11.727 0 0 1-2.51-.72c-.74-.313-1.365-.72-1.872-1.217a3.447 3.447 0 0 1-.98-1.844c-.34-1.7.113-3.233 1.364-4.598s3.248-2.32 5.995-2.87c1.567-.312 3.097-.346 4.588-.1 1.49.247 2.797.598 3.922 1.053l-1.522 3.2a12.96 12.96 0 0 0-3.043-.84 9.31 9.31 0 0 0-3.225.093c-1.49.298-2.496.71-3.017 1.235-.52.526-.72 1.09-.6 1.69.067.342.266.62.595.84.33.22.758.393 1.287.518.527.128 1.14.23 1.835.308.695.08 1.454.133 2.274.158 1.183.062 2.26.18 3.234.353.972.173 1.823.417 2.552.733.73.317 1.33.74 1.805 1.27.473.532.788 1.19.945 1.975a4.886 4.886 0 0 1-.124 2.45c-.247.8-.697 1.54-1.35 2.23s-1.507 1.3-2.57 1.838c-1.06.54-2.323.955-3.79 1.247-1.8.36-3.586.417-5.35.17-1.76-.245-3.327-.666-4.695-1.263l1.546-3.287zm25.352-22.155l-1.012-4.448 4.472-.893.776 4.495 1.816 12.36-2.98.597-3.072-12.113zm2.45 19.007c-.21-1.046-.05-1.948.48-2.705.527-.76 1.274-1.234 2.243-1.428.97-.195 1.843-.044 2.623.454.777.496 1.272 1.268 1.48 2.313.216 1.073.06 1.994-.466 2.765-.526.77-1.274 1.255-2.24 1.448-.97.194-1.843.035-2.625-.475-.78-.51-1.277-1.3-1.492-2.373zm43.85-23.076c-.23-1.15-.054-2.17.53-3.063.582-.892 1.436-1.45 2.56-1.674s2.127-.04 3.008.56c.882.6 1.438 1.474 1.667 2.625s.053 2.172-.53 3.063c-.584.89-1.438 1.45-2.562 1.674-1.124.225-2.127.037-3.007-.562-.882-.6-1.438-1.476-1.667-2.626zm2.663 13.337c-.227-1.15-.05-2.172.53-3.062.585-.89 1.44-1.45 2.564-1.673 1.124-.225 2.126-.037 3.007.562.883.597 1.44 1.472 1.668 2.624.23 1.15.053 2.172-.53 3.062-.584.892-1.438 1.45-2.56 1.676-1.126.226-2.13.037-3.01-.562-.88-.6-1.437-1.475-1.666-2.625zm22.184 4.257c2.035-2.746 3.375-5.5 4.02-8.268.644-2.767.646-5.745.01-8.935-.638-3.19-1.785-5.94-3.443-8.245-1.654-2.307-3.95-4.337-6.884-6.09l2.095-2.58c3.08 1.668 5.685 3.84 7.81 6.516s3.56 5.883 4.31 9.623c.746 3.74.652 7.255-.28 10.54-.937 3.29-2.505 6.293-4.708 9.018l-2.926-1.577z" fill="#E62F32"/></svg>