<?xml version="1.0" encoding="utf-8"?>
<!-- Generator: Adobe Illustrator 15.1.0, SVG Export Plug-In . SVG Version: 6.00 Build 0)  -->
<!DOCTYPE svg PUBLIC "-//W3C//DTD SVG 1.1//EN" "http://www.w3.org/Graphics/SVG/1.1/DTD/svg11.dtd">
<svg version="1.1" id="Capa_1" xmlns="http://www.w3.org/2000/svg" xmlns:xlink="http://www.w3.org/1999/xlink" x="0px" y="0px"
	 width="552.645px" height="222.967px" viewBox="0 0 552.645 222.967" enable-background="new 0 0 552.645 222.967"
	 xml:space="preserve">
<g>
	<path fill="#E62F32" d="M4.356,125.733l6.196-1.238L6.964,106.53l-6.196,1.238L0,103.923l16.944-3.385l0.768,3.845l-6.197,1.238
		l3.589,17.965l6.197-1.238l0.768,3.845l-16.944,3.385L4.356,125.733z"/>
	<path fill="#E62F32" d="M49.842,110.651c-0.319-1.595-0.31-3.079,0.029-4.453c0.337-1.372,0.917-2.589,1.738-3.651
		c0.82-1.062,1.854-1.955,3.095-2.678c1.242-0.724,2.595-1.232,4.06-1.525c1.568-0.313,3-0.328,4.295-0.042
		c1.294,0.286,2.423,0.727,3.386,1.322l-1.594,3.255c-0.878-0.449-1.735-0.754-2.568-0.914c-0.835-0.16-1.683-0.154-2.546,0.019
		c-1.936,0.387-3.389,1.282-4.359,2.687c-0.97,1.403-1.26,3.087-0.867,5.048c0.192,0.967,0.525,1.812,0.995,2.534
		c0.472,0.721,1.042,1.308,1.718,1.758c0.674,0.45,1.435,0.747,2.278,0.891c0.845,0.144,1.738,0.121,2.68-0.066
		c1.098-0.22,2.057-0.628,2.875-1.228c0.818-0.599,1.55-1.261,2.193-1.989l2.462,2.527c-0.904,1.188-1.988,2.158-3.252,2.915
		c-1.263,0.755-2.588,1.271-3.974,1.548c-1.517,0.303-2.967,0.361-4.35,0.175c-1.384-0.187-2.638-0.614-3.766-1.287
		c-1.128-0.672-2.084-1.583-2.87-2.731C50.713,113.618,50.16,112.247,49.842,110.651z"/>
	<path fill="#E62F32" d="M70.118,87.796l4.55-0.909l1.426,7.139l0.549,4.174c0.711-1.066,1.557-2.038,2.538-2.914
		c0.98-0.875,2.216-1.463,3.706-1.76c2.223-0.444,3.992-0.098,5.308,1.041c1.314,1.138,2.224,2.961,2.725,5.472l2.382,11.925
		l-4.551,0.909l-2.264-11.336c-0.314-1.569-0.81-2.659-1.49-3.271c-0.68-0.612-1.686-0.786-3.02-0.519
		c-0.941,0.188-1.734,0.578-2.377,1.168c-0.644,0.592-1.319,1.434-2.025,2.525l2.625,13.142l-4.55,0.908L70.118,87.796z"/>
	<path fill="#E62F32" d="M96.48,101.334c-0.312-1.569-0.314-3.037-0.003-4.404c0.312-1.368,0.837-2.58,1.577-3.64
		c0.741-1.059,1.66-1.937,2.759-2.631c1.098-0.696,2.274-1.169,3.529-1.419c1.438-0.288,2.759-0.313,3.963-0.078
		c1.202,0.235,2.262,0.677,3.181,1.323c0.917,0.646,1.685,1.493,2.302,2.538c0.617,1.046,1.058,2.236,1.324,3.57
		c0.089,0.444,0.153,0.866,0.192,1.267c0.039,0.399,0.056,0.723,0.051,0.969l-14.004,2.797c0.502,1.694,1.446,2.887,2.836,3.574
		c1.388,0.689,2.957,0.857,4.709,0.508c0.994-0.199,1.896-0.521,2.703-0.969c0.809-0.446,1.607-1.007,2.398-1.682l2.093,2.519
		c-0.915,0.863-1.972,1.632-3.169,2.306c-1.198,0.674-2.503,1.153-3.915,1.435c-1.465,0.293-2.883,0.337-4.256,0.136
		c-1.372-0.202-2.617-0.64-3.73-1.315c-1.114-0.676-2.069-1.578-2.866-2.711C97.356,104.293,96.8,102.93,96.48,101.334z
		 M110.783,96.56c-0.299-1.491-0.925-2.583-1.879-3.276c-0.953-0.692-2.202-0.885-3.745-0.577c-1.308,0.261-2.39,0.899-3.249,1.912
		c-0.857,1.015-1.262,2.333-1.209,3.955L110.783,96.56z"/>
	<path fill="#E62F32" d="M120.445,96.547c-0.318-1.595-0.309-3.079,0.029-4.453c0.338-1.373,0.918-2.589,1.738-3.651
		c0.82-1.062,1.854-1.954,3.096-2.678c1.242-0.725,2.595-1.232,4.06-1.525c1.568-0.313,3-0.328,4.295-0.042
		c1.294,0.286,2.423,0.727,3.386,1.322l-1.594,3.255c-0.879-0.449-1.735-0.754-2.568-0.914c-0.835-0.16-1.683-0.154-2.546,0.018
		c-1.936,0.386-3.389,1.282-4.359,2.687c-0.97,1.403-1.26,3.087-0.868,5.048c0.193,0.967,0.526,1.812,0.996,2.534
		c0.471,0.722,1.042,1.308,1.718,1.758c0.674,0.45,1.435,0.748,2.278,0.891c0.846,0.144,1.738,0.122,2.68-0.066
		c1.098-0.219,2.057-0.628,2.875-1.227s1.55-1.261,2.192-1.989l2.463,2.527c-0.904,1.188-1.989,2.158-3.252,2.914
		c-1.264,0.755-2.588,1.271-3.974,1.549c-1.517,0.303-2.967,0.361-4.35,0.174c-1.384-0.186-2.639-0.614-3.766-1.287
		c-1.127-0.671-2.084-1.583-2.87-2.731C121.317,99.514,120.765,98.143,120.445,96.547z"/>
	<path fill="#E62F32" d="M141.036,73.63l4.551-0.909l3.463,17.338l0.157-0.031l6.89-10.636l5.021-1.003l-5.903,9.255l10.573,9.84
		l-4.942,0.987l-7.78-7.501l-2.95,4.423l1.003,5.021l-4.551,0.909L141.036,73.63z"/>
	<path fill="#E62F32" d="M188.143,72.99l3.413-0.682l0.846,2.4l0.117-0.023c0.277-0.925,0.681-1.733,1.21-2.423
		c0.528-0.69,1.341-1.146,2.439-1.365c1.883-0.376,3.274,0.461,4.172,2.512c0.262-1.005,0.679-1.882,1.249-2.636
		c0.569-0.753,1.391-1.236,2.463-1.45c1.359-0.271,2.52,0.047,3.475,0.957c0.957,0.911,1.629,2.333,2.016,4.269l2.727,13.65
		l-4.275,0.854l-2.656-13.298c-0.339-1.699-1.045-2.443-2.117-2.229c-0.523,0.104-0.941,0.392-1.255,0.863
		c-0.314,0.47-0.574,1.148-0.777,2.032l2.688,13.454l-3.53,0.705l-2.656-13.298c-0.339-1.699-1.059-2.439-2.157-2.22
		c-0.522,0.104-0.928,0.389-1.216,0.855c-0.288,0.465-0.534,1.141-0.737,2.024l2.688,13.454l-4.276,0.854L188.143,72.99z"/>
	<path fill="#E62F32" d="M218.757,91.268c0.271,0,0.551-0.029,0.839-0.087c1.229-0.245,2.147-0.75,2.757-1.509
		c0.61-0.761,1.014-1.665,1.213-2.71l0.229-1.311l-12.431-17.299l4.512-0.901l5.85,8.661c0.539,0.79,1.073,1.635,1.608,2.534
		c0.532,0.901,1.079,1.797,1.639,2.692l0.156-0.031c0.105-0.973,0.23-1.977,0.377-3.012s0.286-2.042,0.416-3.02l1.604-10.15
		l4.276-0.854l-4.021,21.729c-0.199,1.182-0.469,2.255-0.805,3.221c-0.339,0.964-0.786,1.821-1.343,2.572
		c-0.557,0.75-1.248,1.377-2.072,1.882c-0.823,0.505-1.811,0.872-2.961,1.102c-0.523,0.104-1.026,0.17-1.51,0.2
		c-0.483,0.028-0.922,0.015-1.314-0.044l0.157-3.702C218.209,91.254,218.483,91.267,218.757,91.268z"/>
	<path fill="#E62F32" d="M258.747,58.886l3.413-0.682l0.846,2.4l0.117-0.023c0.277-0.925,0.681-1.733,1.209-2.423
		c0.528-0.69,1.342-1.146,2.44-1.365c1.883-0.376,3.274,0.461,4.172,2.512c0.262-1.005,0.679-1.882,1.249-2.636
		c0.569-0.754,1.391-1.236,2.463-1.451c1.359-0.271,2.519,0.048,3.475,0.958c0.957,0.911,1.629,2.333,2.016,4.269l2.727,13.65
		l-4.275,0.854l-2.656-13.298c-0.339-1.699-1.045-2.442-2.117-2.228c-0.523,0.104-0.941,0.392-1.256,0.863
		c-0.314,0.47-0.572,1.148-0.776,2.032l2.688,13.454l-3.53,0.705l-2.656-13.298c-0.339-1.699-1.059-2.44-2.157-2.221
		c-0.522,0.104-0.928,0.39-1.216,0.855c-0.288,0.465-0.533,1.14-0.738,2.024l2.688,13.454l-4.275,0.854L258.747,58.886z"/>
	<path fill="#E62F32" d="M285.996,68.085c-0.214-1.071-0.155-2.069,0.178-2.992c0.332-0.923,0.977-1.779,1.934-2.57
		c0.957-0.788,2.236-1.534,3.837-2.234c1.601-0.7,3.574-1.368,5.924-1.999c-0.299-1.083-0.871-1.906-1.719-2.473
		c-0.846-0.564-2.054-0.69-3.624-0.377c-1.098,0.22-2.136,0.638-3.114,1.255c-0.979,0.617-1.909,1.3-2.793,2.047l-2.251-2.691
		c1.041-0.915,2.265-1.798,3.672-2.65s2.934-1.442,4.581-1.771c2.693-0.538,4.89-0.236,6.586,0.906
		c1.697,1.145,2.813,3.062,3.353,5.756l2.279,11.415l-3.687,0.736l-0.831-2.323l-0.117,0.023c-0.864,0.989-1.86,1.888-2.99,2.698
		c-1.13,0.811-2.348,1.347-3.654,1.608c-0.941,0.188-1.834,0.223-2.673,0.104c-0.839-0.116-1.596-0.366-2.271-0.749
		c-0.675-0.381-1.238-0.888-1.689-1.519C286.473,69.657,286.164,68.923,285.996,68.085z M290.28,66.863
		c0.173,0.863,0.631,1.423,1.375,1.683c0.746,0.259,1.603,0.292,2.569,0.099s1.859-0.595,2.676-1.207s1.598-1.359,2.347-2.243
		l-0.814-4.079c-1.7,0.476-3.104,0.939-4.21,1.392c-1.107,0.452-1.965,0.917-2.578,1.392c-0.612,0.476-1.019,0.958-1.22,1.447
		C290.223,65.834,290.176,66.341,290.28,66.863z"/>
	<path fill="#E62F32" d="M307.229,49.201l12.866-2.57l3.847,19.26l-4.512,0.901l-3.134-15.69l-8.354,1.669L307.229,49.201z
		 M316.831,43.774c-0.915,0.183-1.736,0.061-2.459-0.365c-0.725-0.427-1.179-1.097-1.361-2.013c-0.183-0.914-0.022-1.715,0.479-2.4
		c0.502-0.684,1.211-1.119,2.126-1.302c0.941-0.188,1.769-0.06,2.483,0.381c0.713,0.442,1.162,1.122,1.345,2.036
		c0.183,0.916,0.028,1.707-0.463,2.377C318.488,43.158,317.772,43.586,316.831,43.774z"/>
	<path fill="#E62F32" d="M328.569,36.168l10.59-2.115l4.176,20.907c0.262,1.308,0.772,2.164,1.534,2.569
		c0.761,0.406,1.638,0.509,2.632,0.31c0.94-0.188,1.99-0.656,3.146-1.403l1.725,3.122c-0.853,0.496-1.656,0.93-2.412,1.297
		c-0.756,0.369-1.695,0.666-2.819,0.89c-2.275,0.455-4.12,0.143-5.53-0.934c-1.413-1.079-2.355-2.808-2.831-5.187l-3.416-17.103
		l-6.08,1.214L328.569,36.168z"/>
	<path fill="#E62F32" d="M378.545,44.989c-0.319-1.595-0.336-3.074-0.05-4.437c0.284-1.362,0.785-2.563,1.502-3.604
		c0.716-1.041,1.618-1.908,2.704-2.599c1.085-0.693,2.254-1.165,3.51-1.416c1.255-0.25,2.517-0.265,3.785-0.042
		c1.268,0.222,2.432,0.676,3.494,1.362c1.062,0.686,1.985,1.602,2.772,2.75c0.787,1.149,1.34,2.521,1.659,4.116
		c0.318,1.596,0.334,3.074,0.049,4.435c-0.285,1.363-0.787,2.565-1.503,3.605c-0.718,1.041-1.619,1.9-2.707,2.58
		c-1.088,0.681-2.259,1.146-3.514,1.397c-1.256,0.25-2.516,0.271-3.781,0.061c-1.267-0.21-2.431-0.656-3.491-1.342
		c-1.062-0.685-1.985-1.602-2.771-2.75C379.415,47.957,378.863,46.585,378.545,44.989z M383.211,44.057
		c0.387,1.936,1.141,3.396,2.263,4.382c1.121,0.985,2.468,1.321,4.036,1.008c1.568-0.313,2.682-1.141,3.338-2.482
		c0.656-1.341,0.793-2.979,0.406-4.915c-0.393-1.961-1.149-3.436-2.271-4.421c-1.121-0.986-2.467-1.323-4.035-1.009
		c-1.568,0.313-2.683,1.141-3.339,2.483C382.952,40.444,382.819,42.096,383.211,44.057z"/>
	<path fill="#E62F32" d="M401.29,30.412l3.726-0.745l0.934,2.832l0.156-0.031c0.732-1.098,1.587-2.091,2.566-2.98
		c0.977-0.889,2.212-1.482,3.702-1.779c2.223-0.444,3.992-0.098,5.307,1.041c1.314,1.138,2.225,2.961,2.726,5.472l2.382,11.925
		l-4.551,0.909l-2.265-11.336c-0.312-1.569-0.81-2.659-1.488-3.272c-0.681-0.611-1.687-0.785-3.021-0.519
		c-0.941,0.188-1.734,0.578-2.377,1.168c-0.645,0.592-1.319,1.434-2.025,2.525l2.625,13.142l-4.55,0.909L401.29,30.412z"/>
	<path fill="#E62F32" d="M422.707,17.363l10.591-2.116l4.176,20.907c0.262,1.308,0.772,2.164,1.533,2.57
		c0.762,0.405,1.639,0.508,2.632,0.31c0.941-0.188,1.991-0.655,3.146-1.403l1.725,3.123c-0.853,0.496-1.656,0.93-2.412,1.297
		c-0.757,0.369-1.695,0.666-2.819,0.891c-2.275,0.454-4.12,0.143-5.53-0.935c-1.413-1.079-2.356-2.808-2.832-5.187L429.5,19.718
		l-6.08,1.215L422.707,17.363z"/>
	<path fill="#E62F32" d="M454.104,44.254c0.271,0,0.551-0.029,0.84-0.086c1.229-0.245,2.147-0.75,2.757-1.51
		c0.608-0.761,1.014-1.664,1.213-2.71l0.228-1.311l-12.43-17.3l4.512-0.901l5.85,8.662c0.538,0.789,1.073,1.635,1.607,2.534
		c0.532,0.901,1.079,1.797,1.64,2.692l0.156-0.031c0.105-0.973,0.229-1.977,0.377-3.013c0.146-1.035,0.286-2.042,0.416-3.02
		l1.604-10.151l4.276-0.854l-4.022,21.729c-0.198,1.182-0.468,2.255-0.805,3.22c-0.338,0.964-0.785,1.821-1.342,2.573
		c-0.558,0.75-1.249,1.377-2.072,1.882c-0.823,0.505-1.811,0.872-2.961,1.102c-0.523,0.104-1.026,0.17-1.511,0.2
		c-0.482,0.028-0.922,0.015-1.313-0.044l0.157-3.702C453.557,44.241,453.831,44.254,454.104,44.254z"/>
	<path fill="#E62F32" d="M495.507,11.591l12.866-2.57l3.847,19.26l-4.512,0.901l-3.134-15.69l-8.354,1.669L495.507,11.591z
		 M505.109,6.164c-0.915,0.183-1.736,0.062-2.459-0.365c-0.725-0.427-1.179-1.097-1.361-2.013c-0.183-0.914-0.023-1.715,0.48-2.4
		c0.5-0.684,1.21-1.119,2.125-1.302c0.941-0.188,1.77-0.06,2.482,0.381c0.715,0.442,1.163,1.122,1.346,2.036
		c0.183,0.916,0.028,1.707-0.464,2.377C506.767,5.547,506.051,5.976,505.109,6.164z"/>
	<path fill="#E62F32" d="M518.964,6.905l3.726-0.745l0.934,2.832l0.156-0.031c0.731-1.098,1.587-2.091,2.565-2.98
		c0.978-0.889,2.213-1.482,3.702-1.78c2.224-0.444,3.992-0.098,5.308,1.041c1.314,1.138,2.225,2.961,2.726,5.472l2.382,11.925
		l-4.551,0.909l-2.265-11.336c-0.312-1.569-0.81-2.659-1.488-3.272c-0.681-0.612-1.687-0.786-3.021-0.519
		c-0.941,0.188-1.734,0.578-2.378,1.168c-0.644,0.592-1.318,1.433-2.024,2.525l2.625,13.142l-4.55,0.909L518.964,6.905z"/>
	<path fill="#E62F32" d="M8.916,148.97l4.55-0.908l1.426,7.139l0.517,3.405c0.682-0.952,1.498-1.762,2.452-2.428
		c0.955-0.667,1.956-1.104,3.002-1.313c1.255-0.25,2.412-0.244,3.471,0.021c1.06,0.265,2.014,0.754,2.862,1.468
		c0.851,0.715,1.572,1.638,2.165,2.77c0.594,1.133,1.039,2.443,1.337,3.934c0.329,1.648,0.387,3.166,0.176,4.555
		c-0.213,1.389-0.629,2.606-1.249,3.654c-0.62,1.049-1.399,1.912-2.337,2.589c-0.939,0.678-1.958,1.126-3.057,1.346
		c-0.915,0.183-1.915,0.149-2.996-0.097c-1.083-0.245-2.126-0.703-3.13-1.373l-0.118,0.023l0.031,2.197l-3.569,0.713L8.916,148.97z
		 M17.995,170.733c0.836,0.514,1.66,0.824,2.472,0.934c0.81,0.11,1.516,0.105,2.118-0.016c1.358-0.271,2.385-1.053,3.079-2.348
		c0.692-1.295,0.82-3.04,0.382-5.237c-0.387-1.934-1.04-3.366-1.961-4.298c-0.92-0.933-2.165-1.241-3.734-0.928
		c-0.731,0.146-1.44,0.479-2.126,0.996c-0.686,0.519-1.339,1.262-1.961,2.228L17.995,170.733z"/>
	<path fill="#E62F32" d="M54.968,168.568l-3.688,0.736l-0.964-2.989l-0.156,0.031c-0.702,1.257-1.538,2.313-2.508,3.174
		c-0.971,0.859-2.175,1.435-3.612,1.722c-2.25,0.449-4.019,0.103-5.307-1.041c-1.29-1.144-2.185-2.97-2.687-5.48l-2.382-11.924
		l4.512-0.901l2.265,11.336c0.313,1.568,0.809,2.659,1.488,3.271s1.688,0.783,3.021,0.518c0.914-0.183,1.689-0.555,2.325-1.117
		c0.636-0.561,1.277-1.465,1.927-2.71l-2.594-12.982l4.511-0.901L54.968,168.568z"/>
	<path fill="#E62F32" d="M61.776,161.62c1.251,0.54,2.513,0.906,3.79,1.1c1.276,0.193,2.659,0.142,4.15-0.156
		c1.516-0.303,2.584-0.74,3.203-1.313c0.621-0.571,0.863-1.198,0.727-1.878c-0.135-0.68-0.707-1.157-1.713-1.433
		c-1.007-0.274-2.543-0.478-4.608-0.608c-0.964-0.053-1.909-0.162-2.84-0.332c-0.931-0.166-1.77-0.407-2.511-0.721
		c-0.742-0.313-1.368-0.719-1.875-1.217c-0.507-0.496-0.834-1.111-0.98-1.844c-0.339-1.699,0.116-3.232,1.367-4.597
		c1.25-1.364,3.248-2.32,5.994-2.869c1.568-0.313,3.098-0.348,4.588-0.102c1.49,0.247,2.798,0.597,3.922,1.053l-1.521,3.2
		c-0.979-0.403-1.993-0.684-3.044-0.84c-1.051-0.157-2.126-0.127-3.224,0.093c-1.491,0.298-2.496,0.709-3.017,1.235
		c-0.521,0.525-0.721,1.089-0.601,1.689c0.068,0.341,0.266,0.62,0.597,0.84c0.329,0.22,0.758,0.393,1.286,0.518
		c0.528,0.127,1.14,0.229,1.834,0.307c0.696,0.08,1.455,0.133,2.276,0.158c1.182,0.062,2.259,0.181,3.231,0.354
		c0.974,0.173,1.823,0.417,2.553,0.733c0.729,0.317,1.331,0.741,1.805,1.272c0.473,0.53,0.788,1.188,0.945,1.973
		c0.167,0.838,0.126,1.654-0.123,2.451c-0.248,0.798-0.698,1.54-1.35,2.228c-0.65,0.688-1.508,1.301-2.569,1.839
		c-1.062,0.539-2.325,0.955-3.789,1.247c-1.805,0.36-3.589,0.417-5.351,0.17c-1.762-0.245-3.328-0.666-4.698-1.263L61.776,161.62z"
		/>
	<path fill="#E62F32" d="M81.284,143.284l12.865-2.57l3.848,19.259l-4.511,0.901l-3.135-15.689l-8.354,1.669L81.284,143.284z
		 M90.887,137.857c-0.916,0.183-1.735,0.062-2.459-0.365c-0.725-0.427-1.178-1.097-1.361-2.013c-0.183-0.914-0.022-1.715,0.479-2.4
		c0.502-0.684,1.21-1.119,2.126-1.302c0.941-0.188,1.769-0.06,2.483,0.382c0.714,0.441,1.162,1.121,1.345,2.035
		c0.184,0.916,0.028,1.707-0.463,2.377C92.544,137.241,91.828,137.669,90.887,137.857z"/>
	<path fill="#E62F32" d="M104.74,138.599l3.727-0.744l0.934,2.832l0.155-0.031c0.733-1.099,1.588-2.092,2.567-2.98
		c0.978-0.89,2.212-1.482,3.702-1.78c2.223-0.443,3.991-0.098,5.307,1.041c1.315,1.138,2.224,2.961,2.726,5.472l2.382,11.924
		l-4.551,0.909l-2.265-11.335c-0.313-1.57-0.81-2.659-1.489-3.271s-1.687-0.785-3.021-0.52c-0.941,0.188-1.734,0.577-2.377,1.169
		c-0.643,0.591-1.318,1.433-2.024,2.524l2.625,13.141l-4.55,0.909L104.74,138.599z"/>
	<path fill="#E62F32" d="M129.418,143.703c-0.313-1.569-0.315-3.037-0.004-4.404c0.312-1.368,0.838-2.581,1.578-3.64
		s1.659-1.937,2.758-2.631c1.099-0.696,2.275-1.169,3.53-1.42c1.438-0.287,2.759-0.312,3.962-0.077
		c1.202,0.235,2.262,0.677,3.181,1.323c0.917,0.645,1.685,1.492,2.302,2.537c0.617,1.046,1.059,2.236,1.324,3.57
		c0.089,0.444,0.154,0.866,0.192,1.267c0.039,0.399,0.056,0.724,0.052,0.969l-14.004,2.798c0.502,1.693,1.445,2.885,2.835,3.573
		c1.388,0.688,2.958,0.857,4.71,0.508c0.994-0.198,1.896-0.521,2.703-0.969s1.607-1.007,2.397-1.683l2.094,2.52
		c-0.915,0.863-1.973,1.632-3.169,2.305c-1.199,0.675-2.504,1.153-3.916,1.436c-1.465,0.293-2.883,0.338-4.255,0.137
		c-1.373-0.202-2.617-0.642-3.731-1.315c-1.113-0.676-2.068-1.578-2.865-2.711C130.293,146.662,129.736,145.299,129.418,143.703z
		 M143.72,138.929c-0.298-1.49-0.925-2.582-1.878-3.275c-0.954-0.692-2.204-0.885-3.746-0.576c-1.308,0.261-2.39,0.898-3.248,1.912
		c-0.857,1.015-1.262,2.332-1.209,3.954L143.72,138.929z"/>
	<path fill="#E62F32" d="M155.916,142.814c1.251,0.54,2.513,0.907,3.789,1.1c1.277,0.194,2.66,0.142,4.15-0.155
		c1.517-0.304,2.585-0.741,3.205-1.314c0.62-0.571,0.862-1.197,0.727-1.878c-0.136-0.679-0.708-1.157-1.714-1.433
		c-1.007-0.273-2.543-0.478-4.608-0.608c-0.963-0.052-1.909-0.162-2.84-0.331c-0.931-0.167-1.77-0.407-2.51-0.722
		c-0.744-0.313-1.369-0.719-1.876-1.217c-0.507-0.495-0.834-1.11-0.98-1.843c-0.339-1.699,0.115-3.232,1.367-4.598
		c1.249-1.363,3.248-2.32,5.994-2.869c1.568-0.312,3.097-0.348,4.588-0.101c1.49,0.246,2.798,0.597,3.922,1.053l-1.521,3.2
		c-0.979-0.404-1.993-0.684-3.044-0.84c-1.051-0.158-2.126-0.127-3.224,0.092c-1.491,0.298-2.496,0.709-3.017,1.235
		c-0.521,0.526-0.721,1.09-0.601,1.69c0.068,0.341,0.267,0.62,0.597,0.84c0.329,0.219,0.757,0.393,1.286,0.518
		c0.528,0.126,1.14,0.229,1.835,0.307c0.695,0.079,1.453,0.132,2.274,0.158c1.183,0.062,2.26,0.18,3.233,0.354
		c0.973,0.172,1.822,0.416,2.552,0.732c0.729,0.317,1.331,0.742,1.805,1.273c0.473,0.529,0.788,1.187,0.944,1.973
		c0.168,0.837,0.127,1.653-0.122,2.451c-0.248,0.798-0.698,1.539-1.35,2.227c-0.651,0.688-1.509,1.301-2.569,1.839
		c-1.062,0.539-2.325,0.955-3.789,1.247c-1.805,0.361-3.589,0.418-5.352,0.171c-1.761-0.245-3.328-0.667-4.697-1.264
		L155.916,142.814z"/>
	<path fill="#E62F32" d="M179.45,138.113c1.251,0.54,2.513,0.907,3.79,1.1c1.276,0.194,2.659,0.142,4.149-0.155
		c1.517-0.304,2.585-0.741,3.204-1.314c0.621-0.571,0.862-1.197,0.727-1.878c-0.136-0.679-0.707-1.157-1.713-1.433
		c-1.007-0.273-2.543-0.478-4.608-0.608c-0.964-0.052-1.909-0.162-2.841-0.331c-0.93-0.167-1.769-0.407-2.51-0.722
		c-0.742-0.313-1.368-0.719-1.875-1.217c-0.507-0.495-0.834-1.11-0.98-1.843c-0.339-1.699,0.115-3.232,1.367-4.598
		c1.25-1.363,3.248-2.32,5.994-2.869c1.568-0.312,3.097-0.348,4.588-0.101c1.49,0.246,2.798,0.597,3.922,1.053l-1.521,3.2
		c-0.979-0.404-1.993-0.684-3.044-0.84c-1.051-0.158-2.126-0.127-3.224,0.092c-1.491,0.298-2.497,0.709-3.017,1.235
		c-0.521,0.526-0.721,1.09-0.601,1.69c0.068,0.341,0.266,0.62,0.597,0.84c0.329,0.219,0.757,0.393,1.286,0.518
		c0.528,0.126,1.14,0.229,1.834,0.307c0.696,0.079,1.455,0.132,2.275,0.158c1.183,0.062,2.26,0.18,3.232,0.354
		c0.974,0.172,1.823,0.416,2.553,0.732c0.729,0.317,1.331,0.742,1.805,1.273c0.473,0.529,0.788,1.187,0.945,1.973
		c0.167,0.837,0.126,1.653-0.123,2.451c-0.248,0.798-0.698,1.539-1.35,2.227c-0.651,0.688-1.508,1.301-2.569,1.839
		c-1.062,0.539-2.325,0.955-3.789,1.247c-1.805,0.361-3.589,0.418-5.352,0.171c-1.761-0.245-3.327-0.667-4.697-1.264L179.45,138.113
		z"/>
	<path fill="#E62F32" d="M223.204,124.969c-0.313-1.569-0.36-3.028-0.141-4.377c0.22-1.351,0.642-2.536,1.268-3.558
		c0.625-1.023,1.401-1.871,2.326-2.546c0.926-0.674,1.938-1.12,3.037-1.34c1.15-0.229,2.179-0.225,3.083,0.016
		c0.904,0.242,1.82,0.637,2.745,1.187l-0.847-3.218l-1.395-6.981l4.55-0.909l5.532,27.692l-3.727,0.744l-0.8-2.164l-0.117,0.023
		c-0.607,0.91-1.362,1.726-2.263,2.45c-0.904,0.724-1.904,1.196-3.003,1.416c-1.229,0.245-2.398,0.241-3.509-0.013
		c-1.112-0.254-2.113-0.741-3.006-1.46c-0.891-0.72-1.656-1.661-2.297-2.824C224.002,127.943,223.522,126.564,223.204,124.969z
		 M227.864,123.997c0.418,2.092,1.14,3.6,2.168,4.521c1.027,0.925,2.286,1.236,3.776,0.939c1.596-0.319,2.893-1.379,3.892-3.184
		l-1.731-8.669c-0.811-0.518-1.581-0.84-2.314-0.966c-0.731-0.125-1.451-0.118-2.157,0.022c-0.68,0.136-1.284,0.407-1.815,0.812
		c-0.531,0.407-0.965,0.922-1.303,1.545c-0.338,0.627-0.56,1.356-0.663,2.193C227.61,122.049,227.66,122.977,227.864,123.997z"/>
	<path fill="#E62F32" d="M248.33,124.559c-0.215-1.071-0.156-2.069,0.177-2.992s0.977-1.779,1.935-2.569
		c0.956-0.789,2.236-1.534,3.837-2.234c1.6-0.7,3.573-1.367,5.923-1.998c-0.298-1.083-0.871-1.907-1.717-2.474
		c-0.848-0.563-2.056-0.69-3.625-0.376c-1.099,0.219-2.137,0.638-3.115,1.254c-0.979,0.617-1.909,1.3-2.793,2.046l-2.251-2.69
		c1.042-0.915,2.266-1.798,3.672-2.65c1.407-0.852,2.935-1.442,4.582-1.771c2.693-0.538,4.89-0.236,6.585,0.906
		c1.698,1.144,2.814,3.062,3.353,5.756l2.28,11.414l-3.687,0.736l-0.832-2.322l-0.117,0.023c-0.863,0.989-1.86,1.889-2.989,2.699
		c-1.131,0.811-2.349,1.346-3.655,1.607c-0.941,0.188-1.833,0.223-2.672,0.104c-0.839-0.116-1.596-0.366-2.271-0.748
		c-0.675-0.382-1.237-0.889-1.689-1.52C248.807,126.13,248.497,125.396,248.33,124.559z M252.613,123.336
		c0.173,0.863,0.631,1.424,1.375,1.683c0.747,0.259,1.603,0.292,2.57,0.099c0.967-0.193,1.859-0.595,2.675-1.208
		c0.816-0.61,1.599-1.357,2.347-2.242l-0.814-4.08c-1.7,0.478-3.104,0.94-4.21,1.393s-1.965,0.917-2.576,1.392
		c-0.614,0.476-1.021,0.958-1.221,1.447C252.557,122.308,252.51,122.813,252.613,123.336z"/>
	<path fill="#E62F32" d="M275.229,128.935c0.271,0,0.551-0.028,0.839-0.086c1.229-0.245,2.147-0.75,2.758-1.51
		c0.609-0.762,1.013-1.664,1.212-2.71l0.229-1.311l-12.431-17.3l4.512-0.901l5.851,8.662c0.537,0.789,1.072,1.635,1.606,2.534
		c0.534,0.9,1.079,1.797,1.64,2.691l0.156-0.031c0.105-0.973,0.23-1.977,0.377-3.013c0.147-1.035,0.286-2.042,0.417-3.02
		l1.603-10.151l4.276-0.854l-4.021,21.729c-0.199,1.182-0.468,2.255-0.805,3.219c-0.339,0.966-0.786,1.822-1.343,2.574
		c-0.557,0.75-1.249,1.377-2.072,1.882c-0.823,0.504-1.811,0.872-2.961,1.102c-0.523,0.104-1.025,0.171-1.51,0.2
		c-0.483,0.027-0.923,0.014-1.314-0.044l0.157-3.702C274.681,128.922,274.955,128.935,275.229,128.935z"/>
	<path fill="#E62F32" d="M297.124,114.606c1.251,0.541,2.513,0.907,3.79,1.1c1.275,0.194,2.658,0.143,4.149-0.155
		c1.517-0.303,2.585-0.741,3.204-1.313c0.62-0.572,0.862-1.198,0.727-1.879c-0.136-0.679-0.707-1.156-1.713-1.432
		c-1.007-0.274-2.543-0.478-4.609-0.608c-0.963-0.053-1.908-0.162-2.84-0.332c-0.93-0.166-1.769-0.407-2.51-0.721
		c-0.742-0.314-1.368-0.719-1.875-1.217c-0.507-0.496-0.834-1.111-0.98-1.843c-0.339-1.699,0.115-3.232,1.367-4.597
		c1.25-1.364,3.247-2.321,5.994-2.869c1.568-0.313,3.097-0.348,4.588-0.102c1.49,0.247,2.798,0.597,3.922,1.053l-1.521,3.2
		c-0.979-0.403-1.993-0.684-3.044-0.84c-1.051-0.158-2.126-0.127-3.224,0.093c-1.491,0.298-2.497,0.709-3.018,1.235
		c-0.521,0.525-0.72,1.089-0.6,1.689c0.068,0.341,0.266,0.62,0.596,0.84s0.758,0.393,1.286,0.518
		c0.529,0.126,1.141,0.229,1.835,0.307c0.696,0.08,1.455,0.132,2.275,0.158c1.183,0.062,2.26,0.18,3.232,0.354
		c0.974,0.172,1.823,0.417,2.553,0.733c0.729,0.317,1.331,0.741,1.805,1.272c0.473,0.53,0.788,1.187,0.945,1.973
		c0.167,0.837,0.126,1.654-0.123,2.451c-0.248,0.798-0.698,1.54-1.35,2.228s-1.508,1.301-2.569,1.839s-2.325,0.954-3.789,1.247
		c-1.805,0.36-3.589,0.417-5.352,0.17c-1.761-0.245-3.329-0.666-4.697-1.264L297.124,114.606z"/>
	<path fill="#E62F32" d="M342.469,105.753c-0.214-1.071-0.155-2.069,0.177-2.991c0.333-0.924,0.978-1.78,1.935-2.57
		c0.957-0.788,2.236-1.534,3.838-2.233c1.6-0.701,3.573-1.368,5.923-1.999c-0.298-1.083-0.871-1.907-1.718-2.473
		c-0.847-0.564-2.055-0.69-3.625-0.377c-1.098,0.219-2.137,0.638-3.114,1.254c-0.979,0.618-1.909,1.3-2.793,2.046l-2.252-2.69
		c1.042-0.915,2.266-1.798,3.673-2.651c1.407-0.852,2.935-1.442,4.582-1.771c2.693-0.538,4.889-0.236,6.585,0.907
		c1.698,1.144,2.814,3.062,3.353,5.755l2.28,11.414l-3.687,0.737l-0.832-2.322l-0.118,0.023c-0.862,0.989-1.858,1.888-2.989,2.698
		c-1.129,0.811-2.348,1.347-3.655,1.607c-0.941,0.188-1.832,0.223-2.671,0.104c-0.839-0.117-1.597-0.367-2.271-0.749
		c-0.674-0.381-1.237-0.888-1.689-1.519C342.945,107.324,342.637,106.591,342.469,105.753z M346.752,104.531
		c0.173,0.863,0.632,1.423,1.377,1.683c0.746,0.258,1.602,0.291,2.569,0.098c0.967-0.193,1.859-0.595,2.675-1.208
		c0.816-0.611,1.599-1.358,2.348-2.242l-0.815-4.08c-1.7,0.477-3.104,0.94-4.21,1.393c-1.106,0.451-1.965,0.916-2.577,1.391
		c-0.613,0.476-1.02,0.958-1.22,1.447C346.696,103.502,346.648,104.008,346.752,104.531z"/>
	<path fill="#E62F32" d="M363.622,86.885l3.726-0.745l0.934,2.832l0.156-0.031c0.733-1.098,1.588-2.091,2.566-2.98
		c0.978-0.889,2.213-1.482,3.703-1.78c2.223-0.444,3.992-0.098,5.307,1.041c1.314,1.137,2.224,2.961,2.725,5.472l2.383,11.924
		l-4.551,0.909l-2.265-11.335c-0.313-1.57-0.811-2.659-1.489-3.272c-0.68-0.611-1.687-0.785-3.021-0.519
		c-0.941,0.188-1.733,0.577-2.376,1.168c-0.645,0.591-1.319,1.433-2.025,2.525l2.625,13.141l-4.55,0.909L363.622,86.885z"/>
	<path fill="#E62F32" d="M387.947,92.06c-0.313-1.569-0.36-3.028-0.141-4.377c0.221-1.35,0.642-2.536,1.268-3.558
		c0.625-1.022,1.4-1.87,2.326-2.546c0.926-0.673,1.938-1.12,3.037-1.34c1.149-0.229,2.178-0.225,3.083,0.016
		c0.904,0.242,1.82,0.637,2.745,1.187l-0.847-3.218l-1.395-6.981l4.55-0.909l5.532,27.692l-3.727,0.744l-0.801-2.165l-0.116,0.023
		c-0.607,0.91-1.361,1.726-2.264,2.451c-0.903,0.724-1.903,1.197-3.002,1.416c-1.229,0.246-2.398,0.241-3.51-0.013
		s-2.112-0.741-3.005-1.46c-0.891-0.72-1.657-1.66-2.298-2.824C388.745,95.034,388.266,93.655,387.947,92.06z M392.606,91.088
		c0.418,2.092,1.141,3.6,2.169,4.522c1.026,0.924,2.286,1.236,3.776,0.938c1.596-0.319,2.892-1.379,3.892-3.184l-1.731-8.669
		c-0.811-0.518-1.582-0.84-2.314-0.966c-0.731-0.125-1.451-0.118-2.157,0.023c-0.68,0.136-1.285,0.407-1.815,0.812
		c-0.531,0.407-0.966,0.921-1.303,1.545c-0.338,0.626-0.56,1.356-0.664,2.193S392.402,90.068,392.606,91.088z"/>
	<path fill="#E62F32" d="M20.793,214.351c-0.313-1.57-0.359-3.028-0.14-4.378c0.22-1.349,0.642-2.535,1.269-3.558
		c0.623-1.021,1.399-1.869,2.324-2.545c0.927-0.674,1.938-1.121,3.037-1.341c1.15-0.229,2.18-0.224,3.084,0.017
		c0.905,0.242,1.819,0.637,2.745,1.186l-0.847-3.217l-1.396-6.981l4.55-0.909l5.532,27.692l-3.726,0.745l-0.8-2.165l-0.117,0.023
		c-0.607,0.91-1.362,1.726-2.264,2.45c-0.903,0.725-1.903,1.197-3.001,1.416c-1.229,0.246-2.4,0.24-3.511-0.013
		c-1.111-0.254-2.113-0.741-3.004-1.46c-0.893-0.72-1.658-1.66-2.299-2.824C21.592,217.325,21.112,215.945,20.793,214.351z
		 M25.453,213.38c0.418,2.092,1.141,3.6,2.168,4.521c1.027,0.924,2.287,1.236,3.776,0.938c1.596-0.319,2.893-1.38,3.893-3.184
		l-1.731-8.669c-0.811-0.518-1.582-0.84-2.313-0.966c-0.733-0.126-1.453-0.118-2.158,0.022c-0.681,0.137-1.285,0.407-1.815,0.812
		c-0.531,0.406-0.965,0.92-1.303,1.545s-0.56,1.355-0.663,2.192C25.199,211.431,25.25,212.358,25.453,213.38z"/>
	<path fill="#E62F32" d="M64.37,215.639l-3.688,0.736l-0.964-2.989l-0.156,0.031c-0.701,1.257-1.537,2.313-2.507,3.174
		c-0.971,0.859-2.175,1.435-3.612,1.722c-2.25,0.449-4.019,0.102-5.308-1.041c-1.289-1.144-2.185-2.97-2.686-5.48l-2.382-11.924
		l4.512-0.901l2.264,11.336c0.313,1.568,0.809,2.659,1.488,3.271s1.688,0.783,3.021,0.518c0.914-0.183,1.689-0.555,2.326-1.117
		c0.635-0.561,1.277-1.465,1.926-2.71l-2.594-12.982l4.512-0.901L64.37,215.639z"/>
	<path fill="#E62F32" d="M68.955,194.695l3.727-0.744l1.263,4.275l0.116-0.023c0.681-1.767,1.639-3.202,2.873-4.308
		c1.234-1.103,2.688-1.821,4.362-2.155c0.784-0.157,1.469-0.231,2.056-0.228c0.584,0.006,1.194,0.095,1.827,0.268l-0.182,3.993
		c-0.669-0.083-1.256-0.123-1.757-0.118c-0.502,0.006-1.119,0.082-1.851,0.228c-1.334,0.267-2.54,0.901-3.617,1.905
		s-1.925,2.546-2.543,4.627l2.123,10.631l-4.55,0.908L68.955,194.695z"/>
	<path fill="#E62F32" d="M90.688,190.354l12.865-2.57l3.847,19.259l-4.511,0.901l-3.134-15.689l-8.354,1.669L90.688,190.354z
		 M100.289,184.928c-0.916,0.183-1.735,0.062-2.459-0.365c-0.725-0.427-1.178-1.097-1.36-2.013c-0.183-0.914-0.023-1.715,0.479-2.4
		c0.502-0.685,1.211-1.119,2.127-1.302c0.941-0.188,1.768-0.061,2.482,0.382c0.714,0.441,1.163,1.121,1.346,2.035
		c0.183,0.916,0.028,1.707-0.464,2.377C101.946,184.312,101.23,184.739,100.289,184.928z"/>
	<path fill="#E62F32" d="M114.143,185.669l3.727-0.744l0.934,2.832l0.155-0.031c0.733-1.099,1.588-2.092,2.567-2.98
		c0.978-0.89,2.212-1.483,3.702-1.781c2.223-0.443,3.992-0.097,5.308,1.042c1.314,1.138,2.223,2.961,2.725,5.472l2.382,11.924
		l-4.551,0.909l-2.265-11.335c-0.313-1.57-0.81-2.659-1.489-3.271s-1.687-0.785-3.021-0.52c-0.941,0.188-1.733,0.577-2.376,1.168
		c-0.644,0.592-1.319,1.434-2.025,2.525l2.625,13.141l-4.55,0.909L114.143,185.669z"/>
	<path fill="#E62F32" d="M141.414,203.757c-0.151-0.76-0.037-1.543,0.346-2.353c0.383-0.811,1.017-1.577,1.906-2.298l-0.031-0.157
		c-0.58-0.183-1.119-0.497-1.615-0.942c-0.497-0.444-0.826-1.071-0.988-1.883c-0.131-0.653-0.05-1.343,0.24-2.067
		c0.289-0.724,0.738-1.404,1.346-2.042l-0.032-0.158c-0.773-0.334-1.486-0.871-2.138-1.611c-0.65-0.74-1.09-1.686-1.32-2.837
		c-0.219-1.099-0.199-2.122,0.06-3.071s0.689-1.789,1.291-2.521c0.601-0.732,1.348-1.351,2.239-1.854
		c0.893-0.505,1.873-0.864,2.946-1.079c1.15-0.229,2.188-0.273,3.114-0.132l7.885-1.575l0.665,3.334l-4.511,0.9
		c0.419,0.326,0.814,0.742,1.188,1.253c0.374,0.51,0.629,1.104,0.765,1.784c0.215,1.072,0.207,2.053-0.024,2.942
		c-0.229,0.889-0.637,1.677-1.221,2.364c-0.582,0.688-1.317,1.263-2.204,1.725c-0.887,0.464-1.866,0.802-2.938,1.016
		c-0.968,0.193-1.981,0.221-3.044,0.078c-0.685,0.654-0.959,1.32-0.823,2c0.246,1.23,1.583,1.601,4.016,1.114l3.923-0.783
		c2.51-0.501,4.473-0.512,5.888-0.034c1.415,0.479,2.289,1.555,2.623,3.229c0.188,0.941,0.104,1.883-0.251,2.825
		c-0.357,0.94-0.951,1.814-1.782,2.619c-0.831,0.806-1.898,1.522-3.201,2.149c-1.302,0.627-2.804,1.109-4.503,1.449
		c-1.334,0.267-2.557,0.402-3.672,0.408c-1.114,0.005-2.099-0.132-2.957-0.409c-0.857-0.276-1.56-0.693-2.105-1.251
		C141.945,205.329,141.587,204.62,141.414,203.757z M147.818,189.669c0.994-0.198,1.789-0.704,2.389-1.518
		c0.6-0.812,0.776-1.833,0.53-3.062c-0.234-1.177-0.788-2.038-1.658-2.586c-0.871-0.546-1.803-0.72-2.797-0.521
		c-0.994,0.199-1.781,0.717-2.36,1.553c-0.583,0.837-0.755,1.843-0.521,3.02c0.246,1.229,0.795,2.105,1.648,2.629
		C145.9,189.706,146.824,189.868,147.818,189.669z M145.062,202.416c0.172,0.863,0.784,1.448,1.839,1.754
		c1.054,0.306,2.482,0.279,4.286-0.081c0.941-0.188,1.774-0.443,2.499-0.765c0.724-0.322,1.333-0.681,1.824-1.078
		c0.492-0.397,0.843-0.815,1.056-1.251c0.212-0.436,0.276-0.864,0.193-1.282c-0.152-0.759-0.58-1.196-1.282-1.313
		c-0.704-0.119-1.698-0.051-2.979,0.205l-3.06,0.611c-0.628,0.126-1.188,0.218-1.679,0.274c-0.492,0.058-0.934,0.058-1.325,0.001
		c-0.597,0.553-0.998,1.068-1.201,1.544C145.029,201.512,144.974,201.972,145.062,202.416z"/>
	<path fill="#E62F32" d="M185.536,181.442c-0.318-1.596-0.335-3.074-0.049-4.438c0.284-1.361,0.785-2.562,1.503-3.604
		c0.716-1.041,1.617-1.908,2.703-2.6c1.085-0.693,2.255-1.166,3.51-1.416c1.256-0.251,2.517-0.265,3.785-0.041
		c1.269,0.222,2.433,0.676,3.495,1.361c1.061,0.686,1.984,1.602,2.771,2.749c0.788,1.149,1.34,2.521,1.658,4.116
		c0.319,1.595,0.336,3.074,0.05,4.435c-0.285,1.363-0.786,2.564-1.502,3.604c-0.718,1.041-1.619,1.901-2.708,2.58
		c-1.088,0.68-2.259,1.146-3.515,1.397c-1.254,0.251-2.515,0.27-3.78,0.061c-1.266-0.21-2.43-0.656-3.49-1.342
		c-1.062-0.686-1.986-1.603-2.772-2.751C186.408,184.409,185.855,183.036,185.536,181.442z M190.204,180.51
		c0.387,1.936,1.141,3.396,2.263,4.382c1.121,0.985,2.467,1.32,4.035,1.008c1.568-0.313,2.683-1.141,3.339-2.48
		c0.656-1.342,0.792-2.98,0.405-4.916c-0.392-1.961-1.148-3.435-2.27-4.42c-1.122-0.987-2.469-1.323-4.037-1.01
		c-1.568,0.312-2.682,1.141-3.338,2.482C189.945,176.896,189.812,178.548,190.204,180.51z"/>
	<path fill="#E62F32" d="M226.052,158.622c-0.764-0.146-1.491-0.218-2.186-0.215c-0.691,0.002-1.432,0.082-2.216,0.238
		c-1.49,0.298-2.497,0.873-3.02,1.725c-0.524,0.853-0.649,1.959-0.378,3.318l0.228,1.139l7.334-1.466l0.714,3.569l-7.335,1.465
		l3.134,15.689l-4.472,0.894l-3.134-15.689l-5.335,1.065l-0.674-3.373l5.295-1.262l-0.211-1.06
		c-0.225-1.124-0.276-2.202-0.156-3.231c0.12-1.03,0.444-1.959,0.973-2.785c0.529-0.826,1.271-1.538,2.225-2.137
		s2.139-1.039,3.551-1.321c1.045-0.208,2.064-0.316,3.055-0.325c0.991-0.007,1.953,0.072,2.884,0.241L226.052,158.622z"/>
	<path fill="#E62F32" d="M249.587,153.921c-0.764-0.146-1.492-0.218-2.186-0.215c-0.692,0.002-1.432,0.081-2.216,0.238
		c-1.49,0.297-2.497,0.873-3.021,1.725c-0.523,0.853-0.648,1.958-0.377,3.318l0.228,1.138l7.334-1.465l0.714,3.569l-7.335,1.465
		l3.134,15.689l-4.472,0.894l-3.134-15.689l-5.335,1.065l-0.674-3.374l5.295-1.261l-0.211-1.06
		c-0.225-1.124-0.276-2.202-0.156-3.231c0.12-1.031,0.444-1.959,0.973-2.785c0.529-0.826,1.271-1.539,2.225-2.138
		c0.954-0.598,2.139-1.038,3.551-1.32c1.045-0.209,2.064-0.317,3.055-0.326c0.991-0.006,1.953,0.073,2.884,0.241L249.587,153.921z"
		/>
	<path fill="#E62F32" d="M255.43,157.445l12.865-2.569l3.848,19.258l-4.512,0.901l-3.134-15.689l-8.354,1.669L255.43,157.445z
		 M265.032,152.019c-0.916,0.184-1.735,0.062-2.459-0.365c-0.726-0.427-1.178-1.097-1.36-2.013
		c-0.184-0.914-0.024-1.715,0.479-2.399c0.502-0.686,1.211-1.119,2.127-1.303c0.94-0.188,1.768-0.061,2.482,0.382
		c0.714,0.442,1.162,1.121,1.345,2.035c0.183,0.916,0.028,1.708-0.463,2.378C266.689,151.402,265.973,151.831,265.032,152.019z"/>
	<path fill="#E62F32" d="M280.46,162.479c-0.318-1.594-0.31-3.079,0.029-4.452c0.337-1.372,0.916-2.589,1.738-3.651
		c0.82-1.062,1.854-1.954,3.096-2.678c1.242-0.725,2.594-1.232,4.06-1.525c1.568-0.313,3-0.327,4.295-0.042
		c1.294,0.286,2.423,0.727,3.385,1.323l-1.594,3.255c-0.878-0.449-1.734-0.755-2.568-0.915c-0.834-0.159-1.684-0.153-2.546,0.02
		c-1.936,0.387-3.389,1.281-4.358,2.686c-0.971,1.404-1.26,3.087-0.868,5.049c0.193,0.967,0.524,1.811,0.996,2.533
		c0.471,0.722,1.042,1.309,1.718,1.758c0.674,0.449,1.434,0.748,2.278,0.891c0.845,0.144,1.737,0.121,2.679-0.066
		c1.099-0.22,2.057-0.627,2.876-1.227c0.817-0.598,1.55-1.262,2.192-1.988l2.463,2.526c-0.905,1.188-1.989,2.158-3.252,2.915
		c-1.264,0.755-2.588,1.271-3.975,1.548c-1.516,0.303-2.966,0.36-4.35,0.175c-1.383-0.186-2.639-0.615-3.765-1.287
		c-1.128-0.673-2.084-1.582-2.87-2.731C281.332,165.446,280.779,164.075,280.46,162.479z"/>
	<path fill="#E62F32" d="M303.563,157.864c-0.313-1.57-0.315-3.037-0.003-4.405c0.311-1.367,0.836-2.58,1.577-3.639
		c0.74-1.059,1.659-1.937,2.759-2.631c1.098-0.696,2.274-1.169,3.529-1.42c1.438-0.288,2.759-0.312,3.962-0.077
		c1.202,0.235,2.263,0.677,3.182,1.322c0.916,0.646,1.685,1.493,2.302,2.539c0.617,1.045,1.058,2.236,1.324,3.57
		c0.089,0.443,0.152,0.865,0.191,1.266c0.04,0.399,0.057,0.724,0.052,0.969l-14.004,2.798c0.502,1.694,1.446,2.886,2.835,3.573
		c1.388,0.689,2.958,0.857,4.71,0.507c0.994-0.198,1.895-0.521,2.703-0.968c0.808-0.447,1.607-1.007,2.397-1.682l2.094,2.519
		c-0.915,0.863-1.973,1.632-3.17,2.306c-1.199,0.674-2.502,1.152-3.914,1.435c-1.465,0.293-2.883,0.337-4.257,0.137
		c-1.373-0.202-2.616-0.642-3.729-1.315c-1.114-0.676-2.069-1.578-2.866-2.711C304.439,160.823,303.883,159.46,303.563,157.864z
		 M317.865,153.091c-0.298-1.491-0.924-2.583-1.878-3.275c-0.954-0.693-2.204-0.886-3.747-0.577
		c-1.307,0.261-2.39,0.898-3.247,1.912c-0.857,1.015-1.262,2.333-1.209,3.954L317.865,153.091z"/>
	<path fill="#E62F32" d="M347.806,130.223l4.55-0.909l1.427,7.139l0.547,4.174c0.711-1.066,1.558-2.038,2.54-2.914
		c0.979-0.875,2.216-1.463,3.706-1.761c2.223-0.444,3.992-0.097,5.308,1.042c1.313,1.137,2.223,2.961,2.725,5.472l2.382,11.924
		l-4.551,0.909l-2.265-11.335c-0.313-1.57-0.811-2.659-1.489-3.272c-0.68-0.611-1.687-0.785-3.021-0.519
		c-0.941,0.188-1.733,0.577-2.376,1.167c-0.645,0.592-1.319,1.435-2.025,2.526l2.625,13.141l-4.55,0.909L347.806,130.223z"/>
	<path fill="#E62F32" d="M373.814,143.831c-0.318-1.594-0.336-3.073-0.049-4.437c0.284-1.362,0.784-2.562,1.502-3.604
		c0.716-1.041,1.617-1.907,2.704-2.6c1.085-0.693,2.254-1.165,3.51-1.416c1.255-0.251,2.517-0.265,3.785-0.042
		c1.268,0.223,2.432,0.676,3.494,1.362c1.061,0.686,1.985,1.602,2.772,2.749c0.787,1.149,1.34,2.521,1.658,4.116
		c0.319,1.595,0.335,3.074,0.05,4.435c-0.285,1.363-0.787,2.564-1.503,3.605c-0.718,1.041-1.619,1.9-2.707,2.58
		c-1.088,0.679-2.26,1.146-3.514,1.396c-1.256,0.25-2.516,0.27-3.781,0.061c-1.267-0.209-2.431-0.656-3.491-1.342
		c-1.062-0.686-1.985-1.602-2.771-2.751C374.686,146.799,374.134,145.427,373.814,143.831z M378.481,142.899
		c0.387,1.936,1.141,3.396,2.263,4.382c1.121,0.985,2.468,1.321,4.036,1.008s2.682-1.141,3.338-2.481s0.792-2.979,0.405-4.914
		c-0.392-1.963-1.148-3.436-2.27-4.422c-1.122-0.986-2.468-1.322-4.036-1.009s-2.683,1.141-3.339,2.482
		C378.223,139.286,378.09,140.938,378.481,142.899z"/>
	<path fill="#E62F32" d="M417.391,145.12l-3.687,0.736l-0.964-2.989l-0.157,0.031c-0.7,1.256-1.536,2.312-2.507,3.173
		c-0.971,0.859-2.176,1.435-3.613,1.722c-2.248,0.449-4.017,0.102-5.307-1.041c-1.288-1.144-2.185-2.97-2.686-5.48l-2.383-11.924
		l4.512-0.901l2.265,11.336c0.313,1.568,0.81,2.66,1.489,3.271c0.68,0.612,1.687,0.784,3.021,0.518
		c0.915-0.183,1.69-0.554,2.326-1.117c0.636-0.561,1.278-1.465,1.926-2.71l-2.593-12.982l4.51-0.901L417.391,145.12z"/>
	<path fill="#E62F32" d="M421.979,124.176l3.725-0.744l1.263,4.275l0.117-0.023c0.681-1.767,1.638-3.202,2.872-4.307
		c1.234-1.103,2.688-1.822,4.362-2.156c0.784-0.157,1.47-0.231,2.056-0.228c0.585,0.007,1.194,0.095,1.828,0.269l-0.182,3.992
		c-0.669-0.083-1.256-0.123-1.757-0.118c-0.503,0.006-1.119,0.082-1.852,0.228c-1.334,0.267-2.54,0.901-3.617,1.905
		s-1.924,2.546-2.542,4.627l2.123,10.631l-4.55,0.908L421.979,124.176z"/>
	<path fill="#E62F32" d="M447.736,133.47c1.25,0.54,2.512,0.906,3.788,1.1s2.659,0.142,4.15-0.156
		c1.516-0.303,2.585-0.74,3.205-1.313c0.62-0.571,0.861-1.198,0.726-1.878s-0.707-1.157-1.713-1.433
		c-1.008-0.274-2.543-0.478-4.609-0.608c-0.962-0.053-1.908-0.162-2.84-0.332c-0.93-0.166-1.768-0.407-2.51-0.721
		c-0.743-0.313-1.367-0.719-1.874-1.217c-0.508-0.496-0.835-1.111-0.98-1.844c-0.34-1.699,0.114-3.232,1.365-4.597
		s3.248-2.321,5.995-2.87c1.568-0.313,3.098-0.347,4.589-0.1c1.49,0.246,2.797,0.597,3.922,1.052l-1.522,3.2
		c-0.979-0.403-1.992-0.684-3.043-0.84c-1.052-0.157-2.127-0.127-3.225,0.093c-1.491,0.298-2.496,0.709-3.017,1.235
		c-0.521,0.525-0.72,1.09-0.601,1.689c0.068,0.342,0.267,0.619,0.596,0.84c0.33,0.22,0.758,0.393,1.287,0.518
		c0.527,0.127,1.14,0.229,1.835,0.307c0.695,0.08,1.454,0.133,2.274,0.158c1.182,0.062,2.26,0.181,3.233,0.353
		c0.972,0.174,1.823,0.418,2.552,0.734c0.73,0.317,1.332,0.741,1.806,1.271c0.472,0.531,0.787,1.188,0.944,1.974
		c0.167,0.838,0.126,1.654-0.123,2.451c-0.248,0.798-0.698,1.54-1.35,2.228s-1.508,1.301-2.569,1.839
		c-1.062,0.539-2.325,0.955-3.79,1.247c-1.803,0.36-3.588,0.417-5.35,0.17c-1.763-0.245-3.329-0.666-4.697-1.263L447.736,133.47z"/>
	<path fill="#E62F32" d="M473.088,111.315l-1.012-4.448l4.472-0.893l0.776,4.495l1.816,12.363l-2.98,0.596L473.088,111.315z
		 M475.538,130.322c-0.209-1.046-0.049-1.948,0.479-2.705c0.528-0.759,1.275-1.234,2.244-1.428c0.967-0.193,1.841-0.042,2.621,0.456
		c0.777,0.496,1.272,1.268,1.481,2.313c0.215,1.073,0.058,1.994-0.467,2.765c-0.526,0.771-1.274,1.255-2.241,1.448
		c-0.969,0.193-1.842,0.034-2.624-0.476C476.251,132.186,475.753,131.396,475.538,130.322z"/>
	<path fill="#E62F32" d="M519.387,107.246c-0.229-1.15-0.053-2.171,0.53-3.063c0.583-0.892,1.437-1.45,2.562-1.674
		s2.127-0.038,3.008,0.562c0.882,0.599,1.438,1.474,1.667,2.625s0.053,2.172-0.53,3.063c-0.584,0.892-1.438,1.45-2.562,1.675
		c-1.125,0.225-2.128,0.037-3.008-0.562C520.172,109.272,519.616,108.396,519.387,107.246z M522.051,120.583
		c-0.229-1.151-0.053-2.172,0.53-3.062c0.583-0.892,1.438-1.45,2.562-1.675c1.124-0.225,2.126-0.037,3.007,0.562
		c0.882,0.598,1.438,1.473,1.667,2.625c0.229,1.15,0.053,2.172-0.53,3.062c-0.584,0.892-1.438,1.451-2.561,1.676
		c-1.125,0.225-2.129,0.036-3.009-0.563C522.836,122.608,522.28,121.733,522.051,120.583z"/>
	<path fill="#E62F32" d="M544.234,124.84c2.035-2.746,3.375-5.501,4.019-8.268c0.645-2.767,0.647-5.745,0.011-8.935
		c-0.638-3.19-1.785-5.939-3.443-8.245c-1.656-2.307-3.952-4.337-6.886-6.09l2.095-2.581c3.08,1.669,5.684,3.841,7.809,6.517
		c2.125,2.676,3.562,5.883,4.309,9.623c0.747,3.739,0.653,7.253-0.28,10.54c-0.936,3.287-2.504,6.291-4.707,9.016L544.234,124.84z"
		/>
</g>
</svg>
