<svg xmlns="http://www.w3.org/2000/svg" width="77.071" height="103.495" viewBox="0 0 77.071 103.495"><path fill="#010202" d="M77.07 33.133c0 4.965-.782 9.49-2.34 13.577-1.56 4.088-3.88 7.592-6.946 10.508-3.078 2.923-6.91 5.186-11.493 6.79-4.584 1.608-9.853 2.41-15.8 2.41H18.54v37.077H0V0h40.58c5.932 0 11.19.802 15.764 2.405 4.573 1.605 8.394 3.85 11.457 6.72 3.07 2.868 5.38 6.35 6.94 10.435 1.555 4.087 2.33 8.612 2.33 13.573zm-18.976.15c0-4.968-1.463-9-4.394-12.118-2.93-3.113-7.567-4.67-13.916-4.67H18.54v33.43h21.244c6.35 0 10.987-1.533 13.916-4.604 2.93-3.063 4.394-7.072 4.394-12.037z"/></svg>