<?xml version="1.0" encoding="utf-8"?>
<!-- Generator: Adobe Illustrator 15.1.0, SVG Export Plug-In . SVG Version: 6.00 Build 0)  -->
<!DOCTYPE svg PUBLIC "-//W3C//DTD SVG 1.1//EN" "http://www.w3.org/Graphics/SVG/1.1/DTD/svg11.dtd">
<svg version="1.1" id="Capa_1" xmlns="http://www.w3.org/2000/svg" xmlns:xlink="http://www.w3.org/1999/xlink" x="0px" y="0px"
	 width="77.071px" height="103.495px" viewBox="0 0 77.071 103.495" enable-background="new 0 0 77.071 103.495"
	 xml:space="preserve">
<path fill="#010202" d="M77.071,33.133c0,4.965-0.783,9.491-2.341,13.577c-1.561,4.088-3.879,7.592-6.946,10.508
	c-3.078,2.923-6.909,5.186-11.493,6.789c-4.586,1.609-9.855,2.412-15.8,2.412H18.539v37.076H0V0h40.58
	c5.932,0,11.19,0.802,15.764,2.405c4.573,1.605,8.394,3.85,11.457,6.72c3.068,2.868,5.378,6.349,6.938,10.435
	C76.294,23.647,77.071,28.172,77.071,33.133z M58.094,33.282c0-4.967-1.463-9-4.394-12.117c-2.929-3.113-7.567-4.67-13.916-4.67
	H18.539v33.43h21.245c6.349,0,10.987-1.533,13.916-4.604C56.631,42.256,58.094,38.247,58.094,33.282z"/>
</svg>
