<?xml version="1.0" encoding="UTF-8"?>
<svg width="1200px" height="900px" viewBox="0 0 1200 900" version="1.1" xmlns="http://www.w3.org/2000/svg" xmlns:xlink="http://www.w3.org/1999/xlink">
    <!-- Generator: Sketch 43.2 (39069) - http://www.bohemiancoding.com/sketch -->
    <title>preview</title>
    <desc>Created with Sketch.</desc>
    <defs></defs>
    <g id="Web" stroke="none" stroke-width="1" fill="none" fill-rule="evenodd">
        <g id="preview">
            <rect id="bg" fill="#000000" x="0" y="0" width="1200" height="900"></rect>
            <g id="Group" transform="translate(100.000000, 110.000000)" fill="#FFFFFF">
                <g id="ellugar_black" transform="translate(300.000000, 0.000000)">
                    <g>
                        <path d="M20,57.8973542 L20,342.102646 C20,363.036406 36.9650335,380 57.8973542,380 L342.102646,380 C363.036406,380 380,363.034967 380,342.102646 L380,57.8973542 C380,36.9635939 363.034967,20 342.102646,20 L57.8973542,20 C36.9635939,20 20,36.9650335 20,57.8973542 Z M0,50.0027628 C0,22.3869994 22.3808569,0 50.0027628,0 L349.997237,0 C377.613001,0 400,22.3808569 400,50.0027628 L400,349.997237 C400,377.613001 377.619143,400 349.997237,400 L50.0027628,400 C22.3869994,400 0,377.619143 0,349.997237 L0,50.0027628 Z" id="Border" fill-rule="nonzero"></path>
                        <circle id="Dot" cx="200" cy="200" r="50"></circle>
                    </g>
                </g>
                <g id="ellugar.co_text_white" transform="translate(0.000000, 450.000000)">
                    <path d="M11.237785,115.326241 C11.237785,105.538958 12.7442846,96.7713153 15.757329,89.0230496 C18.7703734,81.274784 22.7605615,74.7092468 27.728013,69.3262411 C32.6954646,63.9432355 38.3550171,59.8244824 44.7068404,56.9698582 C51.0586637,54.115234 57.6546889,52.6879433 64.495114,52.6879433 C71.9870081,52.6879433 78.705182,53.9928948 84.6498371,56.6028369 C90.5944923,59.212779 95.5618693,62.9645145 99.5521173,67.858156 C103.542365,72.7517975 106.596081,78.6240792 108.713355,85.4751773 C110.830629,92.3262754 111.889251,99.9928654 111.889251,108.475177 C111.889251,112.879455 111.644954,116.549631 111.156352,119.485816 L31.0260586,119.485816 C31.840395,132.372405 35.7898669,142.567338 42.8745928,150.070922 C49.9593188,157.574506 59.2018974,161.326241 70.6026059,161.326241 C76.3029601,161.326241 81.5553506,160.469867 86.3599349,158.757092 C91.1645191,157.044318 95.7654503,154.801432 100.162866,152.028369 L107.247557,165.241135 C102.035805,168.503562 96.2541034,171.358144 89.9022801,173.804965 C83.5504568,176.251785 76.3029723,177.475177 68.1596091,177.475177 C60.1791132,177.475177 52.7280476,176.047887 45.8061889,173.193262 C38.8843302,170.338638 32.8583318,166.260665 27.728013,160.95922 C22.5976942,155.657775 18.5667899,149.173797 15.6351792,141.507092 C12.7035684,133.840387 11.237785,125.113524 11.237785,115.326241 Z M94.2996743,106.27305 C94.2996743,94.0389459 91.7345533,84.7003868 86.6042345,78.2570922 C81.4739157,71.8137976 74.2671474,68.5921986 64.9837134,68.5921986 C60.7491645,68.5921986 56.7182602,69.448573 52.8908795,71.1613475 C49.0634988,72.874122 45.6026213,75.3209061 42.5081433,78.501773 C39.4136653,81.68264 36.8485444,85.5974945 34.8127036,90.2464539 C32.7768628,94.8954133 31.433228,100.237558 30.781759,106.27305 L94.2996743,106.27305 Z M142.019544,0.326241135 L162.052117,0.326241135 L162.052117,152.028369 C162.052117,155.290796 162.622144,157.574462 163.762215,158.879433 C164.902286,160.184404 166.205204,160.836879 167.67101,160.836879 L169.503257,160.836879 C170.073293,160.836879 170.928333,160.67376 172.068404,160.347518 L174.7557,175.51773 C173.452762,176.170216 171.905546,176.659573 170.114007,176.985816 C168.322467,177.312058 166.042359,177.475177 163.273616,177.475177 C155.618854,177.475177 150.162883,175.191512 146.905537,170.624113 C143.648192,166.056715 142.019544,159.368838 142.019544,150.560284 L142.019544,0.326241135 Z M205.130293,0.326241135 L225.162866,0.326241135 L225.162866,152.028369 C225.162866,155.290796 225.732893,157.574462 226.872964,158.879433 C228.013035,160.184404 229.315954,160.836879 230.781759,160.836879 L232.614007,160.836879 C233.184042,160.836879 234.039082,160.67376 235.179153,160.347518 L237.86645,175.51773 C236.563511,176.170216 235.016296,176.659573 233.224756,176.985816 C231.433216,177.312058 229.153108,177.475177 226.384365,177.475177 C218.729603,177.475177 213.273632,175.191512 210.016287,170.624113 C206.758941,166.056715 205.130293,159.368838 205.130293,150.560284 L205.130293,0.326241135 Z M266.530945,55.6241135 L286.807818,55.6241135 L286.807818,128.294326 C286.807818,139.549702 288.558614,147.664869 292.060261,152.640071 C295.561907,157.615273 301.221459,160.102837 309.039088,160.102837 C315.228044,160.102837 320.684015,158.512427 325.407166,155.33156 C330.130317,152.150693 335.341991,147.053227 341.042345,140.039007 L341.042345,55.6241135 L361.074919,55.6241135 L361.074919,174.539007 L344.462541,174.539007 L342.752443,155.943262 L342.019544,155.943262 C336.482057,162.468118 330.65964,167.687924 324.552117,171.602837 C318.444595,175.51775 311.237827,177.475177 302.931596,177.475177 C290.22795,177.475177 280.985371,173.560323 275.203583,165.730496 C269.421795,157.90067 266.530945,146.319226 266.530945,130.985816 L266.530945,55.6241135 Z M410.504886,194.602837 C410.504886,200.964571 413.558601,206.021258 419.666124,209.77305 C425.773646,213.524841 434.201901,215.400709 444.95114,215.400709 C450.651494,215.400709 455.822452,214.707454 460.464169,213.320922 C465.105886,211.93439 469.055358,210.140082 472.312704,207.937943 C475.570049,205.735805 478.094454,203.166681 479.885993,200.230496 C481.677533,197.294312 482.57329,194.276611 482.57329,191.177305 C482.57329,185.631178 480.53748,181.797883 476.465798,179.677305 C472.394116,177.556727 466.44955,176.496454 458.631922,176.496454 L438.110749,176.496454 C435.830607,176.496454 433.346919,176.374115 430.659609,176.129433 C427.972299,175.884751 425.325746,175.354614 422.71987,174.539007 C418.485321,177.638313 415.390889,180.900692 413.436482,184.326241 C411.482075,187.75179 410.504886,191.177288 410.504886,194.602837 Z M392.915309,197.294326 C392.915309,192.237563 394.462525,187.425555 397.557003,182.858156 C400.651481,178.290757 404.885967,174.131224 410.260586,170.379433 L410.260586,169.400709 C407.328976,167.606374 404.845287,165.11881 402.809446,161.937943 C400.773605,158.757076 399.7557,154.801442 399.7557,150.070922 C399.7557,145.014159 401.140051,140.609948 403.908795,136.858156 C406.677538,133.106364 409.609105,130.170223 412.703583,128.049645 L412.703583,127.070922 C408.794769,123.808494 405.252459,119.445063 402.076547,113.980496 C398.900636,108.51593 397.312704,102.195071 397.312704,95.0177305 C397.312704,88.4928752 398.493474,82.6205935 400.855049,77.4007092 C403.216624,72.180825 406.433204,67.735834 410.504886,64.0656028 C414.576568,60.3953717 419.340364,57.5815701 424.796417,55.6241135 C430.25247,53.6666569 435.993455,52.6879433 442.019544,52.6879433 C445.276889,52.6879433 448.330605,52.9734014 451.180782,53.5443262 C454.030959,54.1152511 456.59608,54.8085066 458.876221,55.6241135 L500.162866,55.6241135 L500.162866,71.0390071 L475.732899,71.0390071 C478.501643,73.8120706 480.822466,77.3191277 482.69544,81.5602837 C484.568413,85.8014396 485.504886,90.4503293 485.504886,95.5070922 C485.504886,101.868826 484.364832,107.618769 482.084691,112.757092 C479.804549,117.895416 476.710117,122.218068 472.801303,125.725177 C468.892489,129.232287 464.291557,131.964529 458.998371,133.921986 C453.705185,135.879442 448.045633,136.858156 442.019544,136.858156 C439.087933,136.858156 436.074934,136.491138 432.980456,135.757092 C429.885978,135.023046 426.954411,134.003553 424.185668,132.698582 C422.068393,134.492917 420.27688,136.491124 418.811075,138.693262 C417.34527,140.895401 416.612378,143.627643 416.612378,146.890071 C416.612378,150.641863 418.078161,153.741123 421.009772,156.187943 C423.941383,158.634764 429.478787,159.858156 437.62215,159.858156 L460.586319,159.858156 C474.430037,159.858156 484.812669,162.101041 491.734528,166.586879 C498.656386,171.072717 502.117264,178.29073 502.117264,188.241135 C502.117264,193.787262 500.732913,199.047847 497.964169,204.02305 C495.195426,208.998252 491.205238,213.361683 485.993485,217.113475 C480.781733,220.865267 474.470721,223.842188 467.060261,226.044326 C459.6498,228.246465 451.302978,229.347518 442.019544,229.347518 C434.690517,229.347518 428.013059,228.654262 421.986971,227.26773 C415.960882,225.881199 410.789924,223.801432 406.473941,221.028369 C402.157959,218.255305 398.81923,214.911367 396.457655,210.996454 C394.096079,207.081541 392.915309,202.51421 392.915309,197.294326 Z M442.019544,123.400709 C445.439757,123.400709 448.656337,122.748233 451.669381,121.443262 C454.682425,120.138291 457.369695,118.262424 459.73127,115.815603 C462.092846,113.368782 463.925075,110.391862 465.228013,106.884752 C466.530951,103.377642 467.18241,99.4220078 467.18241,95.0177305 C467.18241,86.2091758 464.739438,79.3989602 459.85342,74.5868794 C454.967402,69.7747986 449.022836,67.3687943 442.019544,67.3687943 C435.016252,67.3687943 429.071686,69.7747986 424.185668,74.5868794 C419.29965,79.3989602 416.856678,86.2091758 416.856678,95.0177305 C416.856678,99.4220078 417.508137,103.377642 418.811075,106.884752 C420.114013,110.391862 421.946242,113.368782 424.307818,115.815603 C426.669393,118.262424 429.356662,120.138291 432.369707,121.443262 C435.382751,122.748233 438.599331,123.400709 442.019544,123.400709 Z M516.123779,143.70922 C516.123779,130.659509 521.946196,120.668474 533.591205,113.735816 C545.236215,106.803157 563.762088,101.950368 589.169381,99.177305 C589.169381,95.4255132 588.802935,91.7553371 588.070033,88.1666667 C587.33713,84.5779962 586.034211,81.397177 584.161238,78.6241135 C582.288264,75.85105 579.804576,73.6081646 576.710098,71.8953901 C573.61562,70.1826155 569.625432,69.3262411 564.739414,69.3262411 C557.736121,69.3262411 551.262245,70.6311926 545.31759,73.2411348 C539.372934,75.8510769 534.039112,78.7872177 529.315961,82.0496454 L521.254072,68.1028369 C526.791559,64.5141665 533.550449,61.0478891 541.530945,57.7039007 C549.511441,54.3599124 558.306141,52.6879433 567.915309,52.6879433 C582.410496,52.6879433 592.915277,57.1329343 599.429967,66.0230496 C605.944658,74.913165 609.201954,86.7800676 609.201954,101.624113 L609.201954,174.539007 L592.589577,174.539007 L590.879479,160.347518 L590.390879,160.347518 C584.690525,165.078038 578.542378,169.115232 571.946254,172.45922 C565.35013,175.803208 558.387659,177.475177 551.058632,177.475177 C540.960862,177.475177 532.614039,174.539036 526.017915,168.666667 C519.421791,162.794297 516.123779,154.475231 516.123779,143.70922 Z M535.912052,142.241135 C535.912052,149.092233 537.907146,153.985801 541.897394,156.921986 C545.887642,159.858171 550.814303,161.326241 556.677524,161.326241 C562.377879,161.326241 567.793134,159.98051 572.923453,157.289007 C578.053772,154.597504 583.469027,150.64187 589.169381,145.421986 L589.169381,112.390071 C579.234478,113.695042 570.84694,115.244672 564.006515,117.039007 C557.16609,118.833342 551.669402,120.953888 547.516287,123.400709 C543.363171,125.84753 540.390888,128.661332 538.599349,131.842199 C536.807809,135.023066 535.912052,138.489343 535.912052,142.241135 Z M647.882736,55.6241135 L664.495114,55.6241135 L666.205212,77.1560284 L666.938111,77.1560284 C671.009792,69.6524448 675.936453,63.6986036 681.718241,59.2943262 C687.500029,54.8900489 693.811041,52.6879433 700.651466,52.6879433 C705.374616,52.6879433 709.609102,53.5035379 713.355049,55.1347518 L709.446254,72.751773 C707.491847,72.0992875 705.700334,71.6099307 704.071661,71.2836879 C702.442989,70.9574452 700.407178,70.7943262 697.964169,70.7943262 C692.915284,70.7943262 687.662894,72.8333129 682.20684,76.9113475 C676.750787,80.9893821 671.986991,88.0850558 667.915309,98.1985816 L667.915309,174.539007 L647.882736,174.539007 L647.882736,55.6241135 Z M715.390879,162.304965 C715.390879,157.574444 716.815947,153.781929 719.666124,150.927305 C722.516301,148.072681 725.977178,146.64539 730.04886,146.64539 C733.957674,146.64539 737.337119,148.072681 740.187296,150.927305 C743.037474,153.781929 744.462541,157.574444 744.462541,162.304965 C744.462541,166.709242 743.037474,170.338638 740.187296,173.193262 C737.337119,176.047887 733.957674,177.475177 730.04886,177.475177 C725.977178,177.475177 722.516301,176.047887 719.666124,173.193262 C716.815947,170.338638 715.390879,166.709242 715.390879,162.304965 Z M770.439739,115.326241 C770.439739,105.375837 771.986955,96.5266345 775.081433,88.7783688 C778.175911,81.0301031 782.328964,74.4645659 787.540717,69.0815603 C792.752469,63.6985546 798.819184,59.6205812 805.741042,56.8475177 C812.662901,54.0744542 819.951102,52.6879433 827.605863,52.6879433 C835.423492,52.6879433 842.141666,54.115234 847.760586,56.9698582 C853.379507,59.8244824 858.224735,63.1276408 862.296417,66.8794326 L852.28013,79.8475177 C848.69705,76.7482115 844.991876,74.2198679 841.164495,72.2624113 C837.337114,70.3049548 833.061913,69.3262411 828.338762,69.3262411 C822.964143,69.3262411 817.996765,70.427294 813.436482,72.6294326 C808.876199,74.8315713 804.967443,77.9716108 801.710098,82.0496454 C798.452752,86.12768 795.887632,90.9804683 794.014658,96.608156 C792.141684,102.235844 791.205212,108.475143 791.205212,115.326241 C791.205212,122.177339 792.100968,128.375859 793.892508,133.921986 C795.684048,139.468113 798.167737,144.239342 801.343648,148.235816 C804.51956,152.232289 808.387599,155.331549 812.947883,157.533688 C817.508166,159.735827 822.475543,160.836879 827.850163,160.836879 C833.550517,160.836879 838.721475,159.654267 843.363192,157.289007 C848.004909,154.923747 852.117246,152.109945 855.700326,148.847518 L864.739414,162.060284 C859.364794,166.790804 853.379512,170.542539 846.783388,173.315603 C840.187263,176.088666 833.306225,177.475177 826.140065,177.475177 C818.322436,177.475177 810.99352,176.088666 804.153094,173.315603 C797.312669,170.542539 791.40882,166.505346 786.441368,161.203901 C781.473917,155.902456 777.565161,149.377698 774.714984,141.629433 C771.864807,133.881167 770.439739,125.113524 770.439739,115.326241 Z M877.52443,115.326241 C877.52443,105.375837 879.03093,96.5266345 882.043974,88.7783688 C885.057018,81.0301031 889.087923,74.4645659 894.136808,69.0815603 C899.185693,63.6985546 905.00811,59.6205812 911.604235,56.8475177 C918.200359,54.0744542 925.16283,52.6879433 932.491857,52.6879433 C939.820884,52.6879433 946.783355,54.0744542 953.379479,56.8475177 C959.975603,59.6205812 965.79802,63.6985546 970.846906,69.0815603 C975.895791,74.4645659 979.926695,81.0301031 982.939739,88.7783688 C985.952784,96.5266345 987.459283,105.375837 987.459283,115.326241 C987.459283,125.113524 985.952784,133.881167 982.939739,141.629433 C979.926695,149.377698 975.895791,155.902456 970.846906,161.203901 C965.79802,166.505346 959.975603,170.542539 953.379479,173.315603 C946.783355,176.088666 939.820884,177.475177 932.491857,177.475177 C925.16283,177.475177 918.200359,176.088666 911.604235,173.315603 C905.00811,170.542539 899.185693,166.505346 894.136808,161.203901 C889.087923,155.902456 885.057018,149.377698 882.043974,141.629433 C879.03093,133.881167 877.52443,125.113524 877.52443,115.326241 Z M898.289902,115.326241 C898.289902,122.177339 899.104226,128.375859 900.732899,133.921986 C902.361572,139.468113 904.682395,144.239342 907.69544,148.235816 C910.708484,152.232289 914.332226,155.331549 918.566775,157.533688 C922.801324,159.735827 927.442971,160.836879 932.491857,160.836879 C937.540742,160.836879 942.182389,159.735827 946.416938,157.533688 C950.651487,155.331549 954.275229,152.232289 957.288274,148.235816 C960.301318,144.239342 962.622142,139.468113 964.250814,133.921986 C965.879487,128.375859 966.693811,122.177339 966.693811,115.326241 C966.693811,108.475143 965.879487,102.235844 964.250814,96.608156 C962.622142,90.9804683 960.301318,86.12768 957.288274,82.0496454 C954.275229,77.9716108 950.651487,74.8315713 946.416938,72.6294326 C942.182389,70.427294 937.540742,69.3262411 932.491857,69.3262411 C927.442971,69.3262411 922.801324,70.427294 918.566775,72.6294326 C914.332226,74.8315713 910.708484,77.9716108 907.69544,82.0496454 C904.682395,86.12768 902.361572,90.9804683 900.732899,96.608156 C899.104226,102.235844 898.289902,108.475143 898.289902,115.326241 Z" id="ellugar.co"></path>
                    <g id="Underline" stroke-width="1" transform="translate(0.000000, 199.007092)">
                        <rect id="2" x="0" y="0" width="382.736156" height="16.3120567"></rect>
                        <rect id="1" x="511.400651" y="0" width="488.599349" height="16.3120567"></rect>
                    </g>
                </g>
            </g>
        </g>
    </g>
</svg>