<?xml version="1.0" encoding="UTF-8"?>
<svg width="1200px" height="900px" viewBox="0 0 1200 900" version="1.1" xmlns="http://www.w3.org/2000/svg" xmlns:xlink="http://www.w3.org/1999/xlink">
    <!-- Generator: Sketch 42 (36781) - http://www.bohemiancoding.com/sketch -->
    <title>preview</title>
    <desc>Created with Sketch.</desc>
    <defs></defs>
    <g id="Web" stroke="none" stroke-width="1" fill="none" fill-rule="evenodd">
        <g id="preview">
            <rect id="bg" fill="#000000" x="0" y="0" width="1200" height="900"></rect>
            <g id="ellugar_black" transform="translate(400.000000, 250.000000)" fill="#FFFFFF">
                <g>
                    <path d="M20,57.8973542 L20,342.102646 C20,363.036406 36.9650335,380 57.8973542,380 L342.102646,380 C363.036406,380 380,363.034967 380,342.102646 L380,57.8973542 C380,36.9635939 363.034967,20 342.102646,20 L57.8973542,20 C36.9635939,20 20,36.9650335 20,57.8973542 Z M0,50.0027628 C0,22.3869994 22.3808569,0 50.0027628,0 L349.997237,0 C377.613001,0 400,22.3808569 400,50.0027628 L400,349.997237 C400,377.613001 377.619143,400 349.997237,400 L50.0027628,400 C22.3869994,400 0,377.619143 0,349.997237 L0,50.0027628 Z" id="Border" fill-rule="nonzero"></path>
                    <circle id="Dot" cx="200" cy="200" r="50"></circle>
                </g>
            </g>
        </g>
    </g>
</svg>