<?xml version="1.0" encoding="utf-8"?>
<!-- Generator: Adobe Illustrator 15.1.0, SVG Export Plug-In . SVG Version: 6.00 Build 0)  -->
<!DOCTYPE svg PUBLIC "-//W3C//DTD SVG 1.1//EN" "http://www.w3.org/Graphics/SVG/1.1/DTD/svg11.dtd">
<svg version="1.1" id="Capa_1" xmlns="http://www.w3.org/2000/svg" xmlns:xlink="http://www.w3.org/1999/xlink" x="0px" y="0px"
	 width="27.287px" height="27.708px" viewBox="0 0 27.287 27.708" enable-background="new 0 0 27.287 27.708" xml:space="preserve">
<g>
	<circle fill="#010202" cx="3.917" cy="23.349" r="3.823"/>
	<g>
		<path fill="#010202" d="M0,5.711c0.619-0.015,0.722-0.024,1.047-0.024c11.297,0,20.493,9.301,20.493,20.598
			c0,0.43,0.021,0.83-0.005,1.424h5.721c0.021-0.594,0.031-0.994,0.031-1.424c0-14.449-11.79-26.235-26.24-26.235
			C0.723,0.049,0.619-0.01,0,0.001V5.711z"/>
		<path fill="#010202" d="M1.047,9.162c-0.325,0-0.428,0.013-1.047,0.03v5.476c0.619-0.026,0.721-0.045,1.047-0.045
			c6.362,0,11.557,5.301,11.557,11.662c0,0.433,0.014,0.83-0.033,1.424h5.48c0.033-0.594,0.015-0.993,0.015-1.424
			C18.065,16.908,10.425,9.162,1.047,9.162z"/>
	</g>
</g>
</svg>
