<svg xmlns="http://www.w3.org/2000/svg" width="27.287" height="27.708" viewBox="0 0 27.287 27.708"><g fill="#010202"><circle cx="3.917" cy="23.349" r="3.823"/><path d="M0 5.71c.62-.014.722-.023 1.047-.023 11.297 0 20.493 9.3 20.493 20.598 0 .43.02.83-.005 1.424h5.72c.022-.595.032-.995.032-1.425C27.287 11.835 15.497.05 1.047.05.723.05.62-.01 0 0v5.71z"/><path d="M1.047 9.162c-.325 0-.428.013-1.047.03v5.476c.62-.026.72-.045 1.047-.045 6.362 0 11.557 5.3 11.557 11.662 0 .433.014.83-.033 1.424h5.48c.034-.595.016-.994.016-1.425 0-9.377-7.64-17.123-17.02-17.123z"/></g></svg>