<svg xmlns="http://www.w3.org/2000/svg" width="138.68" height="146.202" viewBox="0 0 138.68 146.202"><path d="M0 52.946c0-4.264 1.36-7.81 4.08-10.637 2.718-2.826 6.102-4.24 10.156-4.24 4.05 0 7.438 1.414 10.157 4.24 2.72 2.824 4.08 6.37 4.08 10.635 0 4.16-1.36 7.653-4.08 10.478-2.72 2.827-6.106 4.24-10.157 4.24-4.055 0-7.438-1.413-10.157-4.24C1.36 60.6 0 57.103 0 52.946zm0 51.826c0-4.264 1.36-7.81 4.08-10.637 2.718-2.824 6.102-4.238 10.156-4.238 4.05 0 7.438 1.414 10.157 4.238 2.72 2.826 4.08 6.373 4.08 10.637 0 4.16-1.36 7.654-4.08 10.48-2.72 2.823-6.106 4.237-10.157 4.237-4.055 0-7.438-1.416-10.157-4.24C1.36 112.427 0 108.933 0 104.772zm45.105-35.99h39.35v16.636h-39.35V68.782zm63.262 43.19c-3.68-11.838-5.52-24.794-5.52-38.87 0-14.077 1.84-27.033 5.52-38.87 3.68-11.838 8.878-23.246 15.597-34.23L138.68 6.08c-5.866 10.45-10.132 21.38-12.797 32.79-2.666 11.413-4 22.823-4 34.23 0 11.413 1.334 22.823 4 34.233 2.665 11.41 6.93 22.34 12.797 32.79l-14.716 6.08c-6.72-10.985-11.917-22.395-15.597-34.23z" fill="#010202"/></svg>