<svg xmlns="http://www.w3.org/2000/svg" width="17.272" height="28.355" viewBox="0 0 17.272 28.355"><path fill-rule="evenodd" clip-rule="evenodd" d="M5.83.008C7.104.042 8.51-.06 9.696.062v7.092c2.1.123 4.428.018 6.616.053-.034 1.465.07 3.07-.052 4.446H9.695v5.452c0 1.812-.266 3.867.317 5.134.81 1.755 3.808 1.717 5.664.95.595-.246 1.094-.623 1.587-.74-.035 1.41.07 2.964-.053 4.287-4.83 2.844-13.63 2.21-14.08-4.076-.25-3.497.19-7.252 0-11.01-1.006-.032-2.15.07-3.07-.05C-.06 10.4.044 8.97.01 7.682 3.206 6.488 5.275 4.163 5.67.167a.27.27 0 0 1 .16-.16z"/></svg>