<?xml version="1.0" encoding="utf-8"?>
<!-- Generator: Adobe Illustrator 15.1.0, SVG Export Plug-In . SVG Version: 6.00 Build 0)  -->
<!DOCTYPE svg PUBLIC "-//W3C//DTD SVG 1.1//EN" "http://www.w3.org/Graphics/SVG/1.1/DTD/svg11.dtd">
<svg version="1.1" id="Capa_1" xmlns="http://www.w3.org/2000/svg" xmlns:xlink="http://www.w3.org/1999/xlink" x="0px" y="0px"
	 width="17.272px" height="28.355px" viewBox="0 0 17.272 28.355" enable-background="new 0 0 17.272 28.355" xml:space="preserve">
<g id="_x35_y2J1Y_1_">
	<g>
		<path fill-rule="evenodd" clip-rule="evenodd" d="M5.831,0.008c1.272,0.034,2.68-0.068,3.864,0.054c0,2.363,0,4.728,0,7.092
			c2.1,0.123,4.428,0.018,6.616,0.053c-0.035,1.465,0.07,3.069-0.053,4.446c-2.188,0-4.376,0-6.563,0c0,1.755,0,3.584,0,5.452
			c0,1.812-0.266,3.867,0.317,5.134c0.81,1.757,3.808,1.719,5.664,0.952c0.595-0.246,1.094-0.623,1.587-0.74
			c-0.035,1.411,0.07,2.964-0.053,4.287c-4.831,2.844-13.629,2.21-14.079-4.076c-0.251-3.498,0.188-7.253,0-11.009
			c-1.007-0.034-2.151,0.069-3.07-0.053c-0.122-1.2-0.018-2.628-0.053-3.917c3.198-1.195,5.267-3.52,5.663-7.516
			C5.701,0.091,5.754,0.038,5.831,0.008z"/>
	</g>
</g>
</svg>
