<?xml version="1.0" encoding="utf-8"?>
<!-- Generator: Adobe Illustrator 15.1.0, SVG Export Plug-In . SVG Version: 6.00 Build 0)  -->
<!DOCTYPE svg PUBLIC "-//W3C//DTD SVG 1.1//EN" "http://www.w3.org/Graphics/SVG/1.1/DTD/svg11.dtd">
<svg version="1.1" id="Capa_1" xmlns="http://www.w3.org/2000/svg" xmlns:xlink="http://www.w3.org/1999/xlink" x="0px" y="0px"
	 width="46.772px" height="47.618px" viewBox="0 0 46.772 47.618" enable-background="new 0 0 46.772 47.618" xml:space="preserve">
<g>
	<path fill="#E52620" d="M0,30.762l1.82-1.82l4.302,3.869c0.459,0.425,0.916,0.849,1.375,1.273c0.457,0.424,0.916,0.857,1.374,1.299
		l0.052-0.052c-0.255-0.645-0.508-1.283-0.758-1.915c-0.251-0.633-0.499-1.266-0.745-1.903l-2.239-5.931l1.922-1.922l4.01,12.588
		L8.999,38.36L0,30.762z"/>
	<path fill="#E52620" d="M8.069,22.692l1.744-1.743l6.645,9.953L14.7,32.659L8.069,22.692z"/>
	<path fill="#E52620" d="M11.812,18.95l1.82-1.819c1.162-1.163,2.33-1.797,3.506-1.903s2.314,0.393,3.418,1.495
		c0.814,0.814,1.423,1.648,1.826,2.502c0.403,0.853,0.617,1.694,0.643,2.525c0.026,0.832-0.134,1.637-0.477,2.413
		c-0.344,0.776-0.847,1.495-1.509,2.157l-2.597,2.597L11.812,18.95z M19.601,24.958c0.398-0.398,0.699-0.841,0.904-1.324
		c0.203-0.482,0.285-0.994,0.248-1.533c-0.039-0.538-0.208-1.103-0.51-1.693c-0.301-0.589-0.753-1.185-1.355-1.788
		c-0.688-0.687-1.361-1.014-2.023-0.979s-1.285,0.344-1.871,0.93l-0.33,0.331l4.416,6.58L19.601,24.958z"/>
	<path fill="#E52620" d="M19.651,11.11l4.913-4.913l1.185,1.744l-3.195,3.194l1.451,2.164l2.711-2.711l1.184,1.743l-2.712,2.711
		l1.668,2.533l3.297-3.297l1.185,1.744l-5.054,5.053L19.651,11.11z"/>
	<path fill="#E52620" d="M36.63,11.033c-0.475,0.476-0.981,0.825-1.52,1.051c-0.539,0.225-1.096,0.321-1.668,0.292
		c-0.573-0.029-1.152-0.188-1.737-0.477C31.12,11.61,30.552,11.19,30,10.639c-0.729-0.729-1.292-1.521-1.687-2.373
		c-0.396-0.854-0.627-1.699-0.694-2.54c-0.067-0.839,0.025-1.642,0.28-2.404c0.254-0.765,0.662-1.427,1.222-1.987
		c0.476-0.475,0.984-0.821,1.527-1.043c0.543-0.221,1.102-0.315,1.675-0.286c0.572,0.03,1.148,0.187,1.73,0.471
		c0.58,0.284,1.147,0.703,1.699,1.254c0.729,0.73,1.291,1.521,1.687,2.374c0.394,0.853,0.626,1.699,0.692,2.539
		c0.068,0.84-0.025,1.642-0.279,2.405C37.599,9.811,37.19,10.474,36.63,11.033z M30.56,2.926c-0.297,0.297-0.494,0.677-0.592,1.139
		c-0.098,0.463-0.102,0.959-0.013,1.49c0.089,0.53,0.275,1.073,0.56,1.628c0.284,0.557,0.668,1.076,1.152,1.561
		c0.662,0.661,1.305,1.059,1.929,1.189c0.623,0.131,1.165-0.032,1.622-0.489c0.297-0.297,0.494-0.677,0.593-1.14
		c0.097-0.462,0.099-0.961,0.005-1.496c-0.093-0.535-0.283-1.077-0.572-1.629s-0.674-1.069-1.158-1.553
		c-0.661-0.661-1.3-1.059-1.915-1.19C31.554,2.305,31.019,2.467,30.56,2.926z"/>
	<path fill="#E52620" d="M14.583,45.931c-0.713-0.713-1.266-1.495-1.66-2.349s-0.623-1.711-0.682-2.577
		c-0.059-0.865,0.055-1.71,0.345-2.532c0.288-0.824,0.758-1.562,1.411-2.216c0.535-0.535,1.112-0.877,1.732-1.03
		c0.619-0.152,1.256-0.14,1.908,0.038l-0.268,2.1c-0.407-0.085-0.766-0.091-1.075-0.019s-0.6,0.243-0.872,0.516
		c-0.382,0.382-0.641,0.831-0.776,1.35c-0.135,0.518-0.161,1.057-0.075,1.615c0.084,0.561,0.273,1.119,0.566,1.674
		c0.291,0.557,0.668,1.063,1.125,1.521c0.323,0.322,0.644,0.579,0.961,0.77c0.319,0.191,0.643,0.308,0.974,0.35
		c0.331,0.043,0.661-0.001,0.987-0.133c0.327-0.131,0.65-0.358,0.974-0.681c0.17-0.17,0.308-0.358,0.414-0.566
		s0.175-0.413,0.21-0.618l-1.272-1.984l-1.362,1.361l-1.158-1.693l2.889-2.889l3.195,4.723c-0.076,0.568-0.252,1.155-0.527,1.763
		c-0.277,0.606-0.679,1.173-1.204,1.698c-0.51,0.51-1.046,0.889-1.61,1.14c-0.564,0.25-1.137,0.369-1.718,0.356
		s-1.161-0.159-1.737-0.439C15.7,46.898,15.135,46.482,14.583,45.931z"/>
	<path fill="#E52620" d="M27.464,35.519l-2.469,2.469l1.107,3.069l-1.922,1.922l-3.92-12.678l2.087-2.088l9.126,7.472l-1.82,1.82
		L27.464,35.519z M26.089,34.271l-1.145-1.044c-0.425-0.39-0.845-0.775-1.26-1.158c-0.417-0.382-0.854-0.784-1.312-1.209
		l-0.051,0.052c0.255,0.611,0.497,1.2,0.727,1.769c0.229,0.569,0.453,1.158,0.674,1.77l0.586,1.604L26.089,34.271z"/>
	<path fill="#E52620" d="M25.67,24.891l1.845-1.845l4.43,3.232l1.705,1.272L33.7,27.5l-0.725-2.253l-1.744-5.918l1.859-1.858
		l6.631,9.966l-1.629,1.63l-2.609-3.984c-0.162-0.246-0.334-0.52-0.516-0.82c-0.183-0.302-0.363-0.609-0.541-0.924
		c-0.179-0.313-0.35-0.621-0.516-0.923c-0.166-0.301-0.316-0.587-0.452-0.858l-0.038,0.038l0.878,2.94l1.452,5.346l-0.701,0.7
		l-4.009-2.788l-2.163-1.654l-0.052,0.051c0.187,0.221,0.388,0.461,0.604,0.719c0.216,0.26,0.436,0.523,0.655,0.795
		c0.221,0.272,0.434,0.545,0.637,0.815c0.204,0.272,0.386,0.53,0.548,0.776l2.635,3.958l-1.604,1.604L25.67,24.891z"/>
	<path fill="#E52620" d="M35.088,15.473l4.913-4.912l1.184,1.743l-3.194,3.194l1.45,2.164l2.711-2.711l1.184,1.743l-2.711,2.711
		l1.668,2.534l3.297-3.297l1.184,1.743l-5.053,5.054L35.088,15.473z"/>
</g>
</svg>
