<svg xmlns="http://www.w3.org/2000/svg" width="46.772" height="47.618" viewBox="0 0 46.772 47.618"><path d="M0 30.762l1.82-1.82 4.302 3.87c.46.424.916.848 1.375 1.272.457.424.916.857 1.374 1.3l.054-.053-.758-1.913c-.25-.633-.5-1.266-.745-1.903l-2.24-5.93 1.924-1.923 4.01 12.59L9 38.36l-9-7.598zm8.07-8.07l1.743-1.743 6.645 9.95-1.758 1.76-6.63-9.97zm3.742-3.742l1.82-1.82c1.162-1.162 2.33-1.796 3.506-1.902s2.314.393 3.418 1.495c.814.814 1.423 1.648 1.826 2.502.403.853.617 1.694.643 2.525a5.48 5.48 0 0 1-.477 2.413c-.344.776-.847 1.495-1.51 2.157l-2.596 2.597-6.63-9.967zm7.79 6.008c.397-.398.698-.84.903-1.324.203-.482.285-.994.248-1.533-.04-.536-.208-1.1-.51-1.69-.3-.59-.753-1.186-1.355-1.79-.688-.686-1.36-1.013-2.023-.98s-1.285.346-1.87.93l-.33.333 4.415 6.58.52-.524zm.048-13.848l4.914-4.913L25.75 7.94l-3.196 3.195 1.45 2.164 2.712-2.713L27.9 12.33l-2.712 2.712 1.668 2.533 3.297-3.297 1.185 1.744-5.054 5.053-6.633-9.965zm16.98-.077c-.475.476-.98.825-1.52 1.05a3.772 3.772 0 0 1-1.668.293 4.428 4.428 0 0 1-1.737-.477c-.585-.29-1.153-.71-1.705-1.26a8.286 8.286 0 0 1-1.687-2.375c-.396-.854-.627-1.7-.694-2.54a6 6 0 0 1 .28-2.404 4.997 4.997 0 0 1 1.22-1.986A4.69 4.69 0 0 1 30.646.29a3.874 3.874 0 0 1 1.675-.285 4.46 4.46 0 0 1 1.73.47c.58.285 1.147.704 1.7 1.255a8.31 8.31 0 0 1 1.686 2.375c.393.853.625 1.7.69 2.54a6.005 6.005 0 0 1-.278 2.404 4.99 4.99 0 0 1-1.222 1.982zm-6.07-8.107c-.297.297-.494.677-.592 1.14a3.976 3.976 0 0 0-.013 1.49 5.6 5.6 0 0 0 .56 1.627 6.195 6.195 0 0 0 1.152 1.56c.662.662 1.305 1.06 1.93 1.19.622.13 1.164-.032 1.62-.49.298-.296.495-.676.594-1.14.1-.46.1-.96.007-1.495-.093-.535-.283-1.077-.572-1.63s-.674-1.068-1.158-1.552c-.66-.66-1.3-1.06-1.915-1.19-.616-.13-1.15.03-1.61.49zM14.583 45.93c-.713-.712-1.266-1.494-1.66-2.348s-.623-1.71-.682-2.577a6.275 6.275 0 0 1 .347-2.532 5.837 5.837 0 0 1 1.41-2.216c.536-.535 1.113-.877 1.733-1.03a3.748 3.748 0 0 1 1.907.038l-.268 2.1c-.41-.085-.768-.09-1.077-.02s-.6.244-.872.517c-.38.382-.64.83-.775 1.35a3.955 3.955 0 0 0-.075 1.615c.085.56.274 1.12.567 1.674a6.24 6.24 0 0 0 1.125 1.523c.323.322.644.58.96.77.32.19.644.308.975.35.33.043.66 0 .987-.133.327-.132.65-.36.974-.682a2.226 2.226 0 0 0 .624-1.184L19.51 41.16l-1.362 1.36-1.158-1.692 2.89-2.89 3.194 4.724a6.322 6.322 0 0 1-.527 1.763 5.84 5.84 0 0 1-1.204 1.698c-.51.51-1.046.89-1.61 1.14-.564.25-1.137.37-1.718.356s-1.16-.16-1.737-.44c-.578-.283-1.143-.7-1.695-1.25zm12.88-10.41l-2.47 2.468 1.11 3.07-1.923 1.92L20.26 30.3l2.087-2.086 9.126 7.472-1.82 1.82-2.19-1.986zm-1.374-1.25l-1.147-1.043c-.425-.39-.845-.775-1.26-1.158-.417-.384-.854-.786-1.312-1.21l-.05.05c.255.61.497 1.2.727 1.77.23.57.453 1.158.674 1.77l.587 1.604 1.78-1.784zm-.42-9.38l1.845-1.844 4.43 3.232 1.705 1.272.05-.05-.725-2.253-1.744-5.918 1.86-1.86 6.63 9.966-1.627 1.63-2.61-3.984a35.115 35.115 0 0 1-1.057-1.744c-.178-.313-.35-.62-.515-.923-.165-.3-.315-.587-.45-.858l-.04.038.88 2.94 1.45 5.346-.7.7-4.01-2.787-2.162-1.654-.052.05.604.72c.215.26.435.522.654.794.22.272.434.545.637.815.206.27.388.53.55.775l2.635 3.958-1.604 1.604-6.63-9.967zm9.418-9.417L40 10.56l1.185 1.744-3.194 3.194 1.45 2.164 2.713-2.71 1.184 1.742-2.71 2.71 1.667 2.535 3.297-3.3 1.185 1.744-5.053 5.054-6.632-9.967z" fill="#E52620"/></svg>