<svg xmlns="http://www.w3.org/2000/svg" width="29.178" height="30.309" viewBox="0 0 29.178 30.309"><path d="M0 21.717l1.78-1.782 3.72 4.252c.396.483.8.967 1.208 1.45.407.484.806.972 1.196 1.465l.05-.052a59.85 59.85 0 0 1-.795-1.877c-.26-.64-.523-1.262-.784-1.864l-2.28-5.69 1.478-1.478 4.01 3.96c.424.44.85.892 1.28 1.354l1.29 1.394.052-.05a88.46 88.46 0 0 1-.872-1.814 89.832 89.832 0 0 0-.858-1.775L7.89 13.828l1.67-1.667 5.078 11.52-2.2 2.2-3.922-4.02c-.27-.272-.57-.593-.897-.962a31.75 31.75 0 0 1-.924-1.088l-.052.05c.195.434.39.88.586 1.337.195.458.395.907.6 1.35l2.342 5.6-2.164 2.164L0 21.72zM10.857 10.86l4.912-4.913L16.95 7.69l-3.194 3.195 1.45 2.164 2.71-2.713 1.185 1.743-2.71 2.712 1.666 2.533 3.297-3.297 1.184 1.744-5.052 5.053-6.633-9.966zm6.707-6.708l2.533-2.533c.416-.418.83-.756 1.247-1.02.415-.263.822-.44 1.222-.535.398-.093.785-.09 1.158.014.374.1.726.317 1.056.647.484.483.747 1.073.79 1.77.043.696-.127 1.395-.51 2.1l.025.077c.57-.35 1.108-.518 1.617-.51.51.01.967.217 1.375.624.483.482.804.994.96 1.532.158.54.18 1.08.07 1.624a4.93 4.93 0 0 1-.668 1.622 8.573 8.573 0 0 1-1.23 1.534l-3.018 3.016-6.63-9.966zm8.388 5.536c.594-.594.937-1.16 1.024-1.698.09-.54-.083-1.025-.516-1.457-.34-.34-.71-.49-1.113-.452-.403.04-.834.288-1.292.746l-1.08 1.082 1.895 2.863 1.082-1.08zM22.86 5.654c.585-.585.894-1.115.928-1.592.034-.474-.13-.895-.496-1.26-.27-.27-.587-.374-.948-.312-.36.064-.77.325-1.228.783l-.738.738 1.654 2.47.827-.825z" fill="#E52620"/></svg>