<?xml version="1.0" encoding="utf-8"?>
<!-- Generator: Adobe Illustrator 15.1.0, SVG Export Plug-In . SVG Version: 6.00 Build 0)  -->
<!DOCTYPE svg PUBLIC "-//W3C//DTD SVG 1.1//EN" "http://www.w3.org/Graphics/SVG/1.1/DTD/svg11.dtd">
<svg version="1.1" id="Capa_1" xmlns="http://www.w3.org/2000/svg" xmlns:xlink="http://www.w3.org/1999/xlink" x="0px" y="0px"
	 width="29.178px" height="30.309px" viewBox="0 0 29.178 30.309" enable-background="new 0 0 29.178 30.309" xml:space="preserve">
<g>
	<path fill="#E52620" d="M0,21.717l1.781-1.782l3.718,4.252c0.397,0.483,0.801,0.967,1.209,1.451
		c0.407,0.483,0.806,0.971,1.196,1.464l0.051-0.052c-0.272-0.61-0.536-1.236-0.796-1.877c-0.258-0.641-0.521-1.262-0.782-1.864
		l-2.279-5.689l1.477-1.477l4.01,3.959c0.424,0.44,0.85,0.893,1.279,1.355c0.428,0.462,0.859,0.926,1.291,1.394l0.052-0.052
		c-0.298-0.603-0.589-1.206-0.872-1.813c-0.285-0.606-0.571-1.198-0.858-1.775l-2.585-5.385l1.668-1.667l5.078,11.52l-2.201,2.201
		l-3.921-4.021c-0.271-0.271-0.569-0.592-0.897-0.961c-0.326-0.369-0.635-0.732-0.922-1.088l-0.052,0.051
		c0.195,0.433,0.391,0.878,0.586,1.336c0.194,0.458,0.394,0.907,0.598,1.349l2.343,5.601l-2.164,2.164L0,21.717z"/>
	<path fill="#E52620" d="M10.857,10.859l4.912-4.912l1.184,1.743l-3.194,3.195l1.451,2.164l2.711-2.711l1.184,1.743l-2.711,2.711
		l1.667,2.533l3.297-3.297l1.184,1.744l-5.053,5.053L10.857,10.859z"/>
	<path fill="#E52620" d="M17.564,4.152l2.533-2.533c0.416-0.416,0.831-0.754,1.247-1.018c0.415-0.263,0.822-0.441,1.222-0.535
		c0.398-0.093,0.785-0.089,1.158,0.014c0.374,0.102,0.726,0.318,1.056,0.648c0.484,0.483,0.747,1.073,0.79,1.769
		c0.043,0.697-0.127,1.396-0.51,2.102l0.025,0.076c0.569-0.349,1.108-0.518,1.617-0.511c0.51,0.01,0.967,0.218,1.375,0.625
		c0.483,0.483,0.804,0.995,0.961,1.533c0.157,0.539,0.18,1.08,0.07,1.624c-0.111,0.542-0.333,1.084-0.669,1.622
		c-0.336,0.539-0.744,1.05-1.229,1.534l-3.017,3.016L17.564,4.152z M25.952,9.688c0.594-0.594,0.937-1.16,1.024-1.698
		c0.09-0.539-0.083-1.025-0.516-1.457c-0.339-0.34-0.711-0.49-1.113-0.452c-0.403,0.038-0.834,0.286-1.292,0.744l-1.081,1.082
		l1.896,2.863L25.952,9.688z M22.859,5.654c0.586-0.585,0.895-1.115,0.929-1.592c0.034-0.474-0.131-0.895-0.496-1.26
		c-0.271-0.271-0.587-0.374-0.948-0.312c-0.359,0.064-0.77,0.325-1.228,0.783l-0.738,0.738l1.654,2.469L22.859,5.654z"/>
</g>
</svg>
