<?xml version="1.0" encoding="utf-8"?>
<!-- Generator: Adobe Illustrator 15.1.0, SVG Export Plug-In . SVG Version: 6.00 Build 0)  -->
<!DOCTYPE svg PUBLIC "-//W3C//DTD SVG 1.1//EN" "http://www.w3.org/Graphics/SVG/1.1/DTD/svg11.dtd">
<svg version="1.1" id="Capa_1" xmlns="http://www.w3.org/2000/svg" xmlns:xlink="http://www.w3.org/1999/xlink" x="0px" y="0px"
	 width="259.973px" height="240.422px" viewBox="0 0 259.973 240.422" enable-background="new 0 0 259.973 240.422"
	 xml:space="preserve">
<g>
	<g>
		<path fill="#010202" d="M82.429,83.224H70.156v25.556H47.122V83.224H0.886V66.242L39.892,2.018h30.264v62.376h12.273V83.224z
			 M47.122,64.394V47.076c0-3.473,0.11-7.482,0.337-12.021c0.223-4.539,0.446-8.49,0.672-11.854h-0.672
			c-1.346,2.916-2.748,5.885-4.204,8.911c-1.458,3.026-2.971,6.053-4.539,9.079L24.592,64.394H47.122z"/>
		<path fill="#010202" d="M130.85,110.797c-5.716,0-10.928-1.206-15.636-3.615c-4.708-2.408-8.717-5.968-12.021-10.676
			c-3.307-4.708-5.884-10.534-7.733-17.485c-1.85-6.948-2.774-14.964-2.774-24.042c0-9.079,0.925-17.037,2.774-23.875
			c1.85-6.835,4.427-12.581,7.733-17.233c3.305-4.649,7.313-8.125,12.021-10.424C119.922,1.15,125.134,0,130.85,0
			c5.717,0,10.929,1.15,15.637,3.446c4.707,2.299,8.714,5.774,12.021,10.424c3.305,4.652,5.885,10.398,7.734,17.233
			c1.85,6.838,2.774,14.796,2.774,23.875c0,9.078-0.925,17.094-2.774,24.042c-1.85,6.951-4.43,12.777-7.734,17.485
			c-3.307,4.708-7.313,8.268-12.021,10.676C141.779,109.591,136.567,110.797,130.85,110.797z M130.85,91.63
			c2.128,0,4.091-0.53,5.885-1.597c1.792-1.064,3.362-2.998,4.708-5.801c1.345-2.801,2.38-6.557,3.11-11.265
			c0.728-4.708,1.093-10.702,1.093-17.989c0-7.285-0.365-13.254-1.093-17.906c-0.73-4.649-1.766-8.293-3.11-10.929
			c-1.346-2.632-2.916-4.455-4.708-5.464c-1.794-1.009-3.757-1.513-5.885-1.513c-2.018,0-3.925,0.504-5.716,1.513
			c-1.795,1.009-3.363,2.832-4.708,5.464c-1.345,2.636-2.411,6.279-3.194,10.929c-0.785,4.652-1.177,10.621-1.177,17.906
			c0,7.287,0.392,13.281,1.177,17.989c0.783,4.708,1.85,8.464,3.194,11.265c1.345,2.803,2.913,4.736,4.708,5.801
			C126.925,91.1,128.833,91.63,130.85,91.63z"/>
		<path fill="#010202" d="M259.973,83.224H247.7v25.556h-23.034V83.224H178.43V66.242l39.006-64.225H247.7v62.376h12.273V83.224z
			 M224.666,64.394V47.076c0-3.473,0.11-7.482,0.337-12.021c0.223-4.539,0.445-8.49,0.672-11.854h-0.672
			c-1.346,2.916-2.748,5.885-4.204,8.911c-1.458,3.026-2.971,6.053-4.539,9.079l-14.123,23.202H224.666z"/>
	</g>
	<g>
		<path fill="#010202" d="M0,166.153h5.328v13.14c0,2.305,0.348,3.912,1.044,4.824c0.696,0.912,1.704,1.368,3.024,1.368
			c1.32,0,2.34-0.456,3.06-1.368s1.08-2.52,1.08-4.824v-13.14h5.112v12.601c0,3.936-0.786,6.804-2.358,8.604
			c-1.572,1.801-3.87,2.7-6.894,2.7c-3.048,0-5.376-0.899-6.984-2.7C0.804,185.558,0,182.689,0,178.754V166.153z"/>
		<path fill="#010202" d="M23.652,164.39h5.292v6.192l-0.252,3.203c0.672-0.6,1.452-1.157,2.34-1.674
			c0.887-0.516,1.944-0.773,3.168-0.773c1.944,0,3.354,0.636,4.23,1.908c0.875,1.271,1.314,3.035,1.314,5.291v11.088h-5.292v-10.403
			c0-1.296-0.174-2.184-0.522-2.664c-0.348-0.479-0.906-0.72-1.674-0.72c-0.672,0-1.248,0.15-1.728,0.449
			c-0.48,0.301-1.008,0.727-1.584,1.278v12.06h-5.292V164.39z"/>
		<path fill="#010202" d="M43.416,178.646h8.856v3.744h-8.856V178.646z"/>
		<path fill="#010202" d="M55.115,180.697c0-1.488,0.24-2.813,0.72-3.978c0.479-1.164,1.122-2.142,1.926-2.935
			c0.804-0.791,1.734-1.397,2.79-1.818c1.056-0.419,2.147-0.629,3.276-0.629c1.128,0,2.214,0.21,3.258,0.629
			c1.044,0.421,1.967,1.027,2.772,1.818c0.804,0.793,1.445,1.771,1.926,2.935c0.48,1.164,0.72,2.489,0.72,3.978
			s-0.24,2.814-0.72,3.979c-0.48,1.164-1.122,2.142-1.926,2.934c-0.805,0.792-1.728,1.398-2.772,1.818s-2.13,0.63-3.258,0.63
			c-1.128,0-2.22-0.21-3.276-0.63c-1.056-0.42-1.986-1.026-2.79-1.818c-0.804-0.792-1.446-1.77-1.926-2.934
			C55.355,183.512,55.115,182.186,55.115,180.697z M60.551,180.697c0,1.561,0.27,2.797,0.81,3.708
			c0.54,0.913,1.362,1.368,2.466,1.368c1.08,0,1.896-0.455,2.448-1.368c0.552-0.911,0.828-2.147,0.828-3.708
			c0-1.56-0.276-2.795-0.828-3.708c-0.552-0.911-1.368-1.368-2.448-1.368c-1.104,0-1.926,0.457-2.466,1.368
			C60.821,177.902,60.551,179.138,60.551,180.697z"/>
		<path fill="#010202" d="M76.139,164.39h5.292v6.192l-0.252,3.203c0.672-0.6,1.452-1.157,2.34-1.674
			c0.887-0.516,1.944-0.773,3.168-0.773c1.944,0,3.354,0.636,4.23,1.908c0.875,1.271,1.314,3.035,1.314,5.291v11.088h-5.292v-10.403
			c0-1.296-0.174-2.184-0.522-2.664c-0.348-0.479-0.906-0.72-1.674-0.72c-0.672,0-1.248,0.15-1.728,0.449
			c-0.48,0.301-1.008,0.727-1.584,1.278v12.06h-5.292V164.39z"/>
		<path fill="#010202" d="M96.551,186.746c0-0.961,0.306-1.758,0.918-2.395c0.612-0.636,1.374-0.954,2.286-0.954
			s1.674,0.318,2.286,0.954c0.612,0.637,0.918,1.434,0.918,2.395c0,0.936-0.306,1.722-0.918,2.357s-1.374,0.954-2.286,0.954
			s-1.674-0.318-2.286-0.954C96.857,188.468,96.551,187.682,96.551,186.746z"/>
		<path fill="#010202" d="M107.351,186.746c0-0.961,0.306-1.758,0.918-2.395c0.612-0.636,1.374-0.954,2.286-0.954
			s1.674,0.318,2.286,0.954c0.612,0.637,0.918,1.434,0.918,2.395c0,0.936-0.306,1.722-0.918,2.357s-1.374,0.954-2.286,0.954
			s-1.674-0.318-2.286-0.954C107.657,188.468,107.351,187.682,107.351,186.746z"/>
		<path fill="#010202" d="M118.15,186.746c0-0.961,0.306-1.758,0.918-2.395c0.612-0.636,1.374-0.954,2.286-0.954
			s1.674,0.318,2.286,0.954c0.612,0.637,0.918,1.434,0.918,2.395c0,0.936-0.306,1.722-0.918,2.357s-1.374,0.954-2.286,0.954
			s-1.674-0.318-2.286-0.954C118.456,188.468,118.15,187.682,118.15,186.746z"/>
		<path fill="#010202" d="M0.144,209.354H5.58l6.12,11.664l2.304,5.184h0.144c-0.12-1.247-0.258-2.639-0.414-4.176
			c-0.156-1.535-0.234-3-0.234-4.392v-8.28h5.04v23.473h-5.436l-6.12-11.701l-2.304-5.111H4.536c0.12,1.296,0.257,2.688,0.414,4.176
			c0.156,1.488,0.234,2.929,0.234,4.32v8.316h-5.04V209.354z"/>
		<path fill="#010202" d="M22.608,223.897c0-1.487,0.24-2.813,0.72-3.978c0.479-1.164,1.122-2.143,1.926-2.934
			c0.804-0.793,1.734-1.398,2.79-1.818c1.056-0.42,2.147-0.631,3.276-0.631c1.128,0,2.214,0.211,3.258,0.631
			s1.967,1.025,2.772,1.818c0.804,0.791,1.445,1.77,1.926,2.934c0.48,1.164,0.72,2.49,0.72,3.978c0,1.489-0.24,2.814-0.72,3.978
			c-0.48,1.165-1.122,2.143-1.926,2.935c-0.805,0.792-1.728,1.398-2.772,1.817c-1.044,0.42-2.13,0.631-3.258,0.631
			c-1.128,0-2.22-0.211-3.276-0.631c-1.056-0.419-1.986-1.025-2.79-1.817c-0.804-0.792-1.446-1.77-1.926-2.935
			C22.848,226.712,22.608,225.387,22.608,223.897z M28.044,223.897c0,1.561,0.27,2.796,0.81,3.708s1.362,1.368,2.466,1.368
			c1.08,0,1.896-0.456,2.448-1.368c0.552-0.912,0.828-2.147,0.828-3.708c0-1.56-0.276-2.796-0.828-3.708
			c-0.552-0.912-1.368-1.367-2.448-1.367c-1.104,0-1.926,0.455-2.466,1.367S28.044,222.338,28.044,223.897z"/>
		<path fill="#010202" d="M44.352,219.109h-2.448v-3.924l2.736-0.216l0.612-4.752h4.392v4.752h4.284v4.14h-4.284v7.164
			c0,1.008,0.21,1.734,0.63,2.178c0.42,0.445,0.978,0.666,1.674,0.666c0.288,0,0.582-0.035,0.882-0.107
			c0.3-0.072,0.57-0.156,0.81-0.252l0.828,3.852c-0.48,0.145-1.044,0.288-1.692,0.432c-0.648,0.145-1.404,0.217-2.268,0.217
			c-1.104,0-2.046-0.168-2.826-0.504c-0.78-0.336-1.417-0.805-1.908-1.404c-0.492-0.6-0.852-1.326-1.08-2.178
			s-0.342-1.794-0.342-2.826V219.109z"/>
		<path fill="#010202" d="M57.419,207.59h5.292v6.191l-0.252,3.205c0.672-0.6,1.452-1.158,2.34-1.675
			c0.887-0.516,1.944-0.774,3.168-0.774c1.944,0,3.354,0.637,4.23,1.908c0.875,1.273,1.314,3.037,1.314,5.293v11.088H68.22v-10.404
			c0-1.297-0.174-2.184-0.522-2.664c-0.348-0.48-0.906-0.721-1.674-0.721c-0.672,0-1.248,0.15-1.728,0.451
			c-0.48,0.3-1.008,0.726-1.584,1.277v12.061h-5.292V207.59z"/>
		<path fill="#010202" d="M80.603,212.342c-0.888,0-1.62-0.258-2.196-0.773c-0.576-0.517-0.864-1.183-0.864-1.998
			c0-0.816,0.288-1.477,0.864-1.98s1.308-0.756,2.196-0.756c0.912,0,1.65,0.252,2.214,0.756c0.563,0.504,0.846,1.164,0.846,1.98
			c0,0.815-0.282,1.481-0.846,1.998C82.253,212.084,81.515,212.342,80.603,212.342z M77.975,214.97h5.292v17.856h-5.292V214.97z"/>
		<path fill="#010202" d="M87.911,214.97h4.32l0.36,2.269h0.144c0.768-0.721,1.607-1.351,2.52-1.891
			c0.912-0.54,1.98-0.811,3.204-0.811c1.944,0,3.354,0.637,4.23,1.908c0.875,1.273,1.314,3.037,1.314,5.293v11.088h-5.292v-10.404
			c0-1.297-0.174-2.184-0.522-2.664c-0.348-0.48-0.906-0.721-1.674-0.721c-0.672,0-1.248,0.15-1.728,0.451
			c-0.48,0.3-1.008,0.726-1.584,1.277v12.061h-5.292V214.97z"/>
		<path fill="#010202" d="M107.387,235.886c0-1.44,0.852-2.641,2.556-3.601v-0.144c-0.48-0.312-0.876-0.708-1.188-1.188
			c-0.312-0.479-0.468-1.092-0.468-1.836c0-0.647,0.192-1.266,0.576-1.854c0.383-0.588,0.864-1.086,1.44-1.494v-0.145
			c-0.625-0.432-1.183-1.049-1.674-1.854c-0.492-0.804-0.738-1.733-0.738-2.79c0-1.079,0.204-2.021,0.612-2.825
			c0.408-0.805,0.954-1.477,1.638-2.017s1.47-0.941,2.358-1.206c0.888-0.264,1.812-0.396,2.772-0.396
			c1.056,0,1.98,0.145,2.772,0.433h6.516v3.853h-2.844c0.168,0.264,0.306,0.6,0.414,1.008c0.108,0.408,0.162,0.852,0.162,1.332
			c0,1.031-0.18,1.926-0.54,2.682c-0.36,0.756-0.858,1.381-1.494,1.872c-0.636,0.492-1.38,0.858-2.232,1.098
			c-0.852,0.24-1.77,0.36-2.754,0.36c-0.696,0-1.417-0.12-2.16-0.36c-0.24,0.192-0.409,0.384-0.504,0.576
			c-0.096,0.192-0.144,0.444-0.144,0.756c0,0.456,0.198,0.792,0.594,1.009c0.396,0.215,1.098,0.323,2.106,0.323h2.88
			c2.208,0,3.894,0.354,5.058,1.062c1.164,0.709,1.746,1.867,1.746,3.475c0,0.936-0.234,1.794-0.702,2.574
			c-0.468,0.779-1.134,1.451-1.998,2.016c-0.864,0.564-1.908,1.008-3.132,1.332s-2.604,0.486-4.14,0.486
			c-1.056,0-2.034-0.09-2.934-0.27c-0.9-0.181-1.692-0.451-2.376-0.811c-0.684-0.36-1.218-0.828-1.602-1.404
			S107.387,236.678,107.387,235.886z M111.743,235.058c0,0.672,0.36,1.182,1.08,1.53c0.72,0.348,1.68,0.521,2.88,0.521
			c1.2,0,2.184-0.21,2.952-0.63c0.768-0.42,1.152-0.942,1.152-1.565c0-0.553-0.234-0.925-0.702-1.116
			c-0.468-0.192-1.146-0.288-2.034-0.288h-1.836c-0.624,0-1.128-0.018-1.512-0.055c-0.384-0.035-0.72-0.09-1.008-0.162
			C112.066,233.869,111.743,234.457,111.743,235.058z M115.271,223.97c0.696,0,1.278-0.246,1.746-0.738
			c0.468-0.491,0.702-1.241,0.702-2.25c0-0.936-0.234-1.649-0.702-2.142s-1.05-0.738-1.746-0.738c-0.696,0-1.278,0.24-1.746,0.721
			c-0.468,0.48-0.702,1.199-0.702,2.159c0,1.009,0.234,1.759,0.702,2.25C113.993,223.724,114.574,223.97,115.271,223.97z"/>
		<path fill="#010202" d="M135.214,207.59h5.291v6.191l-0.252,3.205c0.672-0.6,1.453-1.158,2.341-1.675
			c0.888-0.516,1.944-0.774,3.168-0.774c1.944,0,3.354,0.637,4.229,1.908c0.876,1.273,1.314,3.037,1.314,5.293v11.088h-5.292
			v-10.404c0-1.297-0.175-2.184-0.522-2.664s-0.906-0.721-1.674-0.721c-0.672,0-1.248,0.15-1.729,0.451
			c-0.479,0.3-1.008,0.726-1.584,1.277v12.061h-5.291V207.59z"/>
		<path fill="#010202" d="M154.726,223.897c0-1.44,0.24-2.741,0.721-3.905c0.479-1.164,1.109-2.148,1.889-2.953
			c0.78-0.803,1.675-1.422,2.683-1.854c1.009-0.432,2.052-0.648,3.132-0.648c1.271,0,2.382,0.217,3.33,0.648s1.74,1.032,2.376,1.801
			c0.636,0.768,1.11,1.674,1.423,2.717c0.311,1.045,0.467,2.179,0.467,3.402c0,0.48-0.023,0.918-0.071,1.314
			s-0.097,0.701-0.144,0.918h-10.692c0.239,1.367,0.774,2.357,1.602,2.97c0.828,0.612,1.842,0.918,3.042,0.918
			c1.271,0,2.557-0.396,3.852-1.188l1.765,3.205c-0.912,0.624-1.926,1.115-3.042,1.476s-2.214,0.54-3.294,0.54
			c-1.272,0-2.46-0.211-3.563-0.631c-1.105-0.419-2.064-1.031-2.881-1.836c-0.816-0.803-1.452-1.781-1.908-2.934
			C154.955,226.705,154.726,225.387,154.726,223.897z M166.246,222.062c0-1.031-0.229-1.872-0.684-2.521
			c-0.456-0.647-1.224-0.971-2.304-0.971c-0.841,0-1.579,0.281-2.214,0.846c-0.637,0.564-1.051,1.445-1.242,2.646H166.246z"/>
		<path fill="#010202" d="M174.417,214.97h4.32l0.359,3.132h0.145c0.648-1.225,1.428-2.124,2.34-2.699
			c0.912-0.576,1.824-0.865,2.736-0.865c0.504,0,0.918,0.031,1.242,0.09c0.324,0.061,0.617,0.15,0.881,0.271l-0.863,4.572
			c-0.336-0.096-0.648-0.167-0.936-0.216c-0.289-0.048-0.625-0.072-1.008-0.072c-0.673,0-1.375,0.24-2.106,0.721
			c-0.732,0.479-1.339,1.332-1.818,2.555v10.369h-5.292V214.97z"/>
		<path fill="#010202" d="M187.341,223.897c0-1.44,0.24-2.741,0.721-3.905c0.479-1.164,1.109-2.148,1.89-2.953
			c0.78-0.803,1.675-1.422,2.683-1.854s2.052-0.648,3.132-0.648c1.271,0,2.382,0.217,3.329,0.648
			c0.949,0.432,1.74,1.032,2.377,1.801c0.635,0.768,1.109,1.674,1.422,2.717c0.312,1.045,0.468,2.179,0.468,3.402
			c0,0.48-0.024,0.918-0.071,1.314c-0.049,0.396-0.097,0.701-0.145,0.918h-10.691c0.238,1.367,0.773,2.357,1.602,2.97
			s1.842,0.918,3.041,0.918c1.272,0,2.557-0.396,3.853-1.188l1.765,3.205c-0.912,0.624-1.926,1.115-3.043,1.476
			c-1.115,0.36-2.213,0.54-3.293,0.54c-1.273,0-2.461-0.211-3.564-0.631c-1.104-0.419-2.064-1.031-2.88-1.836
			c-0.816-0.803-1.452-1.781-1.908-2.934S187.341,225.387,187.341,223.897z M198.862,222.062c0-1.031-0.229-1.872-0.685-2.521
			c-0.455-0.647-1.223-0.971-2.303-0.971c-0.841,0-1.579,0.281-2.215,0.846s-1.05,1.445-1.242,2.646H198.862z"/>
		<path fill="#010202" d="M207.609,229.945c0-0.959,0.307-1.758,0.918-2.394c0.612-0.636,1.374-0.954,2.287-0.954
			c0.911,0,1.674,0.318,2.285,0.954c0.612,0.636,0.918,1.435,0.918,2.394c0,0.937-0.306,1.723-0.918,2.358
			c-0.611,0.636-1.374,0.954-2.285,0.954c-0.913,0-1.675-0.318-2.287-0.954C207.916,231.668,207.609,230.882,207.609,229.945z
			 M208.33,213.494l-0.18-4.789h5.328l-0.181,4.789l-0.756,11.016h-3.456L208.33,213.494z"/>
	</g>
</g>
</svg>
