<?xml version="1.0" encoding="utf-8"?>
<!-- Generator: Adobe Illustrator 15.1.0, SVG Export Plug-In . SVG Version: 6.00 Build 0)  -->
<!DOCTYPE svg PUBLIC "-//W3C//DTD SVG 1.1//EN" "http://www.w3.org/Graphics/SVG/1.1/DTD/svg11.dtd">
<svg version="1.1" id="Capa_1" xmlns="http://www.w3.org/2000/svg" xmlns:xlink="http://www.w3.org/1999/xlink" x="0px" y="0px"
	 width="21.523px" height="29.473px" viewBox="0 0 21.523 29.473" enable-background="new 0 0 21.523 29.473" xml:space="preserve">
<g>
	<path fill="#E52620" d="M7.744,21.764l-2.777,2.777L6,27.594l-1.879,1.879L0,16.356l2.189-2.19l9.482,7.757l-1.744,1.743
		L7.744,21.764z M6.13,20.325l-2.207-1.902c-0.553-0.474-1.067-0.949-1.545-1.428l-0.212-0.211c0.299,0.643,0.582,1.354,0.852,2.132
		l1.156,3.364L6.13,20.325z"/>
	<path fill="#E52620" d="M13.299,8.131c0.942,0.942,1.352,2.015,1.227,3.218c-0.125,1.201-0.771,2.386-1.938,3.552l-0.504,0.505
		l2.412,3.693l-1.791,1.79l-6.77-10.397L7.92,8.507c0.947-0.947,1.873-1.455,2.775-1.523C11.596,6.915,12.465,7.297,13.299,8.131z
		 M10.914,13.591l0.329-0.328c0.556-0.556,0.858-1.129,0.907-1.719c0.049-0.588-0.153-1.109-0.607-1.564
		c-0.705-0.704-1.438-0.674-2.201,0.089l-0.436,0.435L10.914,13.591z"/>
	<path fill="#E52620" d="M20.273,1.155c0.943,0.943,1.353,2.016,1.228,3.219c-0.126,1.201-0.771,2.385-1.938,3.552l-0.504,0.505
		l2.412,3.692l-1.79,1.79L12.91,3.516l1.985-1.984c0.946-0.946,1.872-1.455,2.774-1.523C18.571-0.061,19.439,0.322,20.273,1.155z
		 M17.89,6.616l0.329-0.328c0.555-0.557,0.857-1.129,0.906-1.719c0.05-0.589-0.152-1.11-0.607-1.564
		C17.813,2.3,17.08,2.33,16.316,3.093l-0.434,0.435L17.89,6.616z"/>
</g>
</svg>
