<?xml version="1.0" encoding="utf-8"?>
<!-- Generator: Adobe Illustrator 15.1.0, SVG Export Plug-In . SVG Version: 6.00 Build 0)  -->
<!DOCTYPE svg PUBLIC "-//W3C//DTD SVG 1.1//EN" "http://www.w3.org/Graphics/SVG/1.1/DTD/svg11.dtd">
<svg version="1.1" id="Capa_1" xmlns="http://www.w3.org/2000/svg" xmlns:xlink="http://www.w3.org/1999/xlink" x="0px" y="0px"
	 width="81.747px" height="107.289px" viewBox="0 0 81.747 107.289" enable-background="new 0 0 81.747 107.289"
	 xml:space="preserve">
<path fill="#010202" d="M81.747,72.404c-0.492,4.088-1.514,8.104-3.062,12.039c-1.564,3.946-3.848,7.475-6.869,10.587
	c-3.889,3.991-8.414,7.031-13.57,9.123c-5.162,2.091-10.514,3.136-16.055,3.136c-5.551,0-10.83-0.922-15.842-2.768
	c-5.012-1.848-9.518-4.77-13.5-8.762c-2.829-2.82-5.092-5.791-6.788-8.903c-1.705-3.112-2.997-6.421-3.869-9.925
	c-0.879-3.505-1.46-7.205-1.751-11.096C0.146,61.944,0,57.906,0,53.719c0-4.283,0.146-8.346,0.439-12.188
	C0.73,37.688,1.312,34.01,2.19,30.513c0.872-3.505,2.164-6.813,3.869-9.933c1.696-3.111,3.959-6.076,6.788-8.902
	c3.982-3.986,8.488-6.932,13.5-8.834C31.36,0.95,36.639,0,42.19,0c5.541,0,10.893,0.998,16.055,2.994
	c5.156,1.994,9.682,4.988,13.57,8.975c3.021,3.119,5.305,6.623,6.869,10.514c1.549,3.889,2.57,7.881,3.062,11.969H62.481
	c-0.199-2.24-0.686-4.207-1.463-5.911c-0.785-1.704-1.852-3.38-3.215-5.037c-1.658-2.139-3.863-3.747-6.639-4.817
	c-2.775-1.068-5.77-1.604-8.975-1.604c-3.027,0-5.917,0.583-8.692,1.746c-2.771,1.164-5.18,2.864-7.223,5.097
	c-1.751,1.847-3.115,3.986-4.085,6.415c-0.975,2.424-1.683,4.977-2.12,7.645c-0.434,2.674-0.709,5.37-0.805,8.089
	c-0.094,2.716-0.146,5.24-0.146,7.573c0,2.329,0.052,4.861,0.146,7.574c0.096,2.721,0.371,5.418,0.805,8.09
	c0.438,2.666,1.146,5.222,2.12,7.644c0.97,2.431,2.334,4.569,4.085,6.409c2.043,2.24,4.451,3.939,7.223,5.104
	c2.775,1.164,5.665,1.745,8.692,1.745c3.205,0,6.199-0.552,8.975-1.662c2.775-1.112,4.98-2.728,6.639-4.853
	c2.727-3.279,4.285-7.045,4.678-11.293H81.747z"/>
</svg>
