<?xml version="1.0" encoding="UTF-8"?>
<svg width="313px" height="313px" viewBox="0 0 313 313" version="1.1" xmlns="http://www.w3.org/2000/svg" xmlns:xlink="http://www.w3.org/1999/xlink">
    <!-- Generator: Sketch 42 (36781) - http://www.bohemiancoding.com/sketch -->
    <title>favicon</title>
    <desc>Created with Sketch.</desc>
    <defs></defs>
    <g id="Web" stroke="none" stroke-width="1" fill="none" fill-rule="evenodd">
        <g id="favicon">
            <path d="M0,39.1271619 C0,17.5178271 17.5130205,0 39.1271619,0 L273.872838,0 C295.482173,0 313,17.5130205 313,39.1271619 L313,273.872838 C313,295.482173 295.48698,313 273.872838,313 L39.1271619,313 C17.5178271,313 0,295.48698 0,273.872838 L0,39.1271619 Z" id="Border" fill="#000000" fill-rule="nonzero"></path>
            <g id="ellugar_black" transform="translate(9.000000, 9.000000)" fill="#FFFFFF">
                <g>
                    <path d="M14.75,42.6992987 L14.75,252.300701 C14.75,267.739349 27.2617122,280.25 42.6992987,280.25 L252.300701,280.25 C267.739349,280.25 280.25,267.738288 280.25,252.300701 L280.25,42.6992987 C280.25,27.2606505 267.738288,14.75 252.300701,14.75 L42.6992987,14.75 C27.2606505,14.75 14.75,27.2617122 14.75,42.6992987 Z M0,36.8770375 C0,16.5104121 16.5058819,0 36.8770375,0 L258.122962,0 C278.489588,0 295,16.5058819 295,36.8770375 L295,258.122962 C295,278.489588 278.494118,295 258.122962,295 L36.8770375,295 C16.5104121,295 0,278.494118 0,258.122962 L0,36.8770375 Z" id="Border" fill-rule="nonzero"></path>
                    <circle id="Dot" cx="147.5" cy="147.5" r="36.875"></circle>
                </g>
            </g>
        </g>
    </g>
</svg>