<?xml version="1.0" encoding="UTF-8"?>
<svg width="100px" height="100px" viewBox="0 0 100 100" version="1.1" xmlns="http://www.w3.org/2000/svg" xmlns:xlink="http://www.w3.org/1999/xlink">
    <!-- Generator: Sketch 43.2 (39069) - http://www.bohemiancoding.com/sketch -->
    <title>Artboard</title>
    <desc>Created with Sketch.</desc>
    <defs></defs>
    <g id="Page-1" stroke="none" stroke-width="1" fill="none" fill-rule="evenodd">
        <g id="Artboard" fill="#000000">
            <path d="M0,52.9148936 C5.24825319,44.8297468 10.5318883,39.1560447 15.8510638,35.893617 C21.1702394,32.6311894 26.5247957,31 31.9148936,31 C36.3120787,31 40.1418277,31.8510553 43.4042553,33.5531915 C46.666683,35.2553277 49.6808372,37.0992809 52.4468085,39.0851064 C55.2127798,41.0709319 57.836867,42.9148851 60.3191489,44.6170213 C62.8014309,46.3191574 65.5319,47.1702128 68.5106383,47.1702128 C71.4893766,47.1702128 74.2198457,46.1063936 76.7021277,43.9787234 C79.1844096,41.8510532 81.5602723,38.8014383 83.8297872,34.8297872 L100,47.3829787 C94.7517468,55.4681255 89.4681117,61.1418277 84.1489362,64.4042553 C78.8297606,67.666683 73.4752043,69.2978723 68.0851064,69.2978723 C63.6879213,69.2978723 59.8581723,68.446817 56.5957447,66.7446809 C53.333317,65.0425447 50.3191628,63.1985915 47.5531915,61.212766 C44.7872202,59.2269404 42.163133,57.3829872 39.6808511,55.6808511 C37.1985691,53.9787149 34.4681,53.1276596 31.4893617,53.1276596 C28.6524681,53.1276596 25.9574596,54.1914787 23.4042553,56.3191489 C20.8510511,58.4468191 18.4397277,61.496434 16.1702128,65.4680851 L0,52.9148936 Z" id="~"></path>
        </g>
    </g>
</svg>