<?xml version="1.0" encoding="UTF-8"?>
<svg width="400px" height="400px" viewBox="0 0 400 400" version="1.1" xmlns="http://www.w3.org/2000/svg" xmlns:xlink="http://www.w3.org/1999/xlink">
    <!-- Generator: Sketch 49.3 (51167) - http://www.bohemiancoding.com/sketch -->
    <title>web/icono</title>
    <desc>Created with Sketch.</desc>
    <defs></defs>
    <g id="icono" stroke="none" stroke-width="1" fill="none" fill-rule="evenodd">
        <g id="dot_black" transform="translate(23.000000, 0.000000)">
            <g id="Group">
                <path d="M338.863636,165.156125 C338.863636,119.607954 323.095361,80.6953365 291.558336,48.417105 C260.021311,16.1388736 222.002246,0 177.5,0 C132.997754,0 94.9786889,16.1388736 63.4416642,48.417105 C31.9046395,80.6953365 16.1363636,119.607954 16.1363636,165.156125 C16.1363636,202.096768 26.8237506,235.091798 48.1988451,264.142206 C66.4202372,287.454262 109.520191,328.872104 177.5,386.614274 C245.479809,328.872104 288.579763,287.454262 306.801155,264.142206 C328.176249,235.091798 338.863636,202.096768 338.863636,165.156125 Z" id="dot" fill="#EC008C" style="mix-blend-mode: multiply;"></path>
                <path d="M322.727273,178.043267 C322.727273,132.495096 306.958997,93.5824789 275.421972,61.3042475 C243.884947,29.0260161 205.865882,12.8871425 161.363636,12.8871425 C116.86139,12.8871425 78.8423253,29.0260161 47.3053006,61.3042475 C15.7682758,93.5824789 0,132.495096 0,178.043267 C0,214.98391 10.687387,247.978941 32.0624815,277.029349 C50.2838736,300.341405 93.3838275,341.759247 161.363636,399.501416 C229.343445,341.759247 272.443399,300.341405 290.664791,277.029349 C312.039886,247.978941 322.727273,214.98391 322.727273,178.043267 Z" id="dot" fill="#00AEEF" style="mix-blend-mode: multiply;"></path>
                <path d="M355,178.043267 C355,132.495096 339.231724,93.5824789 307.694699,61.3042475 C276.157675,29.0260161 238.13861,12.8871425 193.636364,12.8871425 C149.134118,12.8871425 111.115053,29.0260161 79.5780278,61.3042475 C48.0410031,93.5824789 32.2727273,132.495096 32.2727273,178.043267 C32.2727273,214.98391 42.9601142,247.978941 64.3352088,277.029349 C82.5566008,300.341405 125.656555,341.759247 193.636364,399.501416 C261.616172,341.759247 304.716126,300.341405 322.937519,277.029349 C344.312613,247.978941 355,214.98391 355,178.043267 Z" id="dot" fill="#FFF200" style="mix-blend-mode: multiply;"></path>
            </g>
        </g>
    </g>
</svg>