<?xml version="1.0" encoding="UTF-8"?>
<svg width="1650px" height="313px" viewBox="0 0 1650 313" version="1.1" xmlns="http://www.w3.org/2000/svg" xmlns:xlink="http://www.w3.org/1999/xlink">
    <!-- Generator: Sketch 42 (36781) - http://www.bohemiancoding.com/sketch -->
    <title>logo</title>
    <desc>Created with Sketch.</desc>
    <defs></defs>
    <g id="Web" stroke="none" stroke-width="1" fill="none" fill-rule="evenodd">
        <g id="logo" fill="#000000">
            <g id="ellugar_white">
                <g>
                    <path d="M15.65,45.3046797 L15.65,267.69532 C15.65,284.075988 28.9251387,297.35 45.3046797,297.35 L267.69532,297.35 C284.075988,297.35 297.35,284.074861 297.35,267.69532 L297.35,45.3046797 C297.35,28.9240122 284.074861,15.65 267.69532,15.65 L45.3046797,15.65 C28.9240122,15.65 15.65,28.9251387 15.65,45.3046797 Z M0,39.1271619 C0,17.5178271 17.5130205,0 39.1271619,0 L273.872838,0 C295.482173,0 313,17.5130205 313,39.1271619 L313,273.872838 C313,295.482173 295.48698,313 273.872838,313 L39.1271619,313 C17.5178271,313 0,295.48698 0,273.872838 L0,39.1271619 Z" id="Border" fill-rule="nonzero"></path>
                    <circle id="Dot" cx="156.5" cy="156.5" r="39.125"></circle>
                </g>
            </g>
            <path d="M426.8,158.4 C426.8,146.39994 428.649982,135.650048 432.35,126.15 C436.050019,116.649953 440.94997,108.600033 447.05,102 C453.150031,95.399967 460.099961,90.3500175 467.9,86.85 C475.700039,83.3499825 483.799958,81.6 492.2,81.6 C501.400046,81.6 509.649964,83.199984 516.95,86.4 C524.250036,89.600016 530.349976,94.19997 535.25,100.2 C540.150024,106.20003 543.899987,113.399958 546.5,121.8 C549.100013,130.200042 550.4,139.599948 550.4,150 C550.4,155.400027 550.100003,159.899982 549.5,163.5 L451.1,163.5 C452.100005,179.300079 456.949956,191.799954 465.65,201 C474.350043,210.200046 485.69993,214.8 499.7,214.8 C506.700035,214.8 513.14997,213.750011 519.05,211.65 C524.95003,209.54999 530.599973,206.800017 536,203.4 L544.7,219.6 C538.299968,223.60002 531.200039,227.099985 523.4,230.1 C515.599961,233.100015 506.70005,234.6 496.7,234.6 C486.899951,234.6 477.750043,232.850017 469.25,229.35 C460.749957,225.849983 453.350032,220.850032 447.05,214.35 C440.749969,207.849967 435.800018,199.900047 432.2,190.5 C428.599982,181.099953 426.8,170.40006 426.8,158.4 Z M528.8,147.3 C528.8,132.299925 525.650031,120.85004 519.35,112.95 C513.049968,105.049961 504.200057,101.1 492.8,101.1 C487.599974,101.1 482.650023,102.14999 477.95,104.25 C473.249977,106.350011 469.000019,109.349981 465.2,113.25 C461.399981,117.15002 458.250013,121.949972 455.75,127.65 C453.249987,133.350029 451.600004,139.899963 450.8,147.3 L528.8,147.3 Z M587.4,17.4 L612,17.4 L612,203.4 C612,207.40002 612.699993,210.199992 614.1,211.8 C615.500007,213.400008 617.099991,214.2 618.9,214.2 L621.15,214.2 C621.850003,214.2 622.899993,214.000002 624.3,213.6 L627.6,232.2 C625.999992,233.000004 624.100011,233.599998 621.9,234 C619.699989,234.400002 616.900017,234.6 613.5,234.6 C604.099953,234.6 597.40002,231.800028 593.4,226.2 C589.39998,220.599972 587.4,212.400054 587.4,201.6 L587.4,17.4 Z M664.9,17.4 L689.5,17.4 L689.5,203.4 C689.5,207.40002 690.199993,210.199992 691.6,211.8 C693.000007,213.400008 694.599991,214.2 696.4,214.2 L698.65,214.2 C699.350003,214.2 700.399993,214.000002 701.8,213.6 L705.1,232.2 C703.499992,233.000004 701.600011,233.599998 699.4,234 C697.199989,234.400002 694.400017,234.6 691,234.6 C681.599953,234.6 674.90002,231.800028 670.9,226.2 C666.89998,220.599972 664.9,212.400054 664.9,201.6 L664.9,17.4 Z M740.3,85.2 L765.2,85.2 L765.2,174.3 C765.2,188.100069 767.349978,198.049969 771.65,204.15 C775.950022,210.25003 782.899952,213.3 792.5,213.3 C800.100038,213.3 806.799971,211.35002 812.6,207.45 C818.400029,203.549981 824.799965,197.300043 831.8,188.7 L831.8,85.2 L856.4,85.2 L856.4,231 L836,231 L833.9,208.2 L833,208.2 C826.199966,216.20004 819.050037,222.599976 811.55,227.4 C804.049962,232.200024 795.200051,234.6 785,234.6 C769.399922,234.6 758.050035,229.800048 750.95,220.2 C743.849964,210.599952 740.3,196.400094 740.3,177.6 L740.3,85.2 Z M917.1,255.6 C917.1,263.400039 920.849962,269.599977 928.35,274.2 C935.850037,278.800023 946.199934,281.1 959.4,281.1 C966.400035,281.1 972.749971,280.250009 978.45,278.55 C984.150028,276.849992 988.99998,274.650014 993,271.95 C997.00002,269.249986 1000.09999,266.100018 1002.3,262.5 C1004.50001,258.899982 1005.6,255.200019 1005.6,251.4 C1005.6,244.599966 1003.10002,239.900013 998.1,237.3 C993.099975,234.699987 985.800048,233.4 976.2,233.4 L951,233.4 C948.199986,233.4 945.150016,233.250002 941.85,232.95 C938.549983,232.649999 935.300016,232.000005 932.1,231 C926.899974,234.800019 923.100012,238.799979 920.7,243 C918.299988,247.200021 917.1,251.399979 917.1,255.6 Z M895.5,258.9 C895.5,252.699969 897.399981,246.800028 901.2,241.2 C905.000019,235.599972 910.199967,230.500023 916.8,225.9 L916.8,224.7 C913.199982,222.499989 910.150013,219.450019 907.65,215.55 C905.149987,211.64998 903.9,206.800029 903.9,201 C903.9,194.799969 905.599983,189.400023 909,184.8 C912.400017,180.199977 915.999981,176.600013 919.8,174 L919.8,172.8 C914.999976,168.79998 910.65002,163.450034 906.75,156.75 C902.84998,150.049966 900.9,142.300044 900.9,133.5 C900.9,125.49996 902.349986,118.300032 905.25,111.9 C908.150014,105.499968 912.099975,100.050023 917.1,95.55 C922.100025,91.0499775 927.949967,87.600012 934.65,85.2 C941.350033,82.799988 948.399963,81.6 955.8,81.6 C959.80002,81.6 963.549982,81.9499965 967.05,82.65 C970.550017,83.3500035 973.699986,84.199995 976.5,85.2 L1027.2,85.2 L1027.2,104.1 L997.2,104.1 C1000.60002,107.500017 1003.44999,111.799974 1005.75,117 C1008.05001,122.200026 1009.2,127.899969 1009.2,134.1 C1009.2,141.900039 1007.80001,148.949969 1005,155.25 C1002.19999,161.550031 998.400024,166.849979 993.6,171.15 C988.799976,175.450021 983.150032,178.799988 976.65,181.2 C970.149968,183.600012 963.200037,184.8 955.8,184.8 C952.199982,184.8 948.500019,184.350005 944.7,183.45 C940.899981,182.549996 937.300017,181.300008 933.9,179.7 C931.299987,181.900011 929.100009,184.349986 927.3,187.05 C925.499991,189.750014 924.6,193.09998 924.6,197.1 C924.6,201.700023 926.399982,205.499985 930,208.5 C933.600018,211.500015 940.39995,213 950.4,213 L978.6,213 C995.600085,213 1008.34996,215.749973 1016.85,221.25 C1025.35004,226.750028 1029.6,235.599939 1029.6,247.8 C1029.6,254.600034 1027.90002,261.049969 1024.5,267.15 C1021.09998,273.25003 1016.20003,278.599977 1009.8,283.2 C1003.39997,287.800023 995.650045,291.449987 986.55,294.15 C977.449954,296.850014 967.200057,298.2 955.8,298.2 C946.799955,298.2 938.600037,297.350009 931.2,295.65 C923.799963,293.949992 917.450026,291.400017 912.15,288 C906.849974,284.599983 902.750014,280.500024 899.85,275.7 C896.949985,270.899976 895.5,265.300032 895.5,258.9 Z M955.8,168.3 C960.000021,168.3 963.949981,167.500008 967.65,165.9 C971.350018,164.299992 974.649985,162.000015 977.55,159 C980.450014,155.999985 982.699992,152.350022 984.3,148.05 C985.900008,143.749979 986.7,138.900027 986.7,133.5 C986.7,122.699946 983.70003,114.35003 977.7,108.45 C971.69997,102.54997 964.400043,99.6 955.8,99.6 C947.199957,99.6 939.90003,102.54997 933.9,108.45 C927.89997,114.35003 924.9,122.699946 924.9,133.5 C924.9,138.900027 925.699992,143.749979 927.3,148.05 C928.900008,152.350022 931.149985,155.999985 934.05,159 C936.950014,162.000015 940.249981,164.299992 943.95,165.9 C947.650018,167.500008 951.599979,168.3 955.8,168.3 Z M1046.8,193.2 C1046.8,177.19992 1053.94993,164.950043 1068.25,156.45 C1082.55007,147.949957 1105.29984,142.000017 1136.5,138.6 C1136.5,133.999977 1136.05,129.500022 1135.15,125.1 C1134.25,120.699978 1132.65001,116.800017 1130.35,113.4 C1128.04999,109.999983 1125.00002,107.250011 1121.2,105.15 C1117.39998,103.04999 1112.50003,102 1106.5,102 C1097.89996,102 1089.95004,103.599984 1082.65,106.8 C1075.34996,110.000016 1068.80003,113.59998 1063,117.6 L1053.1,100.5 C1059.90003,96.099978 1068.19995,91.8500205 1078,87.75 C1087.80005,83.6499795 1098.59994,81.6 1110.4,81.6 C1128.20009,81.6 1141.09996,87.0499455 1149.1,97.95 C1157.10004,108.850055 1161.1,123.399909 1161.1,141.6 L1161.1,231 L1140.7,231 L1138.6,213.6 L1138,213.6 C1130.99996,219.400029 1123.45004,224.34998 1115.35,228.45 C1107.24996,232.550021 1098.70004,234.6 1089.7,234.6 C1077.29994,234.6 1067.05004,231.000036 1058.95,223.8 C1050.84996,216.599964 1046.8,206.400066 1046.8,193.2 Z M1071.1,191.4 C1071.1,199.800042 1073.54998,205.799982 1078.45,209.4 C1083.35002,213.000018 1089.39996,214.8 1096.6,214.8 C1103.60003,214.8 1110.24997,213.150016 1116.55,209.85 C1122.85003,206.549983 1129.49996,201.700032 1136.5,195.3 L1136.5,154.8 C1124.29994,156.400008 1114.00004,158.299989 1105.6,160.5 C1097.19996,162.700011 1090.45003,165.299985 1085.35,168.3 C1080.24997,171.300015 1076.60001,174.749981 1074.4,178.65 C1072.19999,182.550019 1071.1,186.799977 1071.1,191.4 Z M1208.6,85.2 L1229,85.2 L1231.1,111.6 L1232,111.6 C1237.00002,102.399954 1243.04996,95.100027 1250.15,89.7 C1257.25004,84.299973 1264.99996,81.6 1273.4,81.6 C1279.20003,81.6 1284.39998,82.59999 1289,84.6 L1284.2,106.2 C1281.79999,105.399996 1279.60001,104.800002 1277.6,104.4 C1275.59999,103.999998 1273.10001,103.8 1270.1,103.8 C1263.89997,103.8 1257.45003,106.299975 1250.75,111.3 C1244.04997,116.300025 1238.20002,124.999938 1233.2,137.4 L1233.2,231 L1208.6,231 L1208.6,85.2 Z M1291.5,216 C1291.5,210.199971 1293.24998,205.550017 1296.75,202.05 C1300.25002,198.549982 1304.49997,196.8 1309.5,196.8 C1314.30002,196.8 1318.44998,198.549982 1321.95,202.05 C1325.45002,205.550017 1327.2,210.199971 1327.2,216 C1327.2,221.400027 1325.45002,225.849983 1321.95,229.35 C1318.44998,232.850017 1314.30002,234.6 1309.5,234.6 C1304.49997,234.6 1300.25002,232.850017 1296.75,229.35 C1293.24998,225.849983 1291.5,221.400027 1291.5,216 Z M1359.1,158.4 C1359.1,146.199939 1360.99998,135.350048 1364.8,125.85 C1368.60002,116.349953 1373.69997,108.300033 1380.1,101.7 C1386.50003,95.099967 1393.94996,90.100017 1402.45,86.7 C1410.95004,83.299983 1419.89995,81.6 1429.3,81.6 C1438.90005,81.6 1447.14997,83.3499825 1454.05,86.85 C1460.95003,90.3500175 1466.89997,94.399977 1471.9,99 L1459.6,114.9 C1455.19998,111.099981 1450.65002,108.000012 1445.95,105.6 C1441.24998,103.199988 1436.00003,102 1430.2,102 C1423.59997,102 1417.50003,103.349987 1411.9,106.05 C1406.29997,108.750014 1401.50002,112.599975 1397.5,117.6 C1393.49998,122.600025 1390.35001,128.549966 1388.05,135.45 C1385.74999,142.350034 1384.6,149.999958 1384.6,158.4 C1384.6,166.800042 1385.69999,174.399966 1387.9,181.2 C1390.10001,188.000034 1393.14998,193.849976 1397.05,198.75 C1400.95002,203.650024 1405.69997,207.449987 1411.3,210.15 C1416.90003,212.850013 1422.99997,214.2 1429.6,214.2 C1436.60003,214.2 1442.94997,212.750015 1448.65,209.85 C1454.35003,206.949986 1459.39998,203.50002 1463.8,199.5 L1474.9,215.7 C1468.29997,221.500029 1460.95004,226.099983 1452.85,229.5 C1444.74996,232.900017 1436.30004,234.6 1427.5,234.6 C1417.89995,234.6 1408.90004,232.900017 1400.5,229.5 C1392.09996,226.099983 1384.85003,221.150033 1378.75,214.65 C1372.64997,208.149968 1367.85002,200.150048 1364.35,190.65 C1360.84998,181.149953 1359.1,170.40006 1359.1,158.4 Z M1490.6,158.4 C1490.6,146.199939 1492.44998,135.350048 1496.15,125.85 C1499.85002,116.349953 1504.79997,108.300033 1511,101.7 C1517.20003,95.099967 1524.34996,90.100017 1532.45,86.7 C1540.55004,83.299983 1549.09995,81.6 1558.1,81.6 C1567.10004,81.6 1575.64996,83.299983 1583.75,86.7 C1591.85004,90.100017 1598.99997,95.099967 1605.2,101.7 C1611.40003,108.300033 1616.34998,116.349953 1620.05,125.85 C1623.75002,135.350048 1625.6,146.199939 1625.6,158.4 C1625.6,170.40006 1623.75002,181.149953 1620.05,190.65 C1616.34998,200.150048 1611.40003,208.149968 1605.2,214.65 C1598.99997,221.150033 1591.85004,226.099983 1583.75,229.5 C1575.64996,232.900017 1567.10004,234.6 1558.1,234.6 C1549.09995,234.6 1540.55004,232.900017 1532.45,229.5 C1524.34996,226.099983 1517.20003,221.150033 1511,214.65 C1504.79997,208.149968 1499.85002,200.150048 1496.15,190.65 C1492.44998,181.149953 1490.6,170.40006 1490.6,158.4 Z M1516.1,158.4 C1516.1,166.800042 1517.09999,174.399966 1519.1,181.2 C1521.10001,188.000034 1523.94998,193.849976 1527.65,198.75 C1531.35002,203.650024 1535.79997,207.449987 1541,210.15 C1546.20003,212.850013 1551.89997,214.2 1558.1,214.2 C1564.30003,214.2 1569.99997,212.850013 1575.2,210.15 C1580.40003,207.449987 1584.84998,203.650024 1588.55,198.75 C1592.25002,193.849976 1595.09999,188.000034 1597.1,181.2 C1599.10001,174.399966 1600.1,166.800042 1600.1,158.4 C1600.1,149.999958 1599.10001,142.350034 1597.1,135.45 C1595.09999,128.549966 1592.25002,122.600025 1588.55,117.6 C1584.84998,112.599975 1580.40003,108.750014 1575.2,106.05 C1569.99997,103.349986 1564.30003,102 1558.1,102 C1551.89997,102 1546.20003,103.349986 1541,106.05 C1535.79997,108.750014 1531.35002,112.599975 1527.65,117.6 C1523.94998,122.600025 1521.10001,128.549966 1519.1,135.45 C1517.09999,142.350034 1516.1,149.999958 1516.1,158.4 Z" id="ellugar.co"></path>
            <g id="Underline" transform="translate(413.000000, 261.000000)">
                <rect id="2" x="0" y="0" width="470" height="20"></rect>
                <rect id="1" x="628" y="0" width="600" height="20"></rect>
            </g>
        </g>
    </g>
</svg>