<?xml version="1.0" encoding="UTF-8"?>
<svg width="1200px" height="900px" viewBox="0 0 1200 900" version="1.1" xmlns="http://www.w3.org/2000/svg" xmlns:xlink="http://www.w3.org/1999/xlink">
    <!-- Generator: Sketch 43.2 (39069) - http://www.bohemiancoding.com/sketch -->
    <title>preview</title>
    <desc>Created with Sketch.</desc>
    <defs></defs>
    <g id="Web" stroke="none" stroke-width="1" fill="none" fill-rule="evenodd">
        <g id="preview">
            <rect id="bg" fill="#000000" x="0" y="0" width="1200" height="900"></rect>
            <g id="Group" transform="translate(300.000000, 246.000000)" fill="#FFFFFF">
                <g id="ellugar_black" transform="translate(180.000000, 0.000000)">
                    <g>
                        <path d="M12,34.7384125 L12,205.261587 C12,217.821844 22.1790201,228 34.7384125,228 L205.261587,228 C217.821844,228 228,217.82098 228,205.261587 L228,34.7384125 C228,22.1781564 217.82098,12 205.261587,12 L34.7384125,12 C22.1781564,12 12,22.1790201 12,34.7384125 Z M0,30.0016577 C0,13.4321997 13.4285141,0 30.0016577,0 L209.998342,0 C226.5678,0 240,13.4285141 240,30.0016577 L240,209.998342 C240,226.5678 226.571486,240 209.998342,240 L30.0016577,240 C13.4321997,240 0,226.571486 0,209.998342 L0,30.0016577 Z" id="Border" fill-rule="nonzero"></path>
                        <circle id="Dot" cx="120" cy="120" r="30"></circle>
                    </g>
                </g>
                <g id="ellugar.co_text_white" transform="translate(0.000000, 270.000000)">
                    <path d="M6.74267101,69.1957447 C6.74267101,63.3233749 7.64657077,58.0627892 9.45439739,53.4138298 C11.262224,48.7648704 13.6563369,44.8255481 16.6368078,41.5957447 C19.6172787,38.3659413 23.0130103,35.8946894 26.8241042,34.1819149 C30.6351982,32.4691404 34.5928134,31.612766 38.6970684,31.612766 C43.1922049,31.612766 47.2231092,32.3957369 50.7899023,33.9617021 C54.3566954,35.5276674 57.3371216,37.7787087 59.7312704,40.7148936 C62.1254191,43.6510785 63.9576484,47.1744475 65.228013,51.2851064 C66.4983777,55.3957652 67.1335505,59.9957192 67.1335505,65.0851064 C67.1335505,67.7276728 66.9869721,69.9297784 66.6938111,71.6914894 L18.6156352,71.6914894 C19.104237,79.4234429 21.4739201,85.540403 25.7247557,90.0425532 C29.9755913,94.5447034 35.5211384,96.7957447 42.3615635,96.7957447 C45.7817761,96.7957447 48.9332103,96.28192 51.8159609,95.2542553 C54.6987115,94.2265906 57.4592702,92.8808594 60.0977199,91.2170213 L64.3485342,99.1446809 C61.2214827,101.102137 57.7524621,102.814886 53.9413681,104.282979 C50.1302741,105.751071 45.7817834,106.485106 40.8957655,106.485106 C36.1074679,106.485106 31.6368286,105.628732 27.4837134,103.915957 C23.3305981,102.203183 19.7149991,99.7563989 16.6368078,96.5755319 C13.5586165,93.3946649 11.1400739,89.5042783 9.38110749,84.9042553 C7.62214104,80.3042323 6.74267101,75.0681145 6.74267101,69.1957447 Z M56.5798046,63.7638298 C56.5798046,56.4233676 55.040732,50.8202321 51.9625407,46.9542553 C48.8843494,43.0882785 44.5602884,41.1553191 38.990228,41.1553191 C36.4494987,41.1553191 34.0309561,41.6691438 31.7345277,42.6968085 C29.4380993,43.7244732 27.3615728,45.1925436 25.504886,47.1010638 C23.6481992,49.009584 22.1091266,51.3584967 20.8876221,54.1478723 C19.6661177,56.937248 18.8599368,60.1425351 18.4690554,63.7638298 L56.5798046,63.7638298 Z M85.2117264,0.195744681 L97.2312704,0.195744681 L97.2312704,91.2170213 C97.2312704,93.1744779 97.5732865,94.5446769 98.257329,95.3276596 C98.9413715,96.1106422 99.7231226,96.5021277 100.602606,96.5021277 L101.701954,96.5021277 C102.043976,96.5021277 102.557,96.4042563 103.241042,96.2085106 L104.85342,105.310638 C104.071657,105.70213 103.143328,105.995744 102.068404,106.191489 C100.99348,106.387235 99.6254155,106.485106 97.9641694,106.485106 C93.3713125,106.485106 90.0977296,105.114907 88.1433225,102.374468 C86.1889153,99.6340289 85.2117264,95.621303 85.2117264,90.3361702 L85.2117264,0.195744681 Z M123.078176,0.195744681 L135.09772,0.195744681 L135.09772,91.2170213 C135.09772,93.1744779 135.439736,94.5446769 136.123779,95.3276596 C136.807821,96.1106422 137.589572,96.5021277 138.469055,96.5021277 L139.568404,96.5021277 C139.910425,96.5021277 140.423449,96.4042563 141.107492,96.2085106 L142.71987,105.310638 C141.938107,105.70213 141.009777,105.995744 139.934853,106.191489 C138.859929,106.387235 137.491865,106.485106 135.830619,106.485106 C131.237762,106.485106 127.964179,105.114907 126.009772,102.374468 C124.055365,99.6340289 123.078176,95.621303 123.078176,90.3361702 L123.078176,0.195744681 Z M159.918567,33.3744681 L172.084691,33.3744681 L172.084691,76.9765957 C172.084691,83.729821 173.135169,88.5989212 175.236156,91.5840426 C177.337144,94.5691639 180.732876,96.0617021 185.423453,96.0617021 C189.136826,96.0617021 192.410409,95.1074564 195.2443,93.1989362 C198.07819,91.290416 201.205195,88.2319359 204.625407,84.0234043 L204.625407,33.3744681 L216.644951,33.3744681 L216.644951,104.723404 L206.677524,104.723404 L205.651466,93.5659574 L205.211726,93.5659574 C201.889234,97.4808706 198.395784,100.612754 194.73127,102.961702 C191.066757,105.31065 186.742696,106.485106 181.758958,106.485106 C174.13677,106.485106 168.591223,104.136194 165.12215,99.4382979 C161.653077,94.740402 159.918567,87.7915354 159.918567,78.5914894 L159.918567,33.3744681 Z M246.302932,116.761702 C246.302932,120.578742 248.135161,123.612755 251.799674,125.86383 C255.464188,128.114905 260.52114,129.240426 266.970684,129.240426 C270.390897,129.240426 273.493471,128.824472 276.278502,127.992553 C279.063532,127.160634 281.433215,126.084049 283.387622,124.762766 C285.342029,123.441483 286.856672,121.900009 287.931596,120.138298 C289.00652,118.376587 289.543974,116.565967 289.543974,114.706383 C289.543974,111.378707 288.322488,109.07873 285.879479,107.806383 C283.43647,106.534036 279.86973,105.897872 275.179153,105.897872 L262.86645,105.897872 C261.498364,105.897872 260.008151,105.824469 258.395765,105.67766 C256.78338,105.53085 255.195448,105.212768 253.631922,104.723404 C251.091193,106.582988 249.234534,108.540415 248.061889,110.595745 C246.889245,112.651074 246.302932,114.706373 246.302932,116.761702 Z M235.749186,118.376596 C235.749186,115.342538 236.677515,112.455333 238.534202,109.714894 C240.390889,106.974454 242.93158,104.478735 246.156352,102.22766 L246.156352,101.640426 C244.397385,100.563824 242.907172,99.0712861 241.685668,97.162766 C240.464163,95.2542458 239.85342,92.8808653 239.85342,90.0425532 C239.85342,87.0084955 240.684031,84.3659687 242.345277,82.1148936 C244.006523,79.8638185 245.765463,78.102134 247.62215,76.8297872 L247.62215,76.2425532 C245.276861,74.2850966 243.151475,71.6670377 241.245928,68.3882979 C239.340381,65.1095581 238.387622,61.3170428 238.387622,57.0106383 C238.387622,53.0957251 239.096084,49.5723561 240.513029,46.4404255 C241.929975,43.308495 243.859923,40.6415004 246.302932,38.4393617 C248.745941,36.237223 251.604218,34.548942 254.87785,33.3744681 C258.151482,32.1999941 261.596073,31.612766 265.211726,31.612766 C267.166134,31.612766 268.998363,31.7840408 270.708469,32.1265957 C272.418575,32.4691506 273.957648,32.8851039 275.325733,33.3744681 L300.09772,33.3744681 L300.09772,42.6234043 L285.439739,42.6234043 C287.100986,44.2872424 288.49348,46.3914766 289.617264,48.9361702 C290.741048,51.4808638 291.302932,54.2701976 291.302932,57.3042553 C291.302932,61.1212957 290.618899,64.5712612 289.250814,67.6542553 C287.882729,70.7372495 286.02607,73.3308405 283.680782,75.4351064 C281.335493,77.5393722 278.574934,79.1787175 275.399023,80.3531915 C272.223111,81.5276654 268.82738,82.1148936 265.211726,82.1148936 C263.45276,82.1148936 261.64496,81.8946831 259.788274,81.4542553 C257.931587,81.0138276 256.172647,80.4021316 254.511401,79.6191489 C253.241036,80.6957501 252.166128,81.8946742 251.286645,83.2159574 C250.407162,84.5372406 249.967427,86.176586 249.967427,88.1340426 C249.967427,90.3851176 250.846897,92.2446735 252.605863,93.712766 C254.36483,95.1808584 257.687272,95.9148936 262.57329,95.9148936 L276.351792,95.9148936 C284.658022,95.9148936 290.887601,97.2606248 295.040717,99.9521277 C299.193832,102.64363 301.270358,106.974438 301.270358,112.944681 C301.270358,116.272357 300.439748,119.428708 298.778502,122.41383 C297.117256,125.398951 294.723143,128.01701 291.596091,130.268085 C288.46904,132.51916 284.682433,134.305313 280.236156,135.626596 C275.78988,136.947879 270.781787,137.608511 265.211726,137.608511 C260.81431,137.608511 256.807836,137.192557 253.192182,136.360638 C249.576529,135.528719 246.473954,134.280859 243.884365,132.617021 C241.294775,130.953183 239.291538,128.94682 237.874593,126.597872 C236.457648,124.248924 235.749186,121.508526 235.749186,118.376596 Z M265.211726,74.0404255 C267.263854,74.0404255 269.193802,73.6489401 271.001629,72.8659574 C272.809455,72.0829748 274.421817,70.9574541 275.838762,69.4893617 C277.255707,68.0212693 278.355045,66.2351169 279.136808,64.1308511 C279.918571,62.0265852 280.309446,59.6532047 280.309446,57.0106383 C280.309446,51.7255055 278.843663,47.6393761 275.912052,44.7521277 C272.980441,41.8648792 269.413702,40.4212766 265.211726,40.4212766 C261.009751,40.4212766 257.443011,41.8648792 254.511401,44.7521277 C251.57979,47.6393761 250.114007,51.7255055 250.114007,57.0106383 C250.114007,59.6532047 250.504882,62.0265852 251.286645,64.1308511 C252.068408,66.2351169 253.167745,68.0212693 254.584691,69.4893617 C256.001636,70.9574541 257.613997,72.0829748 259.421824,72.8659574 C261.229651,73.6489401 263.159599,74.0404255 265.211726,74.0404255 Z M309.674267,86.2255319 C309.674267,78.3957055 313.167718,72.4010846 320.154723,68.2414894 C327.141729,64.0818941 338.257253,61.1702211 353.501629,59.506383 C353.501629,57.2553079 353.281761,55.0532023 352.84202,52.9 C352.402278,50.7467977 351.620527,48.8383062 350.496743,47.1744681 C349.372959,45.51063 347.882745,44.1648988 346.026059,43.137234 C344.169372,42.1095693 341.775259,41.5957447 338.843648,41.5957447 C334.641673,41.5957447 330.757347,42.3787156 327.190554,43.9446809 C323.623761,45.5106461 320.423467,47.2723306 317.589577,49.2297872 L312.752443,40.8617021 C316.074935,38.7084999 320.130269,36.6287334 324.918567,34.6223404 C329.706864,32.6159474 334.983685,31.612766 340.749186,31.612766 C349.446298,31.612766 355.749166,34.2797606 359.65798,39.6138298 C363.566795,44.947899 365.521173,52.0680406 365.521173,60.9744681 L365.521173,104.723404 L355.553746,104.723404 L354.527687,96.2085106 L354.234528,96.2085106 C350.814315,99.0468227 347.125427,101.469139 343.167752,103.475532 C339.210078,105.481925 335.032595,106.485106 330.635179,106.485106 C324.576517,106.485106 319.568424,104.723422 315.610749,101.2 C311.653075,97.6765781 309.674267,92.6851387 309.674267,86.2255319 Z M321.547231,85.3446809 C321.547231,89.4553397 322.744288,92.3914806 325.138436,94.1531915 C327.532585,95.9149024 330.488582,96.7957447 334.006515,96.7957447 C337.426727,96.7957447 340.67588,95.9883059 343.754072,94.3734043 C346.832263,92.7585026 350.081416,90.385122 353.501629,87.2531915 L353.501629,67.4340426 C347.540687,68.2170252 342.508164,69.1468031 338.403909,70.2234043 C334.299654,71.3000054 331.001641,72.5723331 328.509772,74.0404255 C326.017903,75.508518 324.234533,77.196799 323.159609,79.1053191 C322.084685,81.0138393 321.547231,83.0936058 321.547231,85.3446809 Z M388.729642,33.3744681 L398.697068,33.3744681 L399.723127,46.293617 L400.162866,46.293617 C402.605875,41.7914669 405.561872,38.2191621 409.030945,35.5765957 C412.500017,32.9340293 416.286624,31.612766 420.390879,31.612766 C423.22477,31.612766 425.765461,32.1021228 428.013029,33.0808511 L425.667752,43.6510638 C424.495108,43.2595725 423.4202,42.9659584 422.442997,42.7702128 C421.465793,42.5744671 420.244307,42.4765957 418.778502,42.4765957 C415.749171,42.4765957 412.597736,43.6999878 409.324104,46.1468085 C406.050472,48.5936293 403.192195,52.8510335 400.749186,58.9191489 L400.749186,104.723404 L388.729642,104.723404 L388.729642,33.3744681 Z M429.234528,97.3829787 C429.234528,94.5446667 430.089568,92.2691575 431.799674,90.556383 C433.509781,88.8436085 435.586307,87.987234 438.029316,87.987234 C440.374605,87.987234 442.402272,88.8436085 444.112378,90.556383 C445.822484,92.2691575 446.677524,94.5446667 446.677524,97.3829787 C446.677524,100.025545 445.822484,102.203183 444.112378,103.915957 C442.402272,105.628732 440.374605,106.485106 438.029316,106.485106 C435.586307,106.485106 433.509781,105.628732 431.799674,103.915957 C430.089568,102.203183 429.234528,100.025545 429.234528,97.3829787 Z M462.263844,69.1957447 C462.263844,63.2255021 463.192173,57.9159807 465.04886,53.2670213 C466.905547,48.6180619 469.397379,44.6787396 472.52443,41.4489362 C475.651481,38.2191328 479.29151,35.7723487 483.444625,34.1085106 C487.597741,32.4446725 491.970661,31.612766 496.563518,31.612766 C501.254095,31.612766 505.284999,32.4691404 508.656352,34.1819149 C512.027704,35.8946894 514.934841,37.8765845 517.37785,40.1276596 L511.368078,47.9085106 C509.21823,46.0489269 506.995125,44.5319208 504.698697,43.3574468 C502.402269,42.1829729 499.837148,41.5957447 497.003257,41.5957447 C493.778486,41.5957447 490.798059,42.2563764 488.061889,43.5776596 C485.325719,44.8989428 482.980466,46.7829665 481.026059,49.2297872 C479.071651,51.676608 477.532579,54.588281 476.408795,57.9648936 C475.285011,61.3415062 474.723127,65.0850858 474.723127,69.1957447 C474.723127,73.3064035 475.260581,77.0255153 476.335505,80.3531915 C477.410429,83.6808677 478.900642,86.543605 480.806189,88.9414894 C482.711736,91.3393737 485.03256,93.1989296 487.76873,94.5202128 C490.5049,95.841496 493.485326,96.5021277 496.710098,96.5021277 C500.13031,96.5021277 503.232885,95.7925603 506.017915,94.3734043 C508.802946,92.9542482 511.270348,91.2659672 513.420195,89.3085106 L518.843648,97.2361702 C515.618876,100.074482 512.027707,102.325524 508.070033,103.989362 C504.112358,105.6532 499.983735,106.485106 495.684039,106.485106 C490.993462,106.485106 486.596112,105.6532 482.491857,103.989362 C478.387602,102.325524 474.845292,99.9032074 471.864821,96.7223404 C468.88435,93.5414735 466.539096,89.626619 464.82899,84.9776596 C463.118884,80.3287002 462.263844,75.0681145 462.263844,69.1957447 Z M526.514658,69.1957447 C526.514658,63.2255021 527.418558,57.9159807 529.226384,53.2670213 C531.034211,48.6180619 533.452754,44.6787396 536.482085,41.4489362 C539.511416,38.2191328 543.004866,35.7723487 546.962541,34.1085106 C550.920215,32.4446725 555.097698,31.612766 559.495114,31.612766 C563.89253,31.612766 568.070013,32.4446725 572.027687,34.1085106 C575.985362,35.7723487 579.478812,38.2191328 582.508143,41.4489362 C585.537474,44.6787396 587.956017,48.6180619 589.763844,53.2670213 C591.57167,57.9159807 592.47557,63.2255021 592.47557,69.1957447 C592.47557,75.0681145 591.57167,80.3287002 589.763844,84.9776596 C587.956017,89.626619 585.537474,93.5414735 582.508143,96.7223404 C579.478812,99.9032074 575.985362,102.325524 572.027687,103.989362 C568.070013,105.6532 563.89253,106.485106 559.495114,106.485106 C555.097698,106.485106 550.920215,105.6532 546.962541,103.989362 C543.004866,102.325524 539.511416,99.9032074 536.482085,96.7223404 C533.452754,93.5414735 531.034211,89.626619 529.226384,84.9776596 C527.418558,80.3287002 526.514658,75.0681145 526.514658,69.1957447 Z M538.973941,69.1957447 C538.973941,73.3064035 539.462536,77.0255153 540.439739,80.3531915 C541.416943,83.6808677 542.809437,86.543605 544.617264,88.9414894 C546.42509,91.3393737 548.599336,93.1989296 551.140065,94.5202128 C553.680794,95.841496 556.465783,96.5021277 559.495114,96.5021277 C562.524445,96.5021277 565.309434,95.841496 567.850163,94.5202128 C570.390892,93.1989296 572.565138,91.3393737 574.372964,88.9414894 C576.180791,86.543605 577.573285,83.6808677 578.550489,80.3531915 C579.527692,77.0255153 580.016287,73.3064035 580.016287,69.1957447 C580.016287,65.0850858 579.527692,61.3415062 578.550489,57.9648936 C577.573285,54.588281 576.180791,51.676608 574.372964,49.2297872 C572.565138,46.7829665 570.390892,44.8989428 567.850163,43.5776596 C565.309434,42.2563764 562.524445,41.5957447 559.495114,41.5957447 C556.465783,41.5957447 553.680794,42.2563764 551.140065,43.5776596 C548.599336,44.8989428 546.42509,46.7829665 544.617264,49.2297872 C542.809437,51.676608 541.416943,54.588281 540.439739,57.9648936 C539.462536,61.3415062 538.973941,65.0850858 538.973941,69.1957447 Z" id="ellugar.co"></path>
                    <g id="Underline" stroke-width="1" transform="translate(0.000000, 119.404255)">
                        <rect id="2" x="0" y="0" width="229.641694" height="9.78723404"></rect>
                        <rect id="1" x="306.840391" y="0" width="293.159609" height="9.78723404"></rect>
                    </g>
                </g>
            </g>
        </g>
    </g>
</svg>