<?xml version="1.0" encoding="utf-8"?>
<!-- Generator: Adobe Illustrator 15.1.0, SVG Export Plug-In . SVG Version: 6.00 Build 0)  -->
<!DOCTYPE svg PUBLIC "-//W3C//DTD SVG 1.1//EN" "http://www.w3.org/Graphics/SVG/1.1/DTD/svg11.dtd">
<svg version="1.1" id="Capa_1" xmlns="http://www.w3.org/2000/svg" xmlns:xlink="http://www.w3.org/1999/xlink" x="0px" y="0px"
	 width="138.68px" height="146.202px" viewBox="0 0 138.68 146.202" enable-background="new 0 0 138.68 146.202"
	 xml:space="preserve">
<g>
	<path fill="#010202" d="M0,52.946c0-4.264,1.359-7.811,4.079-10.637c2.719-2.824,6.103-4.239,10.157-4.239
		c4.051,0,7.438,1.415,10.157,4.239c2.719,2.826,4.079,6.373,4.079,10.637c0,4.159-1.36,7.653-4.079,10.478
		c-2.72,2.827-6.106,4.239-10.157,4.239c-4.055,0-7.438-1.412-10.157-4.239C1.359,60.6,0,57.105,0,52.946z M0,104.772
		c0-4.264,1.359-7.811,4.079-10.637c2.719-2.824,6.103-4.238,10.157-4.238c4.051,0,7.438,1.414,10.157,4.238
		c2.719,2.826,4.079,6.373,4.079,10.637c0,4.16-1.36,7.654-4.079,10.479c-2.72,2.824-6.106,4.238-10.157,4.238
		c-4.055,0-7.438-1.414-10.157-4.238C1.359,112.427,0,108.933,0,104.772z"/>
	<path fill="#010202" d="M45.105,68.782h39.351v16.636H45.105V68.782z"/>
	<path fill="#010202" d="M108.367,111.972c-3.679-11.838-5.519-24.794-5.519-38.871c0-14.076,1.84-27.032,5.519-38.869
		c3.68-11.838,8.878-23.246,15.597-34.231l14.716,6.079c-5.866,10.451-10.132,21.381-12.797,32.791
		c-2.666,11.412-3.999,22.822-3.999,34.23c0,11.412,1.333,22.822,3.999,34.232c2.665,11.409,6.931,22.339,12.797,32.791
		l-14.716,6.078C117.245,135.218,112.047,123.808,108.367,111.972z"/>
</g>
</svg>
