<?xml version="1.0" standalone="no"?>
<!DOCTYPE svg PUBLIC "-//W3C//DTD SVG 20010904//EN"
 "http://www.w3.org/TR/2001/REC-SVG-20010904/DTD/svg10.dtd">
<svg version="1.0" xmlns="http://www.w3.org/2000/svg"
 width="400.000000pt" height="400.000000pt" viewBox="0 0 400.000000 400.000000"
 preserveAspectRatio="xMidYMid meet">
<metadata>
Created by potrace 1.11, written by Peter Selinger 2001-2013
</metadata>
<g transform="translate(0.000000,400.000000) scale(0.100000,-0.100000)"
fill="#000000" stroke="none">
<path d="M543 3785 c-166 -45 -285 -165 -328 -332 -23 -86 -23 -2820 0 -2906
44 -169 163 -288 332 -332 86 -23 2820 -23 2906 0 169 44 288 163 332 332 23
86 23 2820 0 2906 -44 169 -163 288 -332 332 -83 22 -2830 21 -2910 0z m2828
-236 c79 -37 133 -90 171 -167 l33 -67 0 -1315 0 -1315 -26 -56 c-37 -79 -90
-133 -167 -171 l-67 -33 -1315 0 -1315 0 -67 33 c-77 38 -130 92 -167 171
l-26 56 0 1315 0 1315 26 56 c50 106 144 181 247 199 26 4 625 7 1332 6 l1285
-1 56 -26z"/>
<path d="M1893 2435 c-178 -48 -305 -188 -336 -370 -49 -285 223 -557 508
-508 197 34 344 181 378 378 52 304 -252 580 -550 500z"/>
</g>
</svg>
