<?xml version="1.0" encoding="UTF-8"?>
<svg width="500px" height="500px" viewBox="0 0 500 500" version="1.1" xmlns="http://www.w3.org/2000/svg" xmlns:xlink="http://www.w3.org/1999/xlink">
    <!-- Generator: Sketch 44.1 (41455) - http://www.bohemiancoding.com/sketch -->
    <title>web/routes/home</title>
    <desc>Created with Sketch.</desc>
    <defs></defs>
    <g id="Web" stroke="none" stroke-width="1" fill="none" fill-rule="evenodd">
        <g id="home" fill="#000000">
            <path d="M0,263.574468 C26.241266,223.148734 52.6594415,194.780223 79.2553191,178.468085 C105.851197,162.155947 132.623979,154 159.574468,154 C181.560394,154 200.709138,158.255277 217.021277,166.765957 C233.333415,175.276638 248.404186,184.496404 262.234043,194.425532 C276.063899,204.35466 289.184335,213.574426 301.595745,222.085106 C314.007154,230.595787 327.6595,234.851064 342.553191,234.851064 C357.446883,234.851064 371.099229,229.531968 383.510638,218.893617 C395.922048,208.255266 407.801362,193.007191 419.148936,173.148936 L500,235.914894 C473.758734,276.340628 447.340559,304.709138 420.744681,321.021277 C394.148803,337.333415 367.376021,345.489362 340.425532,345.489362 C318.439606,345.489362 299.290862,341.234085 282.978723,332.723404 C266.666585,324.212723 251.595814,314.992957 237.765957,305.06383 C223.936101,295.134702 210.815665,285.914936 198.404255,277.404255 C185.992846,268.893574 172.3405,264.638298 157.446809,264.638298 C143.26234,264.638298 129.787298,269.957394 117.021277,280.595745 C104.255255,291.234096 92.1986383,306.48217 80.8510638,326.340426 L0,263.574468 Z" id="~"></path>
        </g>
    </g>
</svg>