<?xml version="1.0" encoding="UTF-8"?>
<svg width="500px" height="500px" viewBox="0 0 500 500" version="1.1" xmlns="http://www.w3.org/2000/svg" xmlns:xlink="http://www.w3.org/1999/xlink">
    <!-- Generator: Sketch 44.1 (41455) - http://www.bohemiancoding.com/sketch -->
    <title>web/routes/ligoj</title>
    <desc>Created with Sketch.</desc>
    <defs></defs>
    <g id="Web" stroke="none" stroke-width="1" fill="none" fill-rule="evenodd">
        <g id="ligoj" fill="#000000">
            <g id="Ligoj" transform="translate(250.436441, 250.000000) rotate(-315.000000) translate(-250.436441, -250.000000) translate(73.000000, 0.000000)">
                <circle id="center" cx="176.90678" cy="250" r="52.9661017"></circle>
                <g id="Out">
                    <polygon id="Combined-Shape-Copy" transform="translate(177.411399, 393.411850) scale(-1, -1) translate(-177.411399, -393.411850) " points="84.8508143 372.628786 84.8508143 499.74743 0.10505159 499.74743 1.13686838e-13 356.280004 69.2037327 287.076271 287.1838 287.782181 354.822799 355.42118 354.822799 499.74743 270.077036 499.74743 270.077036 372.628786"></polygon>
                    <polygon id="Combined-Shape-Copy-2" transform="translate(177.411399, 106.335579) scale(-1, 1) translate(-177.411399, -106.335579) " points="84.8508143 85.5525143 84.8508143 212.671158 0.10505159 212.671158 1.13686838e-13 69.2037327 69.2037327 -2.27373675e-13 287.1838 0.705910218 354.822799 68.3449089 354.822799 212.671158 270.077036 212.671158 270.077036 85.5525143"></polygon>
                </g>
            </g>
        </g>
    </g>
</svg>