<?xml version="1.0" encoding="UTF-8"?>
<svg width="500px" height="500px" viewBox="0 0 500 500" version="1.1" xmlns="http://www.w3.org/2000/svg" xmlns:xlink="http://www.w3.org/1999/xlink">
    <!-- Generator: Sketch 44.1 (41455) - http://www.bohemiancoding.com/sketch -->
    <title>web/routes/projects</title>
    <desc>Created with Sketch.</desc>
    <defs></defs>
    <g id="Web" stroke="none" stroke-width="1" fill="none" fill-rule="evenodd">
        <g id="projects" fill="#000000">
            <path d="M61,0 L243.515337,0 C270.611587,0 296.045893,2.68402224 319.819018,8.05214724 C343.592143,13.4202722 364.297458,22.367013 381.935583,34.892638 C399.573708,47.418263 413.505061,64.0336388 423.730061,84.7392638 C433.955061,105.444889 439.067485,130.879195 439.067485,161.042945 C439.067485,190.184195 433.827251,215.49069 423.346626,236.96319 C412.866001,258.43569 398.679026,276.073551 380.785276,289.877301 C362.891526,303.681051 342.186212,313.905897 318.668712,320.552147 C295.151212,327.198397 270.100337,330.521472 243.515337,330.521472 L173.730061,330.521472 L173.730061,500 L61,500 L61,0 Z M236.613497,240.797546 C297.452247,240.797546 327.871166,214.212945 327.871166,161.042945 C327.871166,134.969195 320.202531,116.564471 304.865031,105.828221 C289.527531,95.0919709 266.777247,89.7239264 236.613497,89.7239264 L173.730061,89.7239264 L173.730061,240.797546 L236.613497,240.797546 Z" id="P"></path>
        </g>
    </g>
</svg>